<?xml version="1.0" standalone="no"?><svg xmlns:xlink="http://www.w3.org/1999/xlink" xmlns="http://www.w3.org/2000/svg" viewBox="0 0 1000 1222.2147115189625" preserveAspectRatio="xMaxYMax slice"><g transform="scale(1.8269278199087633)"><rect x="0" y="0" width="577.7727272727273" height="669" fill="#ffffff"/><rect x="273.6818181818182" y="30.40909090909091" width="30.40909090909091" height="30.40909090909091" fill="#ffffff"/><circle cx="197.655" cy="76.025" r="15.205" fill="#f6f7f7"/><rect x="273.6818181818182" y="60.81818181818182" width="30.40909090909091" height="30.40909090909091" fill="#ffffff"/><g transform="translate(273.68,60.82) scale(0.76) rotate(0)"><rect width="20" height="10" fill="#fbfcff"/></g><g transform="translate(288.89,60.82) scale(0.76) rotate(0)"><rect width="20" height="10" fill="#f5f6f6"/></g><g transform="translate(288.89,76.02) scale(0.76) rotate(0)"><rect width="20" height="10" fill="#f7f8f8"/></g><g transform="translate(364.91,60.82) scale(1.5205) rotate(0)"><rect width="20" height="10" fill="#fbfcff"/></g><path d="M 516.95 60.82 A 30.41 30.41 0 0 1  547.36 91.23 L 516.95 60.82 A 30.41 30.41 0 0 0 547.36 91.23" fill="#f7f9ff"/><circle cx="288.885" cy="106.435" r="15.205" fill="#ffffff"/><circle cx="349.705" cy="106.435" r="15.205" fill="#fefeff"/><circle cx="562.565" cy="106.435" r="15.205" fill="#f8faff"/><rect x="182.45454545454547" y="121.63636363636364" width="30.40909090909091" height="30.40909090909091" fill="#ffffff"/><g transform="translate(197.66,136.84) scale(0.76) rotate(0)"><rect width="20" height="10" fill="#fcfdff"/></g><circle cx="228.06500000000003" cy="136.845" r="15.205" fill="#fbfcff"/><g transform="translate(486.55,121.64) scale(1.5205) rotate(0)"><rect width="20" height="10" fill="#f9fafa"/></g><g transform="translate(516.95,121.64) scale(1.5205) rotate(0)"><rect width="20" height="10" fill="#fdfeff"/></g><rect x="91.22727272727273" y="152.04545454545456" width="30.40909090909091" height="30.40909090909091" fill="#ffffff"/><g transform="translate(91.23,152.05) scale(0.76) rotate(0)"><rect width="20" height="10" fill="#fbfcff"/></g><g transform="translate(91.23,167.25) scale(0.76) rotate(0)"><rect width="20" height="10" fill="#fafbff"/></g><path d="M 152.05 182.46 A 30.41 30.41 0 0 1  182.46 152.05 L 152.05 182.46 A 30.41 30.41 0 0 0 182.46 152.05" fill="#f7f9ff"/><path d="M 304.09 182.46 A 30.41 30.41 0 0 1  334.5 152.05 L 304.09 182.46 A 30.41 30.41 0 0 0 334.5 152.05" fill="#fefeff"/><path d="M 395.32 152.05 A 30.41 30.41 0 0 1  425.73 182.46 L 395.32 152.05 A 30.41 30.41 0 0 0 425.73 182.46" fill="#eff1f1"/><path d="M 425.73 152.05 A 30.41 30.41 0 0 1  456.14000000000004 182.46 L 425.73 152.05 A 30.41 30.41 0 0 0 456.14000000000004 182.46" fill="#fdfdff"/><path d="M 30.41 212.85999999999999 A 30.41 30.41 0 0 1  60.82 182.45 L 30.41 212.85999999999999 A 30.41 30.41 0 0 0 60.82 182.45" fill="#f8f9ff"/><rect x="152.04545454545456" y="182.45454545454547" width="30.40909090909091" height="30.40909090909091" fill="#ffffff"/><g transform="translate(212.86,182.45) scale(1.5205) rotate(0)"><rect width="20" height="10" fill="#f8f9f9"/></g><rect x="395.3181818181818" y="182.45454545454547" width="30.40909090909091" height="30.40909090909091" fill="#ffffff"/><path d="M 410.52 182.45 A 15.2 15.2 0 0 1  425.71999999999997 197.64999999999998 L 410.52 182.45 A 15.2 15.2 0 0 0 425.71999999999997 197.64999999999998" fill="#f8f9f9"/><g transform="translate(410.52,197.66) scale(0.76) rotate(0)"><rect width="20" height="10" fill="#f1f3f3"/></g><path d="M 60.82 243.27 A 30.41 30.41 0 0 1  91.23 212.86 L 60.82 243.27 A 30.41 30.41 0 0 0 91.23 212.86" fill="#f5f6f6"/><rect x="91.22727272727273" y="212.86363636363637" width="30.40909090909091" height="30.40909090909091" fill="#ffffff"/><g transform="translate(91.23,212.86) scale(0.76) rotate(0)"><rect width="20" height="10" fill="#f3f4f4"/></g><path d="M 106.43 212.86 A 15.2 15.2 0 0 1  121.63000000000001 228.06 L 106.43 212.86 A 15.2 15.2 0 0 0 121.63000000000001 228.06" fill="#f5f6f6"/><path d="M 106.43 243.26999999999998 A 15.2 15.2 0 0 1  121.63000000000001 228.07 L 106.43 243.26999999999998 A 15.2 15.2 0 0 0 121.63000000000001 228.07" fill="#fefefe"/><g transform="translate(121.64,212.86) scale(1.5205) rotate(0)"><rect width="20" height="10" fill="#fbfcfc"/></g><g transform="translate(152.05,212.86) scale(1.5205) rotate(0)"><rect width="20" height="10" fill="#fefeff"/></g><g transform="translate(273.68,212.86) scale(1.5205) rotate(0)"><rect width="20" height="10" fill="#f8f9f9"/></g><circle cx="380.115" cy="228.06500000000003" r="15.205" fill="#fdfdff"/><circle cx="410.525" cy="228.06500000000003" r="15.205" fill="#fdfdfd"/><rect x="547.3636363636364" y="212.86363636363637" width="30.40909090909091" height="30.40909090909091" fill="#ffffff"/><path d="M 547.36 228.06 A 15.2 15.2 0 0 1  562.5600000000001 212.86 L 547.36 228.06 A 15.2 15.2 0 0 0 562.5600000000001 212.86" fill="#f2f3f3"/><circle cx="76.025" cy="258.475" r="15.205" fill="#feffff"/><rect x="182.45454545454547" y="243.27272727272728" width="30.40909090909091" height="30.40909090909091" fill="#ffffff"/><circle cx="190.04999999999998" cy="250.87" r="7.6" fill="#f6f7ff"/><path d="M 197.66 258.47 A 15.2 15.2 0 0 1  212.85999999999999 243.27 L 197.66 258.47 A 15.2 15.2 0 0 0 212.85999999999999 243.27" fill="#f9faff"/><circle cx="228.06500000000003" cy="258.475" r="15.205" fill="#f9faff"/><rect x="273.6818181818182" y="243.27272727272728" width="30.40909090909091" height="30.40909090909091" fill="#ffffff"/><path d="M 273.68 258.47 A 15.2 15.2 0 0 1  288.88 243.27 L 273.68 258.47 A 15.2 15.2 0 0 0 288.88 243.27" fill="#f6f8ff"/><circle cx="296.49" cy="250.87" r="7.6" fill="#f5f6f6"/><rect x="334.5" y="243.27272727272728" width="30.40909090909091" height="30.40909090909091" fill="#ffffff"/><path d="M 334.5 243.27 A 15.2 15.2 0 0 1  349.7 258.47 L 334.5 243.27 A 15.2 15.2 0 0 0 349.7 258.47" fill="#f0f2f2"/><g transform="translate(349.7,243.27) scale(0.76) rotate(0)"><rect width="20" height="10" fill="#f6f8ff"/></g><path d="M 395.32 273.68 A 30.41 30.41 0 0 1  425.73 243.27 L 395.32 273.68 A 30.41 30.41 0 0 0 425.73 243.27" fill="#edeeee"/><g transform="translate(486.55,243.27) scale(1.5205) rotate(0)"><rect width="20" height="10" fill="#edefef"/></g><rect x="0" y="273.6818181818182" width="30.40909090909091" height="30.40909090909091" fill="#ffffff"/><circle cx="7.6" cy="296.49" r="7.6" fill="#f8f9ff"/><circle cx="22.799999999999997" cy="296.49" r="7.6" fill="#fcfdff"/><rect x="212.86363636363637" y="273.6818181818182" width="30.40909090909091" height="30.40909090909091" fill="#ffffff"/><circle cx="220.46" cy="296.49" r="7.6" fill="#fefeff"/><g transform="translate(228.07,288.89) scale(0.76) rotate(0)"><rect width="20" height="10" fill="#fdfdff"/></g><circle cx="288.885" cy="288.885" r="15.205" fill="#fcfcff"/><path d="M 304.09 304.09000000000003 A 30.41 30.41 0 0 1  334.5 273.68 L 304.09 304.09000000000003 A 30.41 30.41 0 0 0 334.5 273.68" fill="#f8f9f9"/><path d="M 334.5 273.68 A 30.41 30.41 0 0 1  364.91 304.09000000000003 L 334.5 273.68 A 30.41 30.41 0 0 0 364.91 304.09000000000003" fill="#ffffff"/><rect x="364.90909090909093" y="273.6818181818182" width="30.40909090909091" height="30.40909090909091" fill="#ffffff"/><circle cx="372.51000000000005" cy="296.49" r="7.6" fill="#f6f7f7"/><g transform="translate(380.11,288.89) scale(0.76) rotate(0)"><rect width="20" height="10" fill="#fafafa"/></g><path d="M 547.36 273.68 A 30.41 30.41 0 0 1  577.77 304.09000000000003 L 547.36 273.68 A 30.41 30.41 0 0 0 577.77 304.09000000000003" fill="#fbfcff"/><rect x="60.81818181818182" y="304.0909090909091" width="30.40909090909091" height="30.40909090909091" fill="#ffffff"/><g transform="translate(76.02,304.09) scale(0.76) rotate(0)"><rect width="20" height="10" fill="#eff1f1"/></g><g transform="translate(121.64,304.09) scale(1.5205) rotate(0)"><rect width="20" height="10" fill="#fdfdfd"/></g><path d="M 182.45 304.09 A 30.41 30.41 0 0 1  212.85999999999999 334.5 L 182.45 304.09 A 30.41 30.41 0 0 0 212.85999999999999 334.5" fill="#f5f6f6"/><g transform="translate(243.27,304.09) scale(1.5205) rotate(0)"><rect width="20" height="10" fill="#fefeff"/></g><g transform="translate(273.68,304.09) scale(1.5205) rotate(0)"><rect width="20" height="10" fill="#fdfdfd"/></g><circle cx="440.935" cy="319.29499999999996" r="15.205" fill="#f3f4f4"/><rect x="456.1363636363636" y="304.0909090909091" width="30.40909090909091" height="30.40909090909091" fill="#ffffff"/><g transform="translate(471.34,304.09) scale(0.76) rotate(0)"><rect width="20" height="10" fill="#f0f1f1"/></g><path d="M 456.14 334.5 A 15.2 15.2 0 0 1  471.34 319.3 L 456.14 334.5 A 15.2 15.2 0 0 0 471.34 319.3" fill="#f1f2f2"/><g transform="translate(471.34,319.3) scale(0.76) rotate(0)"><rect width="20" height="10" fill="#fdfdff"/></g><g transform="translate(486.55,304.09) scale(1.5205) rotate(0)"><rect width="20" height="10" fill="#ffffff"/></g><circle cx="15.205" cy="349.705" r="15.205" fill="#fafafa"/><g transform="translate(30.41,334.5) scale(1.5205) rotate(0)"><rect width="20" height="10" fill="#eef0f0"/></g><rect x="60.81818181818182" y="334.5" width="30.40909090909091" height="30.40909090909091" fill="#ffffff"/><circle cx="68.42" cy="342.1" r="7.6" fill="#fdfdff"/><circle cx="83.61999999999999" cy="342.1" r="7.6" fill="#f1f2f2"/><circle cx="68.42" cy="357.3" r="7.6" fill="#f8faff"/><circle cx="83.61999999999999" cy="357.3" r="7.6" fill="#ffffff"/><g transform="translate(91.23,334.5) scale(1.5205) rotate(0)"><rect width="20" height="10" fill="#f7f9ff"/></g><path d="M 121.64 364.91 A 30.41 30.41 0 0 1  152.05 334.5 L 121.64 364.91 A 30.41 30.41 0 0 0 152.05 334.5" fill="#f7f8f8"/><rect x="182.45454545454547" y="334.5" width="30.40909090909091" height="30.40909090909091" fill="#ffffff"/><g transform="translate(197.66,334.5) scale(0.76) rotate(0)"><rect width="20" height="10" fill="#f8f9ff"/></g><path d="M 212.86 364.91 A 30.41 30.41 0 0 1  243.27 334.5 L 212.86 364.91 A 30.41 30.41 0 0 0 243.27 334.5" fill="#fbfcff"/><path d="M 273.68 364.91 A 30.41 30.41 0 0 1  304.09000000000003 334.5 L 273.68 364.91 A 30.41 30.41 0 0 0 304.09000000000003 334.5" fill="#ffffff"/><g transform="translate(334.5,334.5) scale(1.5205) rotate(0)"><rect width="20" height="10" fill="#fcfdff"/></g><rect x="364.90909090909093" y="334.5" width="30.40909090909091" height="30.40909090909091" fill="#ffffff"/><circle cx="372.51000000000005" cy="342.1" r="7.6" fill="#f4f6f6"/><path d="M 380.11 349.7 A 15.2 15.2 0 0 1  395.31 334.5 L 380.11 349.7 A 15.2 15.2 0 0 0 395.31 334.5" fill="#f6f7f7"/><path d="M 364.91 364.9 A 15.2 15.2 0 0 1  380.11 349.7 L 364.91 364.9 A 15.2 15.2 0 0 0 380.11 349.7" fill="#fcfcff"/><path d="M 395.32 334.5 A 30.41 30.41 0 0 1  425.73 364.91 L 395.32 334.5 A 30.41 30.41 0 0 0 425.73 364.91" fill="#fbfcff"/><path d="M 456.14 334.5 A 30.41 30.41 0 0 1  486.55 364.91 L 456.14 334.5 A 30.41 30.41 0 0 0 486.55 364.91" fill="#fefefe"/><rect x="486.54545454545456" y="334.5" width="30.40909090909091" height="30.40909090909091" fill="#ffffff"/><circle cx="509.35" cy="342.1" r="7.6" fill="#f0f2f2"/><circle cx="509.35" cy="357.3" r="7.6" fill="#fafbff"/><path d="M 0 395.32000000000005 A 30.41 30.41 0 0 1  30.41 364.91 L 0 395.32000000000005 A 30.41 30.41 0 0 0 30.41 364.91" fill="#fbfbfb"/><g transform="translate(30.41,364.91) scale(1.5205) rotate(0)"><rect width="20" height="10" fill="#fcfcfc"/></g><g transform="translate(60.82,364.91) scale(1.5205) rotate(0)"><rect width="20" height="10" fill="#fdfdff"/></g><rect x="152.04545454545456" y="364.90909090909093" width="30.40909090909091" height="30.40909090909091" fill="#ffffff"/><circle cx="159.65" cy="372.51000000000005" r="7.6" fill="#fafbff"/><g transform="translate(167.25,364.91) scale(0.76) rotate(0)"><rect width="20" height="10" fill="#fafbff"/></g><circle cx="159.65" cy="387.71000000000004" r="7.6" fill="#f4f5f5"/><path d="M 167.25 395.31 A 15.2 15.2 0 0 1  182.45 380.11 L 167.25 395.31 A 15.2 15.2 0 0 0 182.45 380.11" fill="#fbfcff"/><rect x="182.45454545454547" y="364.90909090909093" width="30.40909090909091" height="30.40909090909091" fill="#ffffff"/><path d="M 197.66 364.91 A 15.2 15.2 0 0 1  212.85999999999999 380.11 L 197.66 364.91 A 15.2 15.2 0 0 0 212.85999999999999 380.11" fill="#f1f3f3"/><g transform="translate(182.45,380.11) scale(0.76) rotate(0)"><rect width="20" height="10" fill="#f4f5f5"/></g><rect x="212.86363636363637" y="364.90909090909093" width="30.40909090909091" height="30.40909090909091" fill="#ffffff"/><path d="M 228.07 364.91 A 15.2 15.2 0 0 1  243.26999999999998 380.11 L 228.07 364.91 A 15.2 15.2 0 0 0 243.26999999999998 380.11" fill="#fbfbfb"/><path d="M 228.07 395.31 A 15.2 15.2 0 0 1  243.26999999999998 380.11 L 228.07 395.31 A 15.2 15.2 0 0 0 243.26999999999998 380.11" fill="#f8f8f8"/><rect x="243.27272727272728" y="364.90909090909093" width="30.40909090909091" height="30.40909090909091" fill="#ffffff"/><g transform="translate(243.27,364.91) scale(0.76) rotate(0)"><rect width="20" height="10" fill="#f6f8ff"/></g><g transform="translate(258.48,364.91) scale(0.76) rotate(0)"><rect width="20" height="10" fill="#fafbfb"/></g><g transform="translate(243.27,380.11) scale(0.76) rotate(0)"><rect width="20" height="10" fill="#f9faff"/></g><circle cx="266.08000000000004" cy="387.71000000000004" r="7.6" fill="#f8f9f9"/><path d="M 273.68 395.32000000000005 A 30.41 30.41 0 0 1  304.09000000000003 364.91 L 273.68 395.32000000000005 A 30.41 30.41 0 0 0 304.09000000000003 364.91" fill="#f6f7f7"/><g transform="translate(304.09,364.91) scale(1.5205) rotate(0)"><rect width="20" height="10" fill="#f7f8f8"/></g><circle cx="380.115" cy="380.115" r="15.205" fill="#f7f9ff"/><circle cx="410.525" cy="380.115" r="15.205" fill="#fdfdff"/><g transform="translate(425.73,364.91) scale(1.5205) rotate(0)"><rect width="20" height="10" fill="#f6f8ff"/></g><rect x="456.1363636363636" y="364.90909090909093" width="30.40909090909091" height="30.40909090909091" fill="#ffffff"/><circle cx="478.94" cy="372.51000000000005" r="7.6" fill="#f8f9ff"/><path d="M 456.14 380.11 A 15.2 15.2 0 0 1  471.34 395.31 L 456.14 380.11 A 15.2 15.2 0 0 0 471.34 395.31" fill="#fcfdfd"/><circle cx="478.94" cy="387.71000000000004" r="7.6" fill="#eef0f0"/><rect x="486.54545454545456" y="364.90909090909093" width="30.40909090909091" height="30.40909090909091" fill="#ffffff"/><circle cx="532.1550000000001" cy="380.115" r="15.205" fill="#edefef"/><rect x="30.40909090909091" y="395.3181818181818" width="30.40909090909091" height="30.40909090909091" fill="#ffffff"/><g transform="translate(45.61,395.32) scale(0.76) rotate(0)"><rect width="20" height="10" fill="#fcfdff"/></g><g transform="translate(30.41,410.52) scale(0.76) rotate(0)"><rect width="20" height="10" fill="#f9faff"/></g><path d="M 45.61 410.52 A 15.2 15.2 0 0 1  60.81 425.71999999999997 L 45.61 410.52 A 15.2 15.2 0 0 0 60.81 425.71999999999997" fill="#f9faff"/><g transform="translate(60.82,395.32) scale(1.5205) rotate(0)"><rect width="20" height="10" fill="#f9faff"/></g><circle cx="106.435" cy="410.525" r="15.205" fill="#f5f7ff"/><circle cx="136.845" cy="410.525" r="15.205" fill="#f7f8f8"/><rect x="152.04545454545456" y="395.3181818181818" width="30.40909090909091" height="30.40909090909091" fill="#ffffff"/><path d="M 182.45 425.73 A 30.41 30.41 0 0 1  212.85999999999999 395.32 L 182.45 425.73 A 30.41 30.41 0 0 0 212.85999999999999 395.32" fill="#fcfdff"/><g transform="translate(212.86,395.32) scale(1.5205) rotate(0)"><rect width="20" height="10" fill="#f8f8f8"/></g><rect x="243.27272727272728" y="395.3181818181818" width="30.40909090909091" height="30.40909090909091" fill="#ffffff"/><g transform="translate(243.27,395.32) scale(0.76) rotate(0)"><rect width="20" height="10" fill="#f8f8f8"/></g><path d="M 273.68 425.73 A 30.41 30.41 0 0 1  304.09000000000003 395.32 L 273.68 425.73 A 30.41 30.41 0 0 0 304.09000000000003 395.32" fill="#fdfdfd"/><rect x="304.0909090909091" y="395.3181818181818" width="30.40909090909091" height="30.40909090909091" fill="#ffffff"/><circle cx="311.69" cy="402.92" r="7.6" fill="#eceeee"/><path d="M 319.3 410.52 A 15.2 15.2 0 0 1  334.5 395.32 L 319.3 410.52 A 15.2 15.2 0 0 0 334.5 395.32" fill="#fcfdfd"/><path d="M 304.09 425.71999999999997 A 15.2 15.2 0 0 1  319.28999999999996 410.52 L 304.09 425.71999999999997 A 15.2 15.2 0 0 0 319.28999999999996 410.52" fill="#f6f8ff"/><g transform="translate(334.5,395.32) scale(1.5205) rotate(0)"><rect width="20" height="10" fill="#f6f8ff"/></g><path d="M 364.91 395.32 A 30.41 30.41 0 0 1  395.32000000000005 425.73 L 364.91 395.32 A 30.41 30.41 0 0 0 395.32000000000005 425.73" fill="#fbfcfc"/><circle cx="410.525" cy="410.525" r="15.205" fill="#fefeff"/><g transform="translate(425.73,395.32) scale(1.5205) rotate(0)"><rect width="20" height="10" fill="#f9fbff"/></g><circle cx="471.34499999999997" cy="410.525" r="15.205" fill="#fafbfb"/><circle cx="562.565" cy="410.525" r="15.205" fill="#fbfcff"/><g transform="translate(0,425.73) scale(1.5205) rotate(0)"><rect width="20" height="10" fill="#f0f2f2"/></g><g transform="translate(60.82,425.73) scale(1.5205) rotate(0)"><rect width="20" height="10" fill="#fafbfb"/></g><path d="M 91.23 425.73 A 30.41 30.41 0 0 1  121.64 456.14000000000004 L 91.23 425.73 A 30.41 30.41 0 0 0 121.64 456.14000000000004" fill="#f7f8ff"/><path d="M 121.64 456.14000000000004 A 30.41 30.41 0 0 1  152.05 425.73 L 121.64 456.14000000000004 A 30.41 30.41 0 0 0 152.05 425.73" fill="#f7f8f8"/><circle cx="167.25500000000002" cy="440.935" r="15.205" fill="#f7f9ff"/><g transform="translate(182.45,425.73) scale(1.5205) rotate(0)"><rect width="20" height="10" fill="#fefeff"/></g><circle cx="228.06500000000003" cy="440.935" r="15.205" fill="#fafbff"/><circle cx="258.475" cy="440.935" r="15.205" fill="#fdfdff"/><rect x="334.5" y="425.72727272727275" width="30.40909090909091" height="30.40909090909091" fill="#ffffff"/><path d="M 334.5 425.73 A 15.2 15.2 0 0 1  349.7 440.93 L 334.5 425.73 A 15.2 15.2 0 0 0 349.7 440.93" fill="#fafbff"/><path d="M 349.7 425.73 A 15.2 15.2 0 0 1  364.9 440.93 L 349.7 425.73 A 15.2 15.2 0 0 0 364.9 440.93" fill="#f9fafa"/><g transform="translate(334.5,440.93) scale(0.76) rotate(0)"><rect width="20" height="10" fill="#fefeff"/></g><path d="M 349.7 440.93 A 15.2 15.2 0 0 1  364.9 456.13 L 349.7 440.93 A 15.2 15.2 0 0 0 364.9 456.13" fill="#f6f8ff"/><path d="M 364.91 456.14000000000004 A 30.41 30.41 0 0 1  395.32000000000005 425.73 L 364.91 456.14000000000004 A 30.41 30.41 0 0 0 395.32000000000005 425.73" fill="#f0f2f2"/><g transform="translate(395.32,425.73) scale(1.5205) rotate(0)"><rect width="20" height="10" fill="#f0f2f2"/></g><g transform="translate(425.73,425.73) scale(1.5205) rotate(0)"><rect width="20" height="10" fill="#eef0f0"/></g><path d="M 456.14 425.73 A 30.41 30.41 0 0 1  486.55 456.14000000000004 L 456.14 425.73 A 30.41 30.41 0 0 0 486.55 456.14000000000004" fill="#f7f8f8"/><rect x="486.54545454545456" y="425.72727272727275" width="30.40909090909091" height="30.40909090909091" fill="#ffffff"/><circle cx="494.15000000000003" cy="433.33000000000004" r="7.6" fill="#eff0f0"/><circle cx="509.35" cy="433.33000000000004" r="7.6" fill="#f3f4f4"/><path d="M 486.55 440.93 A 15.2 15.2 0 0 1  501.75 456.13 L 486.55 440.93 A 15.2 15.2 0 0 0 501.75 456.13" fill="#f4f5f5"/><circle cx="509.35" cy="448.53000000000003" r="7.6" fill="#f5f6f6"/><path d="M 516.95 456.14000000000004 A 30.41 30.41 0 0 1  547.36 425.73 L 516.95 456.14000000000004 A 30.41 30.41 0 0 0 547.36 425.73" fill="#f7f9ff"/><g transform="translate(30.41,456.14) scale(1.5205) rotate(0)"><rect width="20" height="10" fill="#f4f5f5"/></g><circle cx="76.025" cy="471.34499999999997" r="15.205" fill="#f7f9ff"/><g transform="translate(91.23,456.14) scale(1.5205) rotate(0)"><rect width="20" height="10" fill="#f8f9ff"/></g><circle cx="167.25500000000002" cy="471.34499999999997" r="15.205" fill="#f7f9ff"/><g transform="translate(182.45,456.14) scale(1.5205) rotate(0)"><rect width="20" height="10" fill="#fafafa"/></g><circle cx="228.06500000000003" cy="471.34499999999997" r="15.205" fill="#f9f9f9"/><g transform="translate(273.68,456.14) scale(1.5205) rotate(0)"><rect width="20" height="10" fill="#f7f8ff"/></g><rect x="304.0909090909091" y="456.1363636363636" width="30.40909090909091" height="30.40909090909091" fill="#ffffff"/><path d="M 304.09 456.14 A 15.2 15.2 0 0 1  319.28999999999996 471.34 L 304.09 456.14 A 15.2 15.2 0 0 0 319.28999999999996 471.34" fill="#eef0f0"/><circle cx="326.90000000000003" cy="463.74" r="7.6" fill="#f9faff"/><g transform="translate(304.09,471.34) scale(0.76) rotate(0)"><rect width="20" height="10" fill="#f8f9f9"/></g><path d="M 319.3 471.34 A 15.2 15.2 0 0 1  334.5 486.53999999999996 L 319.3 471.34 A 15.2 15.2 0 0 0 334.5 486.53999999999996" fill="#f1f3f3"/><g transform="translate(334.5,456.14) scale(1.5205) rotate(0)"><rect width="20" height="10" fill="#ffffff"/></g><g transform="translate(364.91,456.14) scale(1.5205) rotate(0)"><rect width="20" height="10" fill="#fafbff"/></g><rect x="395.3181818181818" y="456.1363636363636" width="30.40909090909091" height="30.40909090909091" fill="#ffffff"/><g transform="translate(395.32,456.14) scale(0.76) rotate(0)"><rect width="20" height="10" fill="#f0f2f2"/></g><circle cx="418.12" cy="463.74" r="7.6" fill="#f5f6f6"/><g transform="translate(395.32,471.34) scale(0.76) rotate(0)"><rect width="20" height="10" fill="#f7f8f8"/></g><circle cx="418.12" cy="478.94" r="7.6" fill="#ffffff"/><rect x="425.72727272727275" y="456.1363636363636" width="30.40909090909091" height="30.40909090909091" fill="#ffffff"/><circle cx="433.33000000000004" cy="463.74" r="7.6" fill="#f3f4f4"/><g transform="translate(425.73,471.34) scale(0.76) rotate(0)"><rect width="20" height="10" fill="#fafafa"/></g><circle cx="448.53000000000003" cy="478.94" r="7.6" fill="#fbfbfb"/><circle cx="471.34499999999997" cy="471.34499999999997" r="15.205" fill="#f4f6f6"/><circle cx="501.755" cy="471.34499999999997" r="15.205" fill="#f9faff"/><circle cx="532.1550000000001" cy="471.34499999999997" r="15.205" fill="#f0f1f1"/><g transform="translate(547.36,456.14) scale(1.5205) rotate(0)"><rect width="20" height="10" fill="#fefeff"/></g><path d="M 0 516.96 A 30.41 30.41 0 0 1  30.41 486.55 L 0 516.96 A 30.41 30.41 0 0 0 30.41 486.55" fill="#f9faff"/><g transform="translate(30.41,486.55) scale(1.5205) rotate(0)"><rect width="20" height="10" fill="#f8f9f9"/></g><g transform="translate(60.82,486.55) scale(1.5205) rotate(0)"><rect width="20" height="10" fill="#f7f8ff"/></g><rect x="91.22727272727273" y="486.54545454545456" width="30.40909090909091" height="30.40909090909091" fill="#ffffff"/><path d="M 91.23 486.55 A 15.2 15.2 0 0 1  106.43 501.75 L 91.23 486.55 A 15.2 15.2 0 0 0 106.43 501.75" fill="#f3f4f4"/><circle cx="114.03" cy="494.15000000000003" r="7.6" fill="#f9faff"/><path d="M 91.23 516.95 A 15.2 15.2 0 0 1  106.43 501.75 L 91.23 516.95 A 15.2 15.2 0 0 0 106.43 501.75" fill="#eff1f1"/><path d="M 106.43 516.95 A 15.2 15.2 0 0 1  121.63000000000001 501.75 L 106.43 516.95 A 15.2 15.2 0 0 0 121.63000000000001 501.75" fill="#f6f7f7"/><circle cx="167.25500000000002" cy="501.755" r="15.205" fill="#f4f5f5"/><circle cx="197.655" cy="501.755" r="15.205" fill="#fbfbfb"/><circle cx="228.06500000000003" cy="501.755" r="15.205" fill="#eceeee"/><g transform="translate(243.27,486.55) scale(1.5205) rotate(0)"><rect width="20" height="10" fill="#fcfdff"/></g><circle cx="288.885" cy="501.755" r="15.205" fill="#f1f2f2"/><rect x="304.0909090909091" y="486.54545454545456" width="30.40909090909091" height="30.40909090909091" fill="#ffffff"/><g transform="translate(304.09,501.75) scale(0.76) rotate(0)"><rect width="20" height="10" fill="#f4f5f5"/></g><g transform="translate(319.3,501.75) scale(0.76) rotate(0)"><rect width="20" height="10" fill="#f1f3f3"/></g><circle cx="380.115" cy="501.755" r="15.205" fill="#f8faff"/><g transform="translate(395.32,486.55) scale(1.5205) rotate(0)"><rect width="20" height="10" fill="#edefef"/></g><circle cx="440.935" cy="501.755" r="15.205" fill="#fdfdfd"/><rect x="456.1363636363636" y="486.54545454545456" width="30.40909090909091" height="30.40909090909091" fill="#ffffff"/><circle cx="463.74" cy="494.15000000000003" r="7.6" fill="#f9faff"/><g transform="translate(471.34,486.55) scale(0.76) rotate(0)"><rect width="20" height="10" fill="#fefeff"/></g><g transform="translate(456.14,501.75) scale(0.76) rotate(0)"><rect width="20" height="10" fill="#fafbff"/></g><path d="M 471.34 501.75 A 15.2 15.2 0 0 1  486.53999999999996 516.95 L 471.34 501.75 A 15.2 15.2 0 0 0 486.53999999999996 516.95" fill="#f0f2f2"/><circle cx="501.755" cy="501.755" r="15.205" fill="#eef0f0"/><circle cx="532.1550000000001" cy="501.755" r="15.205" fill="#fefefe"/><g transform="translate(547.36,486.55) scale(1.5205) rotate(0)"><rect width="20" height="10" fill="#f6f8ff"/></g><rect x="0" y="516.9545454545455" width="30.40909090909091" height="30.40909090909091" fill="#ffffff"/><circle cx="7.6" cy="524.5500000000001" r="7.6" fill="#fafbff"/><path d="M 15.2 532.1500000000001 A 15.2 15.2 0 0 1  30.4 516.95 L 15.2 532.1500000000001 A 15.2 15.2 0 0 0 30.4 516.95" fill="#fafafa"/><circle cx="7.6" cy="539.76" r="7.6" fill="#f2f3f3"/><g transform="translate(15.2,532.16) scale(0.76) rotate(0)"><rect width="20" height="10" fill="#fafbff"/></g><g transform="translate(60.82,516.95) scale(1.5205) rotate(0)"><rect width="20" height="10" fill="#f7f8ff"/></g><rect x="91.22727272727273" y="516.9545454545455" width="30.40909090909091" height="30.40909090909091" fill="#ffffff"/><circle cx="98.83" cy="524.5500000000001" r="7.6" fill="#f1f3f3"/><circle cx="114.03" cy="524.5500000000001" r="7.6" fill="#f7f8f8"/><g transform="translate(91.23,532.16) scale(0.76) rotate(0)"><rect width="20" height="10" fill="#fdfdfd"/></g><circle cx="114.03" cy="539.76" r="7.6" fill="#fefeff"/><path d="M 121.64 516.95 A 30.41 30.41 0 0 1  152.05 547.36 L 121.64 516.95 A 30.41 30.41 0 0 0 152.05 547.36" fill="#f0f1f1"/><path d="M 152.05 516.95 A 30.41 30.41 0 0 1  182.46 547.36 L 152.05 516.95 A 30.41 30.41 0 0 0 182.46 547.36" fill="#f6f7f7"/><path d="M 182.45 547.36 A 30.41 30.41 0 0 1  212.85999999999999 516.95 L 182.45 547.36 A 30.41 30.41 0 0 0 212.85999999999999 516.95" fill="#f9fafa"/><circle cx="228.06500000000003" cy="532.1550000000001" r="15.205" fill="#fbfcff"/><path d="M 243.27 547.36 A 30.41 30.41 0 0 1  273.68 516.95 L 243.27 547.36 A 30.41 30.41 0 0 0 273.68 516.95" fill="#ffffff"/><circle cx="288.885" cy="532.1550000000001" r="15.205" fill="#f5f6f6"/><circle cx="319.29499999999996" cy="532.1550000000001" r="15.205" fill="#f8f9ff"/><path d="M 334.5 547.36 A 30.41 30.41 0 0 1  364.91 516.95 L 334.5 547.36 A 30.41 30.41 0 0 0 364.91 516.95" fill="#fafbfb"/><circle cx="380.115" cy="532.1550000000001" r="15.205" fill="#fdfdfd"/><path d="M 425.73 516.95 A 30.41 30.41 0 0 1  456.14000000000004 547.36 L 425.73 516.95 A 30.41 30.41 0 0 0 456.14000000000004 547.36" fill="#fcfcff"/><rect x="456.1363636363636" y="516.9545454545455" width="30.40909090909091" height="30.40909090909091" fill="#ffffff"/><path d="M 456.14 516.95 A 15.2 15.2 0 0 1  471.34 532.1500000000001 L 456.14 516.95 A 15.2 15.2 0 0 0 471.34 532.1500000000001" fill="#fcfcfc"/><path d="M 471.34 532.1500000000001 A 15.2 15.2 0 0 1  486.53999999999996 516.95 L 471.34 532.1500000000001 A 15.2 15.2 0 0 0 486.53999999999996 516.95" fill="#fdfdfd"/><circle cx="463.74" cy="539.76" r="7.6" fill="#fbfbfb"/><g transform="translate(471.34,532.16) scale(0.76) rotate(0)"><rect width="20" height="10" fill="#f2f3f3"/></g><rect x="486.54545454545456" y="516.9545454545455" width="30.40909090909091" height="30.40909090909091" fill="#ffffff"/><circle cx="494.15000000000003" cy="524.5500000000001" r="7.6" fill="#f1f2f2"/><g transform="translate(486.55,532.16) scale(0.76) rotate(0)"><rect width="20" height="10" fill="#ffffff"/></g><g transform="translate(501.75,532.16) scale(0.76) rotate(0)"><rect width="20" height="10" fill="#f5f6f6"/></g><circle cx="562.565" cy="532.1550000000001" r="15.205" fill="#fafbff"/><rect x="0" y="547.3636363636364" width="30.40909090909091" height="30.40909090909091" fill="#ffffff"/><circle cx="7.6" cy="554.96" r="7.6" fill="#f7f9ff"/><g transform="translate(15.2,547.36) scale(0.76) rotate(0)"><rect width="20" height="10" fill="#f9faff"/></g><path d="M 0 562.57 A 15.2 15.2 0 0 1  15.2 577.7700000000001 L 0 562.57 A 15.2 15.2 0 0 0 15.2 577.7700000000001" fill="#fdfeff"/><circle cx="22.799999999999997" cy="570.1700000000001" r="7.6" fill="#f3f4f4"/><circle cx="45.615" cy="562.565" r="15.205" fill="#f7f9ff"/><g transform="translate(60.82,547.36) scale(1.5205) rotate(0)"><rect width="20" height="10" fill="#fefeff"/></g><circle cx="106.435" cy="562.565" r="15.205" fill="#f7f8f8"/><rect x="121.63636363636364" y="547.3636363636364" width="30.40909090909091" height="30.40909090909091" fill="#ffffff"/><path d="M 121.64 547.36 A 15.2 15.2 0 0 1  136.84 562.5600000000001 L 121.64 547.36 A 15.2 15.2 0 0 0 136.84 562.5600000000001" fill="#ffffff"/><path d="M 136.84 562.5600000000001 A 15.2 15.2 0 0 1  152.04 547.36 L 136.84 562.5600000000001 A 15.2 15.2 0 0 0 152.04 547.36" fill="#fafbff"/><g transform="translate(121.64,562.57) scale(0.76) rotate(0)"><rect width="20" height="10" fill="#fdfeff"/></g><circle cx="144.44" cy="570.1700000000001" r="7.6" fill="#fefefe"/><g transform="translate(152.05,547.36) scale(1.5205) rotate(0)"><rect width="20" height="10" fill="#fcfdff"/></g><path d="M 182.45 577.77 A 30.41 30.41 0 0 1  212.85999999999999 547.36 L 182.45 577.77 A 30.41 30.41 0 0 0 212.85999999999999 547.36" fill="#f3f4f4"/><rect x="212.86363636363637" y="547.3636363636364" width="30.40909090909091" height="30.40909090909091" fill="#ffffff"/><g transform="translate(212.86,547.36) scale(0.76) rotate(0)"><rect width="20" height="10" fill="#fefefe"/></g><path d="M 228.07 562.5600000000001 A 15.2 15.2 0 0 1  243.26999999999998 547.36 L 228.07 562.5600000000001 A 15.2 15.2 0 0 0 243.26999999999998 547.36" fill="#f7f9ff"/><circle cx="220.46" cy="570.1700000000001" r="7.6" fill="#fbfcff"/><circle cx="235.67" cy="570.1700000000001" r="7.6" fill="#f5f6f6"/><g transform="translate(243.27,547.36) scale(1.5205) rotate(0)"><rect width="20" height="10" fill="#f1f2f2"/></g><path d="M 273.68 577.77 A 30.41 30.41 0 0 1  304.09000000000003 547.36 L 273.68 577.77 A 30.41 30.41 0 0 0 304.09000000000003 547.36" fill="#fbfcff"/><circle cx="319.29499999999996" cy="562.565" r="15.205" fill="#fdfdfd"/><path d="M 334.5 577.77 A 30.41 30.41 0 0 1  364.91 547.36 L 334.5 577.77 A 30.41 30.41 0 0 0 364.91 547.36" fill="#f7f8f8"/><rect x="364.90909090909093" y="547.3636363636364" width="30.40909090909091" height="30.40909090909091" fill="#ffffff"/><circle cx="372.51000000000005" cy="554.96" r="7.6" fill="#fcfdfd"/><path d="M 364.91 577.7700000000001 A 15.2 15.2 0 0 1  380.11 562.57 L 364.91 577.7700000000001 A 15.2 15.2 0 0 0 380.11 562.57" fill="#fcfcfc"/><g transform="translate(380.11,562.57) scale(0.76) rotate(0)"><rect width="20" height="10" fill="#fbfcff"/></g><rect x="395.3181818181818" y="547.3636363636364" width="30.40909090909091" height="30.40909090909091" fill="#ffffff"/><path d="M 395.32 547.36 A 15.2 15.2 0 0 1  410.52 562.5600000000001 L 395.32 547.36 A 15.2 15.2 0 0 0 410.52 562.5600000000001" fill="#f8f9f9"/><path d="M 410.52 547.36 A 15.2 15.2 0 0 1  425.71999999999997 562.5600000000001 L 410.52 547.36 A 15.2 15.2 0 0 0 425.71999999999997 562.5600000000001" fill="#eceeee"/><circle cx="402.92" cy="570.1700000000001" r="7.6" fill="#f7f8ff"/><g transform="translate(410.52,562.57) scale(0.76) rotate(0)"><rect width="20" height="10" fill="#f9fafa"/></g><g transform="translate(425.73,547.36) scale(1.5205) rotate(0)"><rect width="20" height="10" fill="#f9fbff"/></g><path d="M 456.14 547.36 A 30.41 30.41 0 0 1  486.55 577.77 L 456.14 547.36 A 30.41 30.41 0 0 0 486.55 577.77" fill="#fcfdff"/><g transform="translate(486.55,547.36) scale(1.5205) rotate(0)"><rect width="20" height="10" fill="#fefeff"/></g><circle cx="532.1550000000001" cy="562.565" r="15.205" fill="#fbfbfb"/><path d="M 547.36 577.77 A 30.41 30.41 0 0 1  577.77 547.36 L 547.36 577.77 A 30.41 30.41 0 0 0 577.77 547.36" fill="#f6f7f7"/><circle cx="15.205" cy="592.975" r="15.205" fill="#f9f9f9"/><path d="M 30.41 577.77 A 30.41 30.41 0 0 1  60.82 608.18 L 30.41 577.77 A 30.41 30.41 0 0 0 60.82 608.18" fill="#fbfcff"/><g transform="translate(60.82,577.77) scale(1.5205) rotate(0)"><rect width="20" height="10" fill="#fcfdff"/></g><circle cx="106.435" cy="592.975" r="15.205" fill="#f8f9f9"/><path d="M 121.64 577.77 A 30.41 30.41 0 0 1  152.05 608.18 L 121.64 577.77 A 30.41 30.41 0 0 0 152.05 608.18" fill="#feffff"/><circle cx="167.25500000000002" cy="592.975" r="15.205" fill="#fafbff"/><g transform="translate(182.45,577.77) scale(1.5205) rotate(0)"><rect width="20" height="10" fill="#ffffff"/></g><circle cx="228.06500000000003" cy="592.975" r="15.205" fill="#f1f2f2"/><rect x="243.27272727272728" y="577.7727272727273" width="30.40909090909091" height="30.40909090909091" fill="#ffffff"/><path d="M 243.27 592.97 A 15.2 15.2 0 0 1  258.47 577.77 L 243.27 592.97 A 15.2 15.2 0 0 0 258.47 577.77" fill="#f6f8ff"/><path d="M 258.48 592.97 A 15.2 15.2 0 0 1  273.68 577.77 L 258.48 592.97 A 15.2 15.2 0 0 0 273.68 577.77" fill="#fefeff"/><path d="M 243.27 608.1800000000001 A 15.2 15.2 0 0 1  258.47 592.98 L 243.27 608.1800000000001 A 15.2 15.2 0 0 0 258.47 592.98" fill="#edefef"/><g transform="translate(258.48,592.98) scale(0.76) rotate(0)"><rect width="20" height="10" fill="#f6f8ff"/></g><rect x="273.6818181818182" y="577.7727272727273" width="30.40909090909091" height="30.40909090909091" fill="#ffffff"/><circle cx="281.28000000000003" cy="585.37" r="7.6" fill="#f2f3f3"/><g transform="translate(288.89,577.77) scale(0.76) rotate(0)"><rect width="20" height="10" fill="#fefefe"/></g><path d="M 273.68 608.1800000000001 A 15.2 15.2 0 0 1  288.88 592.98 L 273.68 608.1800000000001 A 15.2 15.2 0 0 0 288.88 592.98" fill="#f6f8ff"/><path d="M 288.89 608.1800000000001 A 15.2 15.2 0 0 1  304.09 592.98 L 288.89 608.1800000000001 A 15.2 15.2 0 0 0 304.09 592.98" fill="#f2f3f3"/><circle cx="319.29499999999996" cy="592.975" r="15.205" fill="#f6f8ff"/><path d="M 334.5 577.77 A 30.41 30.41 0 0 1  364.91 608.18 L 334.5 577.77 A 30.41 30.41 0 0 0 364.91 608.18" fill="#f1f2f2"/><rect x="364.90909090909093" y="577.7727272727273" width="30.40909090909091" height="30.40909090909091" fill="#ffffff"/><circle cx="372.51000000000005" cy="585.37" r="7.6" fill="#ffffff"/><circle cx="387.71000000000004" cy="585.37" r="7.6" fill="#fefeff"/><circle cx="372.51000000000005" cy="600.58" r="7.6" fill="#eceeee"/><path d="M 380.11 592.98 A 15.2 15.2 0 0 1  395.31 608.1800000000001 L 380.11 592.98 A 15.2 15.2 0 0 0 395.31 608.1800000000001" fill="#f4f5f5"/><g transform="translate(395.32,577.77) scale(1.5205) rotate(0)"><rect width="20" height="10" fill="#f8f8f8"/></g><rect x="425.72727272727275" y="577.7727272727273" width="30.40909090909091" height="30.40909090909091" fill="#ffffff"/><g transform="translate(425.73,577.77) scale(0.76) rotate(0)"><rect width="20" height="10" fill="#ffffff"/></g><g transform="translate(440.93,577.77) scale(0.76) rotate(0)"><rect width="20" height="10" fill="#f8f9f9"/></g><circle cx="433.33000000000004" cy="600.58" r="7.6" fill="#f7f8ff"/><g transform="translate(440.93,592.98) scale(0.76) rotate(0)"><rect width="20" height="10" fill="#f9fafa"/></g><g transform="translate(456.14,577.77) scale(1.5205) rotate(0)"><rect width="20" height="10" fill="#f8f9f9"/></g><rect x="486.54545454545456" y="577.7727272727273" width="30.40909090909091" height="30.40909090909091" fill="#ffffff"/><g transform="translate(486.55,577.77) scale(0.76) rotate(0)"><rect width="20" height="10" fill="#f9fafa"/></g><path d="M 501.75 592.97 A 15.2 15.2 0 0 1  516.95 577.77 L 501.75 592.97 A 15.2 15.2 0 0 0 516.95 577.77" fill="#f3f4f4"/><g transform="translate(486.55,592.98) scale(0.76) rotate(0)"><rect width="20" height="10" fill="#f1f2f2"/></g><g transform="translate(501.75,592.98) scale(0.76) rotate(0)"><rect width="20" height="10" fill="#feffff"/></g><rect x="516.9545454545455" y="577.7727272727273" width="30.40909090909091" height="30.40909090909091" fill="#ffffff"/><path d="M 516.95 577.77 A 15.2 15.2 0 0 1  532.1500000000001 592.97 L 516.95 577.77 A 15.2 15.2 0 0 0 532.1500000000001 592.97" fill="#f9faff"/><g transform="translate(532.16,577.77) scale(0.76) rotate(0)"><rect width="20" height="10" fill="#fcfcff"/></g><circle cx="524.5500000000001" cy="600.58" r="7.6" fill="#f6f8ff"/><g transform="translate(532.16,592.98) scale(0.76) rotate(0)"><rect width="20" height="10" fill="#f8faff"/></g><circle cx="562.565" cy="592.975" r="15.205" fill="#f6f7f7"/><path d="M 0 638.5899999999999 A 30.41 30.41 0 0 1  30.41 608.18 L 0 638.5899999999999 A 30.41 30.41 0 0 0 30.41 608.18" fill="#f7f8f8"/><circle cx="45.615" cy="623.385" r="15.205" fill="#f7f8f8"/><rect x="60.81818181818182" y="608.1818181818182" width="30.40909090909091" height="30.40909090909091" fill="#ffffff"/><circle cx="68.42" cy="615.78" r="7.6" fill="#fefeff"/><path d="M 76.02 623.38 A 15.2 15.2 0 0 1  91.22 608.18 L 76.02 623.38 A 15.2 15.2 0 0 0 91.22 608.18" fill="#fbfcfc"/><path d="M 60.82 638.59 A 15.2 15.2 0 0 1  76.02 623.39 L 60.82 638.59 A 15.2 15.2 0 0 0 76.02 623.39" fill="#fafafa"/><g transform="translate(76.02,623.39) scale(0.76) rotate(0)"><rect width="20" height="10" fill="#f8f9ff"/></g><path d="M 91.23 608.18 A 30.41 30.41 0 0 1  121.64 638.5899999999999 L 91.23 608.18 A 30.41 30.41 0 0 0 121.64 638.5899999999999" fill="#f7f8f8"/><g transform="translate(121.64,608.18) scale(1.5205) rotate(0)"><rect width="20" height="10" fill="#f6f7f7"/></g><path d="M 152.05 608.18 A 30.41 30.41 0 0 1  182.46 638.5899999999999 L 152.05 608.18 A 30.41 30.41 0 0 0 182.46 638.5899999999999" fill="#fbfcff"/><g transform="translate(182.45,608.18) scale(1.5205) rotate(0)"><rect width="20" height="10" fill="#fafbff"/></g><rect x="212.86363636363637" y="608.1818181818182" width="30.40909090909091" height="30.40909090909091" fill="#ffffff"/><circle cx="220.46" cy="615.78" r="7.6" fill="#f6f8ff"/><g transform="translate(228.07,608.18) scale(0.76) rotate(0)"><rect width="20" height="10" fill="#f2f3f3"/></g><g transform="translate(212.86,623.39) scale(0.76) rotate(0)"><rect width="20" height="10" fill="#f0f1f1"/></g><circle cx="235.67" cy="630.99" r="7.6" fill="#f0f1f1"/><rect x="243.27272727272728" y="608.1818181818182" width="30.40909090909091" height="30.40909090909091" fill="#ffffff"/><path d="M 243.27 623.38 A 15.2 15.2 0 0 1  258.47 608.18 L 243.27 623.38 A 15.2 15.2 0 0 0 258.47 608.18" fill="#f3f5f5"/><circle cx="266.08000000000004" cy="615.78" r="7.6" fill="#f7f8ff"/><path d="M 243.27 623.39 A 15.2 15.2 0 0 1  258.47 638.59 L 243.27 623.39 A 15.2 15.2 0 0 0 258.47 638.59" fill="#ffffff"/><circle cx="266.08000000000004" cy="630.99" r="7.6" fill="#f6f7f7"/><rect x="273.6818181818182" y="608.1818181818182" width="30.40909090909091" height="30.40909090909091" fill="#ffffff"/><circle cx="281.28000000000003" cy="615.78" r="7.6" fill="#ffffff"/><path d="M 288.89 608.18 A 15.2 15.2 0 0 1  304.09 623.38 L 288.89 608.18 A 15.2 15.2 0 0 0 304.09 623.38" fill="#fcfcfc"/><g transform="translate(273.68,623.39) scale(0.76) rotate(0)"><rect width="20" height="10" fill="#f4f5f5"/></g><path d="M 288.89 638.59 A 15.2 15.2 0 0 1  304.09 623.39 L 288.89 638.59 A 15.2 15.2 0 0 0 304.09 623.39" fill="#fafbff"/><circle cx="319.29499999999996" cy="623.385" r="15.205" fill="#f2f4f4"/><rect x="334.5" y="608.1818181818182" width="30.40909090909091" height="30.40909090909091" fill="#ffffff"/><path d="M 334.5 623.38 A 15.2 15.2 0 0 1  349.7 608.18 L 334.5 623.38 A 15.2 15.2 0 0 0 349.7 608.18" fill="#fbfcff"/><path d="M 349.7 623.38 A 15.2 15.2 0 0 1  364.9 608.18 L 349.7 623.38 A 15.2 15.2 0 0 0 364.9 608.18" fill="#fefefe"/><g transform="translate(334.5,623.39) scale(0.76) rotate(0)"><rect width="20" height="10" fill="#f5f7ff"/></g><path d="M 349.7 623.39 A 15.2 15.2 0 0 1  364.9 638.59 L 349.7 623.39 A 15.2 15.2 0 0 0 364.9 638.59" fill="#eff1f1"/><circle cx="380.115" cy="623.385" r="15.205" fill="#fbfcff"/><circle cx="410.525" cy="623.385" r="15.205" fill="#fbfcff"/><path d="M 425.73 608.18 A 30.41 30.41 0 0 1  456.14000000000004 638.5899999999999 L 425.73 608.18 A 30.41 30.41 0 0 0 456.14000000000004 638.5899999999999" fill="#f7f8ff"/><circle cx="471.34499999999997" cy="623.385" r="15.205" fill="#f8f9ff"/><rect x="486.54545454545456" y="608.1818181818182" width="30.40909090909091" height="30.40909090909091" fill="#ffffff"/><path d="M 486.55 623.38 A 15.2 15.2 0 0 1  501.75 608.18 L 486.55 623.38 A 15.2 15.2 0 0 0 501.75 608.18" fill="#f7f8f8"/><g transform="translate(501.75,608.18) scale(0.76) rotate(0)"><rect width="20" height="10" fill="#f1f2f2"/></g><path d="M 486.55 623.39 A 15.2 15.2 0 0 1  501.75 638.59 L 486.55 623.39 A 15.2 15.2 0 0 0 501.75 638.59" fill="#fcfcfc"/><g transform="translate(501.75,623.39) scale(0.76) rotate(0)"><rect width="20" height="10" fill="#fafbff"/></g><circle cx="532.1550000000001" cy="623.385" r="15.205" fill="#fdfdff"/><rect x="547.3636363636364" y="608.1818181818182" width="30.40909090909091" height="30.40909090909091" fill="#ffffff"/><path d="M 547.36 608.18 A 15.2 15.2 0 0 1  562.5600000000001 623.38 L 547.36 608.18 A 15.2 15.2 0 0 0 562.5600000000001 623.38" fill="#eff0f0"/><g transform="translate(562.57,608.18) scale(0.76) rotate(0)"><rect width="20" height="10" fill="#f2f3f3"/></g><circle cx="554.96" cy="630.99" r="7.6" fill="#ffffff"/><g transform="translate(562.57,623.39) scale(0.76) rotate(0)"><rect width="20" height="10" fill="#f5f6f6"/></g><rect x="0" y="638.5909090909091" width="30.40909090909091" height="30.40909090909091" fill="#ffffff"/><g transform="translate(0,638.59) scale(0.76) rotate(0)"><rect width="20" height="10" fill="#f7f8ff"/></g><path d="M 15.2 638.59 A 15.2 15.2 0 0 1  30.4 653.7900000000001 L 15.2 638.59 A 15.2 15.2 0 0 0 30.4 653.7900000000001" fill="#fbfcff"/><g transform="translate(0,653.8) scale(0.76) rotate(0)"><rect width="20" height="10" fill="#fbfcff"/></g><circle cx="22.799999999999997" cy="661.4" r="7.6" fill="#eff1f1"/><circle cx="45.615" cy="653.7950000000001" r="15.205" fill="#fbfbfb"/><circle cx="76.025" cy="653.7950000000001" r="15.205" fill="#f2f3f3"/><path d="M 91.23 638.59 A 30.41 30.41 0 0 1  121.64 669 L 91.23 638.59 A 30.41 30.41 0 0 0 121.64 669" fill="#f8f9f9"/><circle cx="136.845" cy="653.7950000000001" r="15.205" fill="#f9faff"/><circle cx="167.25500000000002" cy="653.7950000000001" r="15.205" fill="#fefeff"/><g transform="translate(182.45,638.59) scale(1.5205) rotate(0)"><rect width="20" height="10" fill="#fcfcff"/></g><path d="M 212.86 669 A 30.41 30.41 0 0 1  243.27 638.59 L 212.86 669 A 30.41 30.41 0 0 0 243.27 638.59" fill="#f1f2f2"/><rect x="243.27272727272728" y="638.5909090909091" width="30.40909090909091" height="30.40909090909091" fill="#ffffff"/><circle cx="250.87" cy="646.19" r="7.6" fill="#f4f5f5"/><g transform="translate(258.48,638.59) scale(0.76) rotate(0)"><rect width="20" height="10" fill="#fdfdfd"/></g><g transform="translate(243.27,653.8) scale(0.76) rotate(0)"><rect width="20" height="10" fill="#f9faff"/></g><path d="M 258.48 669 A 15.2 15.2 0 0 1  273.68 653.8 L 258.48 669 A 15.2 15.2 0 0 0 273.68 653.8" fill="#f4f5f5"/><rect x="273.6818181818182" y="638.5909090909091" width="30.40909090909091" height="30.40909090909091" fill="#ffffff"/><path d="M 273.68 638.59 A 15.2 15.2 0 0 1  288.88 653.7900000000001 L 273.68 638.59 A 15.2 15.2 0 0 0 288.88 653.7900000000001" fill="#ffffff"/><path d="M 288.89 653.7900000000001 A 15.2 15.2 0 0 1  304.09 638.59 L 288.89 653.7900000000001 A 15.2 15.2 0 0 0 304.09 638.59" fill="#fafbfb"/><circle cx="281.28000000000003" cy="661.4" r="7.6" fill="#fefefe"/><path d="M 288.89 653.8 A 15.2 15.2 0 0 1  304.09 669 L 288.89 653.8 A 15.2 15.2 0 0 0 304.09 669" fill="#eff0f0"/><rect x="304.0909090909091" y="638.5909090909091" width="30.40909090909091" height="30.40909090909091" fill="#ffffff"/><path d="M 304.09 638.59 A 15.2 15.2 0 0 1  319.28999999999996 653.7900000000001 L 304.09 638.59 A 15.2 15.2 0 0 0 319.28999999999996 653.7900000000001" fill="#fdfdfd"/><path d="M 319.3 638.59 A 15.2 15.2 0 0 1  334.5 653.7900000000001 L 319.3 638.59 A 15.2 15.2 0 0 0 334.5 653.7900000000001" fill="#fcfcff"/><path d="M 304.09 653.8 A 15.2 15.2 0 0 1  319.28999999999996 669 L 304.09 653.8 A 15.2 15.2 0 0 0 319.28999999999996 669" fill="#f9faff"/><g transform="translate(319.3,653.8) scale(0.76) rotate(0)"><rect width="20" height="10" fill="#f9f9f9"/></g><g transform="translate(334.5,638.59) scale(1.5205) rotate(0)"><rect width="20" height="10" fill="#f9faff"/></g><g transform="translate(364.91,638.59) scale(1.5205) rotate(0)"><rect width="20" height="10" fill="#eef0f0"/></g><circle cx="410.525" cy="653.7950000000001" r="15.205" fill="#f5f7ff"/><circle cx="440.935" cy="653.7950000000001" r="15.205" fill="#f9faff"/><rect x="456.1363636363636" y="638.5909090909091" width="30.40909090909091" height="30.40909090909091" fill="#ffffff"/><circle cx="463.74" cy="646.19" r="7.6" fill="#fcfcff"/><circle cx="478.94" cy="646.19" r="7.6" fill="#f4f5f5"/><path d="M 456.14 669 A 15.2 15.2 0 0 1  471.34 653.8 L 456.14 669 A 15.2 15.2 0 0 0 471.34 653.8" fill="#fcfcfc"/><circle cx="478.94" cy="661.4" r="7.6" fill="#fcfdfd"/><rect x="486.54545454545456" y="638.5909090909091" width="30.40909090909091" height="30.40909090909091" fill="#ffffff"/><circle cx="494.15000000000003" cy="646.19" r="7.6" fill="#eff1f1"/><circle cx="509.35" cy="646.19" r="7.6" fill="#f8f8f8"/><g transform="translate(486.55,653.8) scale(0.76) rotate(0)"><rect width="20" height="10" fill="#fafbff"/></g><circle cx="509.35" cy="661.4" r="7.6" fill="#eef0f0"/><g transform="translate(516.95,638.59) scale(1.5205) rotate(0)"><rect width="20" height="10" fill="#f4f5f5"/></g><circle cx="562.565" cy="653.7950000000001" r="15.205" fill="#eef0f0"/></g></svg>