<?xml version="1.0" standalone="no"?><svg xmlns:xlink="http://www.w3.org/1999/xlink" xmlns="http://www.w3.org/2000/svg" viewBox="0 0 1000 1222.2147115189625" preserveAspectRatio="xMaxYMax slice"><g transform="scale(1.8269278199087633)"><rect x="0" y="0" width="577.7727272727273" height="669" fill="#ffffff"/><g transform="translate(486.55,30.41) scale(1.5205) rotate(0)"><rect width="20" height="10" fill="#fdfdff"/></g><g transform="translate(395.32,60.82) scale(1.5205) rotate(0)"><rect width="20" height="10" fill="#f7f8f8"/></g><rect x="30.40909090909091" y="121.63636363636364" width="30.40909090909091" height="30.40909090909091" fill="#ffffff"/><circle cx="76.025" cy="136.845" r="15.205" fill="#fcfcff"/><path d="M 91.23 152.05 A 30.41 30.41 0 0 1  121.64 121.64 L 91.23 152.05 A 30.41 30.41 0 0 0 121.64 121.64" fill="#f7f8ff"/><g transform="translate(304.09,121.64) scale(1.5205) rotate(0)"><rect width="20" height="10" fill="#f6f8ff"/></g><rect x="516.9545454545455" y="121.63636363636364" width="30.40909090909091" height="30.40909090909091" fill="#ffffff"/><g transform="translate(547.36,121.64) scale(1.5205) rotate(0)"><rect width="20" height="10" fill="#eef0f0"/></g><rect x="425.72727272727275" y="152.04545454545456" width="30.40909090909091" height="30.40909090909091" fill="#ffffff"/><circle cx="471.34499999999997" cy="167.25500000000002" r="15.205" fill="#f0f1f1"/><g transform="translate(516.95,152.05) scale(1.5205) rotate(0)"><rect width="20" height="10" fill="#ffffff"/></g><g transform="translate(0,182.45) scale(1.5205) rotate(0)"><rect width="20" height="10" fill="#fdfdfd"/></g><rect x="60.81818181818182" y="182.45454545454547" width="30.40909090909091" height="30.40909090909091" fill="#ffffff"/><path d="M 76.02 182.45 A 15.2 15.2 0 0 1  91.22 197.64999999999998 L 76.02 182.45 A 15.2 15.2 0 0 0 91.22 197.64999999999998" fill="#f3f4f4"/><g transform="translate(121.64,182.45) scale(1.5205) rotate(0)"><rect width="20" height="10" fill="#fafbff"/></g><circle cx="167.25500000000002" cy="197.655" r="15.205" fill="#fbfcfc"/><g transform="translate(182.45,182.45) scale(1.5205) rotate(0)"><rect width="20" height="10" fill="#f9faff"/></g><g transform="translate(212.86,182.45) scale(1.5205) rotate(0)"><rect width="20" height="10" fill="#f3f4f4"/></g><rect x="243.27272727272728" y="182.45454545454547" width="30.40909090909091" height="30.40909090909091" fill="#ffffff"/><g transform="translate(258.48,182.45) scale(0.76) rotate(0)"><rect width="20" height="10" fill="#f8f9f9"/></g><g transform="translate(304.09,182.45) scale(1.5205) rotate(0)"><rect width="20" height="10" fill="#fefefe"/></g><path d="M 395.32 212.85999999999999 A 30.41 30.41 0 0 1  425.73 182.45 L 395.32 212.85999999999999 A 30.41 30.41 0 0 0 425.73 182.45" fill="#eef0f0"/><rect x="30.40909090909091" y="212.86363636363637" width="30.40909090909091" height="30.40909090909091" fill="#ffffff"/><g transform="translate(45.61,228.07) scale(0.76) rotate(0)"><rect width="20" height="10" fill="#f3f4f4"/></g><g transform="translate(91.23,212.86) scale(1.5205) rotate(0)"><rect width="20" height="10" fill="#fbfcff"/></g><rect x="273.6818181818182" y="212.86363636363637" width="30.40909090909091" height="30.40909090909091" fill="#ffffff"/><circle cx="296.49" cy="220.46" r="7.6" fill="#f9faff"/><g transform="translate(273.68,228.07) scale(0.76) rotate(0)"><rect width="20" height="10" fill="#f9fafa"/></g><g transform="translate(288.89,228.07) scale(0.76) rotate(0)"><rect width="20" height="10" fill="#f4f5f5"/></g><path d="M 334.5 212.86 A 30.41 30.41 0 0 1  364.91 243.27 L 334.5 212.86 A 30.41 30.41 0 0 0 364.91 243.27" fill="#f5f6f6"/><path d="M 364.91 212.86 A 30.41 30.41 0 0 1  395.32000000000005 243.27 L 364.91 212.86 A 30.41 30.41 0 0 0 395.32000000000005 243.27" fill="#f2f3f3"/><circle cx="410.525" cy="228.06500000000003" r="15.205" fill="#f7f9ff"/><circle cx="501.755" cy="228.06500000000003" r="15.205" fill="#f9faff"/><g transform="translate(547.36,212.86) scale(1.5205) rotate(0)"><rect width="20" height="10" fill="#f1f2f2"/></g><circle cx="15.205" cy="258.475" r="15.205" fill="#f8f9ff"/><path d="M 60.82 273.68 A 30.41 30.41 0 0 1  91.23 243.27 L 60.82 273.68 A 30.41 30.41 0 0 0 91.23 243.27" fill="#edefef"/><rect x="91.22727272727273" y="243.27272727272728" width="30.40909090909091" height="30.40909090909091" fill="#ffffff"/><circle cx="98.83" cy="250.87" r="7.6" fill="#fefeff"/><path d="M 91.23 273.68 A 15.2 15.2 0 0 1  106.43 258.48 L 91.23 273.68 A 15.2 15.2 0 0 0 106.43 258.48" fill="#f8f9ff"/><g transform="translate(106.43,258.48) scale(0.76) rotate(0)"><rect width="20" height="10" fill="#f1f3f3"/></g><rect x="121.63636363636364" y="243.27272727272728" width="30.40909090909091" height="30.40909090909091" fill="#ffffff"/><g transform="translate(136.84,243.27) scale(0.76) rotate(0)"><rect width="20" height="10" fill="#fcfcfc"/></g><path d="M 136.84 273.68 A 15.2 15.2 0 0 1  152.04 258.48 L 136.84 273.68 A 15.2 15.2 0 0 0 152.04 258.48" fill="#f4f5f5"/><circle cx="228.06500000000003" cy="258.475" r="15.205" fill="#f5f7ff"/><g transform="translate(243.27,243.27) scale(1.5205) rotate(0)"><rect width="20" height="10" fill="#ffffff"/></g><circle cx="319.29499999999996" cy="258.475" r="15.205" fill="#f9faff"/><g transform="translate(547.36,243.27) scale(1.5205) rotate(0)"><rect width="20" height="10" fill="#f9fbff"/></g><g transform="translate(0,273.68) scale(1.5205) rotate(0)"><rect width="20" height="10" fill="#f7f9ff"/></g><path d="M 30.41 273.68 A 30.41 30.41 0 0 1  60.82 304.09000000000003 L 30.41 273.68 A 30.41 30.41 0 0 0 60.82 304.09000000000003" fill="#fbfbfb"/><circle cx="76.025" cy="288.885" r="15.205" fill="#fafbff"/><path d="M 91.23 273.68 A 30.41 30.41 0 0 1  121.64 304.09000000000003 L 91.23 273.68 A 30.41 30.41 0 0 0 121.64 304.09000000000003" fill="#f6f8ff"/><rect x="121.63636363636364" y="273.6818181818182" width="30.40909090909091" height="30.40909090909091" fill="#ffffff"/><circle cx="129.24" cy="281.28000000000003" r="7.6" fill="#fcfdff"/><path d="M 121.64 304.09 A 15.2 15.2 0 0 1  136.84 288.89 L 121.64 304.09 A 15.2 15.2 0 0 0 136.84 288.89" fill="#f3f4f4"/><circle cx="144.44" cy="296.49" r="7.6" fill="#f2f3f3"/><path d="M 273.68 273.68 A 30.41 30.41 0 0 1  304.09000000000003 304.09000000000003 L 273.68 273.68 A 30.41 30.41 0 0 0 304.09000000000003 304.09000000000003" fill="#f8f9f9"/><path d="M 334.5 273.68 A 30.41 30.41 0 0 1  364.91 304.09000000000003 L 334.5 273.68 A 30.41 30.41 0 0 0 364.91 304.09000000000003" fill="#f9faff"/><path d="M 425.73 273.68 A 30.41 30.41 0 0 1  456.14000000000004 304.09000000000003 L 425.73 273.68 A 30.41 30.41 0 0 0 456.14000000000004 304.09000000000003" fill="#fefefe"/><rect x="516.9545454545455" y="273.6818181818182" width="30.40909090909091" height="30.40909090909091" fill="#ffffff"/><path d="M 532.16 288.88 A 15.2 15.2 0 0 1  547.36 273.68 L 532.16 288.88 A 15.2 15.2 0 0 0 547.36 273.68" fill="#fefeff"/><g transform="translate(532.16,288.89) scale(0.76) rotate(0)"><rect width="20" height="10" fill="#f5f6f6"/></g><g transform="translate(547.36,273.68) scale(1.5205) rotate(0)"><rect width="20" height="10" fill="#f5f7ff"/></g><path d="M 0 334.5 A 30.41 30.41 0 0 1  30.41 304.09 L 0 334.5 A 30.41 30.41 0 0 0 30.41 304.09" fill="#fbfcff"/><rect x="60.81818181818182" y="304.0909090909091" width="30.40909090909091" height="30.40909090909091" fill="#ffffff"/><g transform="translate(76.02,304.09) scale(0.76) rotate(0)"><rect width="20" height="10" fill="#f8f9f9"/></g><path d="M 91.23 334.5 A 30.41 30.41 0 0 1  121.64 304.09 L 91.23 334.5 A 30.41 30.41 0 0 0 121.64 304.09" fill="#f8f9ff"/><circle cx="167.25500000000002" cy="319.29499999999996" r="15.205" fill="#f7f8ff"/><path d="M 182.45 304.09 A 30.41 30.41 0 0 1  212.85999999999999 334.5 L 182.45 304.09 A 30.41 30.41 0 0 0 212.85999999999999 334.5" fill="#f5f7ff"/><g transform="translate(212.86,304.09) scale(1.5205) rotate(0)"><rect width="20" height="10" fill="#f5f6f6"/></g><g transform="translate(304.09,304.09) scale(1.5205) rotate(0)"><rect width="20" height="10" fill="#fcfcfc"/></g><g transform="translate(334.5,304.09) scale(1.5205) rotate(0)"><rect width="20" height="10" fill="#fafbff"/></g><g transform="translate(364.91,304.09) scale(1.5205) rotate(0)"><rect width="20" height="10" fill="#f9faff"/></g><circle cx="410.525" cy="319.29499999999996" r="15.205" fill="#eff1f1"/><g transform="translate(486.55,304.09) scale(1.5205) rotate(0)"><rect width="20" height="10" fill="#fbfcff"/></g><circle cx="562.565" cy="319.29499999999996" r="15.205" fill="#f9f9f9"/><circle cx="76.025" cy="349.705" r="15.205" fill="#fefeff"/><circle cx="106.435" cy="349.705" r="15.205" fill="#fbfcff"/><rect x="243.27272727272728" y="334.5" width="30.40909090909091" height="30.40909090909091" fill="#ffffff"/><path d="M 273.68 334.5 A 30.41 30.41 0 0 1  304.09000000000003 364.91 L 273.68 334.5 A 30.41 30.41 0 0 0 304.09000000000003 364.91" fill="#fbfcfc"/><g transform="translate(304.09,334.5) scale(1.5205) rotate(0)"><rect width="20" height="10" fill="#edeeee"/></g><path d="M 364.91 334.5 A 30.41 30.41 0 0 1  395.32000000000005 364.91 L 364.91 334.5 A 30.41 30.41 0 0 0 395.32000000000005 364.91" fill="#fdfefe"/><rect x="395.3181818181818" y="334.5" width="30.40909090909091" height="30.40909090909091" fill="#ffffff"/><g transform="translate(395.32,334.5) scale(0.76) rotate(0)"><rect width="20" height="10" fill="#fbfcff"/></g><circle cx="418.12" cy="342.1" r="7.6" fill="#f9f9f9"/><g transform="translate(395.32,349.7) scale(0.76) rotate(0)"><rect width="20" height="10" fill="#f5f7ff"/></g><circle cx="418.12" cy="357.3" r="7.6" fill="#f3f4f4"/><path d="M 486.55 334.5 A 30.41 30.41 0 0 1  516.96 364.91 L 486.55 334.5 A 30.41 30.41 0 0 0 516.96 364.91" fill="#f7f8f8"/><g transform="translate(516.95,334.5) scale(1.5205) rotate(0)"><rect width="20" height="10" fill="#f9fafa"/></g><g transform="translate(547.36,334.5) scale(1.5205) rotate(0)"><rect width="20" height="10" fill="#fbfcff"/></g><circle cx="15.205" cy="380.115" r="15.205" fill="#fefeff"/><g transform="translate(30.41,364.91) scale(1.5205) rotate(0)"><rect width="20" height="10" fill="#eff0f0"/></g><circle cx="106.435" cy="380.115" r="15.205" fill="#eff1f1"/><rect x="182.45454545454547" y="364.90909090909093" width="30.40909090909091" height="30.40909090909091" fill="#ffffff"/><circle cx="190.04999999999998" cy="372.51000000000005" r="7.6" fill="#fafbfb"/><circle cx="190.04999999999998" cy="387.71000000000004" r="7.6" fill="#fcfcfc"/><path d="M 197.66 380.11 A 15.2 15.2 0 0 1  212.85999999999999 395.31 L 197.66 380.11 A 15.2 15.2 0 0 0 212.85999999999999 395.31" fill="#fdfeff"/><circle cx="228.06500000000003" cy="380.115" r="15.205" fill="#eeefef"/><path d="M 273.68 395.32000000000005 A 30.41 30.41 0 0 1  304.09000000000003 364.91 L 273.68 395.32000000000005 A 30.41 30.41 0 0 0 304.09000000000003 364.91" fill="#eef0f0"/><rect x="334.5" y="364.90909090909093" width="30.40909090909091" height="30.40909090909091" fill="#ffffff"/><g transform="translate(364.91,364.91) scale(1.5205) rotate(0)"><rect width="20" height="10" fill="#fafbff"/></g><path d="M 395.32 395.32000000000005 A 30.41 30.41 0 0 1  425.73 364.91 L 395.32 395.32000000000005 A 30.41 30.41 0 0 0 425.73 364.91" fill="#fefeff"/><g transform="translate(425.73,364.91) scale(1.5205) rotate(0)"><rect width="20" height="10" fill="#f9fafa"/></g><path d="M 456.14 364.91 A 30.41 30.41 0 0 1  486.55 395.32000000000005 L 456.14 364.91 A 30.41 30.41 0 0 0 486.55 395.32000000000005" fill="#fbfcfc"/><circle cx="501.755" cy="380.115" r="15.205" fill="#eff0f0"/><g transform="translate(516.95,364.91) scale(1.5205) rotate(0)"><rect width="20" height="10" fill="#fdfdfd"/></g><circle cx="562.565" cy="380.115" r="15.205" fill="#fafbff"/><rect x="0" y="395.3181818181818" width="30.40909090909091" height="30.40909090909091" fill="#ffffff"/><g transform="translate(15.2,395.32) scale(0.76) rotate(0)"><rect width="20" height="10" fill="#eff0f0"/></g><path d="M 15.2 410.52 A 15.2 15.2 0 0 1  30.4 425.71999999999997 L 15.2 410.52 A 15.2 15.2 0 0 0 30.4 425.71999999999997" fill="#fefeff"/><circle cx="45.615" cy="410.525" r="15.205" fill="#fdfdfd"/><rect x="60.81818181818182" y="395.3181818181818" width="30.40909090909091" height="30.40909090909091" fill="#ffffff"/><g transform="translate(60.82,395.32) scale(0.76) rotate(0)"><rect width="20" height="10" fill="#fdfdff"/></g><path d="M 76.02 410.52 A 15.2 15.2 0 0 1  91.22 395.32 L 76.02 410.52 A 15.2 15.2 0 0 0 91.22 395.32" fill="#f6f7f7"/><g transform="translate(60.82,410.52) scale(0.76) rotate(0)"><rect width="20" height="10" fill="#fefefe"/></g><path d="M 76.02 425.71999999999997 A 15.2 15.2 0 0 1  91.22 410.52 L 76.02 425.71999999999997 A 15.2 15.2 0 0 0 91.22 410.52" fill="#f6f7f7"/><rect x="121.63636363636364" y="395.3181818181818" width="30.40909090909091" height="30.40909090909091" fill="#ffffff"/><g transform="translate(121.64,395.32) scale(0.76) rotate(0)"><rect width="20" height="10" fill="#f0f2f2"/></g><path d="M 121.64 425.71999999999997 A 15.2 15.2 0 0 1  136.84 410.52 L 121.64 425.71999999999997 A 15.2 15.2 0 0 0 136.84 410.52" fill="#edefef"/><path d="M 136.84 410.52 A 15.2 15.2 0 0 1  152.04 425.71999999999997 L 136.84 410.52 A 15.2 15.2 0 0 0 152.04 425.71999999999997" fill="#f2f3f3"/><g transform="translate(152.05,395.32) scale(1.5205) rotate(0)"><rect width="20" height="10" fill="#fdfdff"/></g><circle cx="197.655" cy="410.525" r="15.205" fill="#fefeff"/><path d="M 212.86 395.32 A 30.41 30.41 0 0 1  243.27 425.73 L 212.86 395.32 A 30.41 30.41 0 0 0 243.27 425.73" fill="#fbfcfc"/><rect x="243.27272727272728" y="395.3181818181818" width="30.40909090909091" height="30.40909090909091" fill="#ffffff"/><path d="M 243.27 410.52 A 15.2 15.2 0 0 1  258.47 395.32 L 243.27 410.52 A 15.2 15.2 0 0 0 258.47 395.32" fill="#f0f1f1"/><path d="M 258.48 395.32 A 15.2 15.2 0 0 1  273.68 410.52 L 258.48 395.32 A 15.2 15.2 0 0 0 273.68 410.52" fill="#fafbff"/><g transform="translate(258.48,410.52) scale(0.76) rotate(0)"><rect width="20" height="10" fill="#f0f2f2"/></g><path d="M 273.68 395.32 A 30.41 30.41 0 0 1  304.09000000000003 425.73 L 273.68 395.32 A 30.41 30.41 0 0 0 304.09000000000003 425.73" fill="#ffffff"/><path d="M 304.09 395.32 A 30.41 30.41 0 0 1  334.5 425.73 L 304.09 395.32 A 30.41 30.41 0 0 0 334.5 425.73" fill="#f0f2f2"/><circle cx="349.705" cy="410.525" r="15.205" fill="#fafbff"/><circle cx="380.115" cy="410.525" r="15.205" fill="#fdfdff"/><g transform="translate(456.14,395.32) scale(1.5205) rotate(0)"><rect width="20" height="10" fill="#ffffff"/></g><rect x="516.9545454545455" y="395.3181818181818" width="30.40909090909091" height="30.40909090909091" fill="#ffffff"/><path d="M 516.95 410.52 A 15.2 15.2 0 0 1  532.1500000000001 395.32 L 516.95 410.52 A 15.2 15.2 0 0 0 532.1500000000001 395.32" fill="#f9faff"/><g transform="translate(516.95,410.52) scale(0.76) rotate(0)"><rect width="20" height="10" fill="#edefef"/></g><path d="M 0 425.73 A 30.41 30.41 0 0 1  30.41 456.14000000000004 L 0 425.73 A 30.41 30.41 0 0 0 30.41 456.14000000000004" fill="#f8faff"/><rect x="60.81818181818182" y="425.72727272727275" width="30.40909090909091" height="30.40909090909091" fill="#ffffff"/><path d="M 60.82 440.93 A 15.2 15.2 0 0 1  76.02 425.73 L 60.82 440.93 A 15.2 15.2 0 0 0 76.02 425.73" fill="#fbfcff"/><circle cx="83.61999999999999" cy="433.33000000000004" r="7.6" fill="#f7f8f8"/><path d="M 60.82 456.13 A 15.2 15.2 0 0 1  76.02 440.93 L 60.82 456.13 A 15.2 15.2 0 0 0 76.02 440.93" fill="#fcfdfd"/><path d="M 76.02 440.93 A 15.2 15.2 0 0 1  91.22 456.13 L 76.02 440.93 A 15.2 15.2 0 0 0 91.22 456.13" fill="#fbfcff"/><g transform="translate(91.23,425.73) scale(1.5205) rotate(0)"><rect width="20" height="10" fill="#fdfdfd"/></g><g transform="translate(121.64,425.73) scale(1.5205) rotate(0)"><rect width="20" height="10" fill="#edefef"/></g><circle cx="228.06500000000003" cy="440.935" r="15.205" fill="#f6f7f7"/><circle cx="258.475" cy="440.935" r="15.205" fill="#f8f9f9"/><g transform="translate(304.09,425.73) scale(1.5205) rotate(0)"><rect width="20" height="10" fill="#fafafa"/></g><path d="M 334.5 425.73 A 30.41 30.41 0 0 1  364.91 456.14000000000004 L 334.5 425.73 A 30.41 30.41 0 0 0 364.91 456.14000000000004" fill="#f9faff"/><path d="M 364.91 456.14000000000004 A 30.41 30.41 0 0 1  395.32000000000005 425.73 L 364.91 456.14000000000004 A 30.41 30.41 0 0 0 395.32000000000005 425.73" fill="#fdfdff"/><circle cx="410.525" cy="440.935" r="15.205" fill="#f8f9ff"/><path d="M 425.73 425.73 A 30.41 30.41 0 0 1  456.14000000000004 456.14000000000004 L 425.73 425.73 A 30.41 30.41 0 0 0 456.14000000000004 456.14000000000004" fill="#f7f8f8"/><rect x="456.1363636363636" y="425.72727272727275" width="30.40909090909091" height="30.40909090909091" fill="#ffffff"/><path d="M 471.34 440.93 A 15.2 15.2 0 0 1  486.53999999999996 425.73 L 471.34 440.93 A 15.2 15.2 0 0 0 486.53999999999996 425.73" fill="#fbfcff"/><circle cx="463.74" cy="448.53000000000003" r="7.6" fill="#fefefe"/><path d="M 516.95 425.73 A 30.41 30.41 0 0 1  547.36 456.14000000000004 L 516.95 425.73 A 30.41 30.41 0 0 0 547.36 456.14000000000004" fill="#f4f5f5"/><circle cx="562.565" cy="440.935" r="15.205" fill="#f8f9ff"/><rect x="0" y="456.1363636363636" width="30.40909090909091" height="30.40909090909091" fill="#ffffff"/><g transform="translate(0,456.14) scale(0.76) rotate(0)"><rect width="20" height="10" fill="#f9faff"/></g><g transform="translate(15.2,456.14) scale(0.76) rotate(0)"><rect width="20" height="10" fill="#f4f5f5"/></g><circle cx="45.615" cy="471.34499999999997" r="15.205" fill="#f2f4f4"/><path d="M 91.23 486.55 A 30.41 30.41 0 0 1  121.64 456.14 L 91.23 486.55 A 30.41 30.41 0 0 0 121.64 456.14" fill="#fdfdfd"/><rect x="121.63636363636364" y="456.1363636363636" width="30.40909090909091" height="30.40909090909091" fill="#ffffff"/><g transform="translate(121.64,456.14) scale(0.76) rotate(0)"><rect width="20" height="10" fill="#fefefe"/></g><g transform="translate(121.64,471.34) scale(0.76) rotate(0)"><rect width="20" height="10" fill="#fcfdff"/></g><path d="M 136.84 486.53999999999996 A 15.2 15.2 0 0 1  152.04 471.34 L 136.84 486.53999999999996 A 15.2 15.2 0 0 0 152.04 471.34" fill="#fbfcfc"/><path d="M 152.05 486.55 A 30.41 30.41 0 0 1  182.46 456.14 L 152.05 486.55 A 30.41 30.41 0 0 0 182.46 456.14" fill="#f4f6f6"/><rect x="182.45454545454547" y="456.1363636363636" width="30.40909090909091" height="30.40909090909091" fill="#ffffff"/><g transform="translate(182.45,456.14) scale(0.76) rotate(0)"><rect width="20" height="10" fill="#fefeff"/></g><circle cx="205.26" cy="463.74" r="7.6" fill="#f7f8f8"/><path d="M 182.45 486.53999999999996 A 15.2 15.2 0 0 1  197.64999999999998 471.34 L 182.45 486.53999999999996 A 15.2 15.2 0 0 0 197.64999999999998 471.34" fill="#f2f4f4"/><g transform="translate(197.66,471.34) scale(0.76) rotate(0)"><rect width="20" height="10" fill="#f8f9ff"/></g><path d="M 212.86 486.55 A 30.41 30.41 0 0 1  243.27 456.14 L 212.86 486.55 A 30.41 30.41 0 0 0 243.27 456.14" fill="#f1f2f2"/><g transform="translate(243.27,456.14) scale(1.5205) rotate(0)"><rect width="20" height="10" fill="#f2f3f3"/></g><g transform="translate(273.68,456.14) scale(1.5205) rotate(0)"><rect width="20" height="10" fill="#fbfbfb"/></g><path d="M 304.09 456.14 A 30.41 30.41 0 0 1  334.5 486.55 L 304.09 456.14 A 30.41 30.41 0 0 0 334.5 486.55" fill="#fcfdff"/><path d="M 334.5 456.14 A 30.41 30.41 0 0 1  364.91 486.55 L 334.5 456.14 A 30.41 30.41 0 0 0 364.91 486.55" fill="#eff0f0"/><rect x="364.90909090909093" y="456.1363636363636" width="30.40909090909091" height="30.40909090909091" fill="#ffffff"/><path d="M 364.91 471.34 A 15.2 15.2 0 0 1  380.11 456.14 L 364.91 471.34 A 15.2 15.2 0 0 0 380.11 456.14" fill="#fbfcff"/><circle cx="387.71000000000004" cy="463.74" r="7.6" fill="#fdfeff"/><circle cx="372.51000000000005" cy="478.94" r="7.6" fill="#f9faff"/><circle cx="387.71000000000004" cy="478.94" r="7.6" fill="#fbfbfb"/><rect x="395.3181818181818" y="456.1363636363636" width="30.40909090909091" height="30.40909090909091" fill="#ffffff"/><circle cx="418.12" cy="463.74" r="7.6" fill="#f1f2f2"/><g transform="translate(395.32,471.34) scale(0.76) rotate(0)"><rect width="20" height="10" fill="#f8f9f9"/></g><circle cx="418.12" cy="478.94" r="7.6" fill="#fafafa"/><circle cx="471.34499999999997" cy="471.34499999999997" r="15.205" fill="#fafafa"/><circle cx="501.755" cy="471.34499999999997" r="15.205" fill="#f2f3f3"/><path d="M 516.95 486.55 A 30.41 30.41 0 0 1  547.36 456.14 L 516.95 486.55 A 30.41 30.41 0 0 0 547.36 456.14" fill="#f2f3f3"/><path d="M 547.36 486.55 A 30.41 30.41 0 0 1  577.77 456.14 L 547.36 486.55 A 30.41 30.41 0 0 0 577.77 456.14" fill="#f7f8ff"/><path d="M 0 486.55 A 30.41 30.41 0 0 1  30.41 516.96 L 0 486.55 A 30.41 30.41 0 0 0 30.41 516.96" fill="#f6f8ff"/><rect x="30.40909090909091" y="486.54545454545456" width="30.40909090909091" height="30.40909090909091" fill="#ffffff"/><g transform="translate(30.41,486.55) scale(0.76) rotate(0)"><rect width="20" height="10" fill="#fdfdfd"/></g><g transform="translate(45.61,486.55) scale(0.76) rotate(0)"><rect width="20" height="10" fill="#fcfcff"/></g><path d="M 30.41 516.95 A 15.2 15.2 0 0 1  45.61 501.75 L 30.41 516.95 A 15.2 15.2 0 0 0 45.61 501.75" fill="#fafbfb"/><g transform="translate(45.61,501.75) scale(0.76) rotate(0)"><rect width="20" height="10" fill="#f9faff"/></g><circle cx="76.025" cy="501.755" r="15.205" fill="#f4f5f5"/><circle cx="106.435" cy="501.755" r="15.205" fill="#fbfcff"/><path d="M 121.64 516.96 A 30.41 30.41 0 0 1  152.05 486.55 L 121.64 516.96 A 30.41 30.41 0 0 0 152.05 486.55" fill="#ffffff"/><path d="M 152.05 486.55 A 30.41 30.41 0 0 1  182.46 516.96 L 152.05 486.55 A 30.41 30.41 0 0 0 182.46 516.96" fill="#f4f5f5"/><circle cx="197.655" cy="501.755" r="15.205" fill="#f6f8ff"/><circle cx="228.06500000000003" cy="501.755" r="15.205" fill="#f8faff"/><circle cx="258.475" cy="501.755" r="15.205" fill="#fefeff"/><g transform="translate(273.68,486.55) scale(1.5205) rotate(0)"><rect width="20" height="10" fill="#fbfcff"/></g><path d="M 304.09 486.55 A 30.41 30.41 0 0 1  334.5 516.96 L 304.09 486.55 A 30.41 30.41 0 0 0 334.5 516.96" fill="#fbfbfb"/><rect x="334.5" y="486.54545454545456" width="30.40909090909091" height="30.40909090909091" fill="#ffffff"/><path d="M 334.5 501.75 A 15.2 15.2 0 0 1  349.7 486.55 L 334.5 501.75 A 15.2 15.2 0 0 0 349.7 486.55" fill="#fafafa"/><path d="M 334.5 516.95 A 15.2 15.2 0 0 1  349.7 501.75 L 334.5 516.95 A 15.2 15.2 0 0 0 349.7 501.75" fill="#f7f8f8"/><path d="M 349.7 501.75 A 15.2 15.2 0 0 1  364.9 516.95 L 349.7 501.75 A 15.2 15.2 0 0 0 364.9 516.95" fill="#f5f7ff"/><path d="M 364.91 486.55 A 30.41 30.41 0 0 1  395.32000000000005 516.96 L 364.91 486.55 A 30.41 30.41 0 0 0 395.32000000000005 516.96" fill="#ffffff"/><g transform="translate(395.32,486.55) scale(1.5205) rotate(0)"><rect width="20" height="10" fill="#fcfdff"/></g><circle cx="440.935" cy="501.755" r="15.205" fill="#fbfcff"/><path d="M 456.14 516.96 A 30.41 30.41 0 0 1  486.55 486.55 L 456.14 516.96 A 30.41 30.41 0 0 0 486.55 486.55" fill="#fdfdff"/><rect x="486.54545454545456" y="486.54545454545456" width="30.40909090909091" height="30.40909090909091" fill="#ffffff"/><path d="M 486.55 486.55 A 15.2 15.2 0 0 1  501.75 501.75 L 486.55 486.55 A 15.2 15.2 0 0 0 501.75 501.75" fill="#f7f8ff"/><circle cx="509.35" cy="494.15000000000003" r="7.6" fill="#f6f8ff"/><circle cx="494.15000000000003" cy="509.35" r="7.6" fill="#f9fbff"/><g transform="translate(501.75,501.75) scale(0.76) rotate(0)"><rect width="20" height="10" fill="#fdfdff"/></g><path d="M 516.95 486.55 A 30.41 30.41 0 0 1  547.36 516.96 L 516.95 486.55 A 30.41 30.41 0 0 0 547.36 516.96" fill="#f6f7f7"/><g transform="translate(547.36,486.55) scale(1.5205) rotate(0)"><rect width="20" height="10" fill="#ffffff"/></g><path d="M 0 547.36 A 30.41 30.41 0 0 1  30.41 516.95 L 0 547.36 A 30.41 30.41 0 0 0 30.41 516.95" fill="#f5f7ff"/><path d="M 60.82 516.95 A 30.41 30.41 0 0 1  91.23 547.36 L 60.82 516.95 A 30.41 30.41 0 0 0 91.23 547.36" fill="#fafafa"/><path d="M 91.23 547.36 A 30.41 30.41 0 0 1  121.64 516.95 L 91.23 547.36 A 30.41 30.41 0 0 0 121.64 516.95" fill="#f6f7f7"/><rect x="121.63636363636364" y="516.9545454545455" width="30.40909090909091" height="30.40909090909091" fill="#ffffff"/><g transform="translate(121.64,516.95) scale(0.76) rotate(0)"><rect width="20" height="10" fill="#fcfdff"/></g><g transform="translate(136.84,516.95) scale(0.76) rotate(0)"><rect width="20" height="10" fill="#fbfcff"/></g><g transform="translate(121.64,532.16) scale(0.76) rotate(0)"><rect width="20" height="10" fill="#ffffff"/></g><g transform="translate(136.84,532.16) scale(0.76) rotate(0)"><rect width="20" height="10" fill="#eff1f1"/></g><circle cx="167.25500000000002" cy="532.1550000000001" r="15.205" fill="#eef0f0"/><rect x="182.45454545454547" y="516.9545454545455" width="30.40909090909091" height="30.40909090909091" fill="#ffffff"/><circle cx="190.04999999999998" cy="524.5500000000001" r="7.6" fill="#fefefe"/><circle cx="205.26" cy="524.5500000000001" r="7.6" fill="#f7f8f8"/><circle cx="190.04999999999998" cy="539.76" r="7.6" fill="#ffffff"/><path d="M 212.86 516.95 A 30.41 30.41 0 0 1  243.27 547.36 L 212.86 516.95 A 30.41 30.41 0 0 0 243.27 547.36" fill="#fbfcff"/><g transform="translate(243.27,516.95) scale(1.5205) rotate(0)"><rect width="20" height="10" fill="#f6f8ff"/></g><rect x="304.0909090909091" y="516.9545454545455" width="30.40909090909091" height="30.40909090909091" fill="#ffffff"/><path d="M 304.09 516.95 A 15.2 15.2 0 0 1  319.28999999999996 532.1500000000001 L 304.09 516.95 A 15.2 15.2 0 0 0 319.28999999999996 532.1500000000001" fill="#fdfdfd"/><circle cx="326.90000000000003" cy="524.5500000000001" r="7.6" fill="#f4f5f5"/><path d="M 304.09 547.36 A 15.2 15.2 0 0 1  319.28999999999996 532.16 L 304.09 547.36 A 15.2 15.2 0 0 0 319.28999999999996 532.16" fill="#fefefe"/><g transform="translate(319.3,532.16) scale(0.76) rotate(0)"><rect width="20" height="10" fill="#f1f3f3"/></g><rect x="334.5" y="516.9545454545455" width="30.40909090909091" height="30.40909090909091" fill="#ffffff"/><g transform="translate(334.5,516.95) scale(0.76) rotate(0)"><rect width="20" height="10" fill="#f9fbff"/></g><g transform="translate(349.7,516.95) scale(0.76) rotate(0)"><rect width="20" height="10" fill="#f5f7ff"/></g><circle cx="342.1" cy="539.76" r="7.6" fill="#fdfeff"/><circle cx="357.3" cy="539.76" r="7.6" fill="#f3f4f4"/><circle cx="380.115" cy="532.1550000000001" r="15.205" fill="#fafbff"/><circle cx="410.525" cy="532.1550000000001" r="15.205" fill="#f5f7ff"/><circle cx="471.34499999999997" cy="532.1550000000001" r="15.205" fill="#fafbfb"/><g transform="translate(486.55,516.95) scale(1.5205) rotate(0)"><rect width="20" height="10" fill="#f9fafa"/></g><rect x="516.9545454545455" y="516.9545454545455" width="30.40909090909091" height="30.40909090909091" fill="#ffffff"/><circle cx="524.5500000000001" cy="524.5500000000001" r="7.6" fill="#fcfdff"/><g transform="translate(532.16,516.95) scale(0.76) rotate(0)"><rect width="20" height="10" fill="#f5f6f6"/></g><circle cx="524.5500000000001" cy="539.76" r="7.6" fill="#f7f9ff"/><circle cx="539.76" cy="539.76" r="7.6" fill="#fbfcff"/><circle cx="15.205" cy="562.565" r="15.205" fill="#fdfdff"/><circle cx="45.615" cy="562.565" r="15.205" fill="#f6f7f7"/><path d="M 60.82 547.36 A 30.41 30.41 0 0 1  91.23 577.77 L 60.82 547.36 A 30.41 30.41 0 0 0 91.23 577.77" fill="#eff1f1"/><path d="M 91.23 547.36 A 30.41 30.41 0 0 1  121.64 577.77 L 91.23 547.36 A 30.41 30.41 0 0 0 121.64 577.77" fill="#f7f8ff"/><circle cx="136.845" cy="562.565" r="15.205" fill="#f5f7ff"/><path d="M 152.05 547.36 A 30.41 30.41 0 0 1  182.46 577.77 L 152.05 547.36 A 30.41 30.41 0 0 0 182.46 577.77" fill="#fcfcff"/><rect x="182.45454545454547" y="547.3636363636364" width="30.40909090909091" height="30.40909090909091" fill="#ffffff"/><path d="M 182.45 562.5600000000001 A 15.2 15.2 0 0 1  197.64999999999998 547.36 L 182.45 562.5600000000001 A 15.2 15.2 0 0 0 197.64999999999998 547.36" fill="#f3f4f4"/><g transform="translate(197.66,547.36) scale(0.76) rotate(0)"><rect width="20" height="10" fill="#ffffff"/></g><path d="M 182.45 562.57 A 15.2 15.2 0 0 1  197.64999999999998 577.7700000000001 L 182.45 562.57 A 15.2 15.2 0 0 0 197.64999999999998 577.7700000000001" fill="#f6f7f7"/><circle cx="205.26" cy="570.1700000000001" r="7.6" fill="#ffffff"/><g transform="translate(212.86,547.36) scale(1.5205) rotate(0)"><rect width="20" height="10" fill="#f7f8ff"/></g><path d="M 243.27 577.77 A 30.41 30.41 0 0 1  273.68 547.36 L 243.27 577.77 A 30.41 30.41 0 0 0 273.68 547.36" fill="#f5f6f6"/><g transform="translate(273.68,547.36) scale(1.5205) rotate(0)"><rect width="20" height="10" fill="#f3f4f4"/></g><path d="M 304.09 547.36 A 30.41 30.41 0 0 1  334.5 577.77 L 304.09 547.36 A 30.41 30.41 0 0 0 334.5 577.77" fill="#f6f8ff"/><g transform="translate(334.5,547.36) scale(1.5205) rotate(0)"><rect width="20" height="10" fill="#eef0f0"/></g><g transform="translate(364.91,547.36) scale(1.5205) rotate(0)"><rect width="20" height="10" fill="#f7f7f7"/></g><circle cx="410.525" cy="562.565" r="15.205" fill="#f6f8ff"/><g transform="translate(425.73,547.36) scale(1.5205) rotate(0)"><rect width="20" height="10" fill="#eef0f0"/></g><rect x="456.1363636363636" y="547.3636363636364" width="30.40909090909091" height="30.40909090909091" fill="#ffffff"/><g transform="translate(456.14,547.36) scale(0.76) rotate(0)"><rect width="20" height="10" fill="#f2f3f3"/></g><circle cx="463.74" cy="570.1700000000001" r="7.6" fill="#f8f9ff"/><circle cx="478.94" cy="570.1700000000001" r="7.6" fill="#f5f6f6"/><circle cx="501.755" cy="562.565" r="15.205" fill="#f7f8f8"/><circle cx="532.1550000000001" cy="562.565" r="15.205" fill="#fcfdff"/><g transform="translate(547.36,547.36) scale(1.5205) rotate(0)"><rect width="20" height="10" fill="#fafbfb"/></g><path d="M 0 608.18 A 30.41 30.41 0 0 1  30.41 577.77 L 0 608.18 A 30.41 30.41 0 0 0 30.41 577.77" fill="#fafbfb"/><g transform="translate(30.41,577.77) scale(1.5205) rotate(0)"><rect width="20" height="10" fill="#fdfdfd"/></g><path d="M 60.82 608.18 A 30.41 30.41 0 0 1  91.23 577.77 L 60.82 608.18 A 30.41 30.41 0 0 0 91.23 577.77" fill="#f5f6f6"/><circle cx="106.435" cy="592.975" r="15.205" fill="#f4f6f6"/><circle cx="136.845" cy="592.975" r="15.205" fill="#fafbff"/><circle cx="167.25500000000002" cy="592.975" r="15.205" fill="#f5f7ff"/><path d="M 182.45 608.18 A 30.41 30.41 0 0 1  212.85999999999999 577.77 L 182.45 608.18 A 30.41 30.41 0 0 0 212.85999999999999 577.77" fill="#fcfcff"/><rect x="212.86363636363637" y="577.7727272727273" width="30.40909090909091" height="30.40909090909091" fill="#ffffff"/><path d="M 212.86 577.77 A 15.2 15.2 0 0 1  228.06 592.97 L 212.86 577.77 A 15.2 15.2 0 0 0 228.06 592.97" fill="#f9fafa"/><circle cx="235.67" cy="585.37" r="7.6" fill="#eef0f0"/><circle cx="220.46" cy="600.58" r="7.6" fill="#ffffff"/><circle cx="235.67" cy="600.58" r="7.6" fill="#f9fafa"/><circle cx="258.475" cy="592.975" r="15.205" fill="#fdfefe"/><circle cx="288.885" cy="592.975" r="15.205" fill="#eff0f0"/><path d="M 304.09 577.77 A 30.41 30.41 0 0 1  334.5 608.18 L 304.09 577.77 A 30.41 30.41 0 0 0 334.5 608.18" fill="#f9faff"/><circle cx="349.705" cy="592.975" r="15.205" fill="#f0f2f2"/><circle cx="380.115" cy="592.975" r="15.205" fill="#fcfcff"/><circle cx="410.525" cy="592.975" r="15.205" fill="#edefef"/><path d="M 425.73 577.77 A 30.41 30.41 0 0 1  456.14000000000004 608.18 L 425.73 577.77 A 30.41 30.41 0 0 0 456.14000000000004 608.18" fill="#f1f3f3"/><circle cx="471.34499999999997" cy="592.975" r="15.205" fill="#eff1f1"/><g transform="translate(486.55,577.77) scale(1.5205) rotate(0)"><rect width="20" height="10" fill="#f7f9ff"/></g><circle cx="532.1550000000001" cy="592.975" r="15.205" fill="#f6f7f7"/><path d="M 547.36 577.77 A 30.41 30.41 0 0 1  577.77 608.18 L 547.36 577.77 A 30.41 30.41 0 0 0 577.77 608.18" fill="#f6f7f7"/><g transform="translate(0,608.18) scale(1.5205) rotate(0)"><rect width="20" height="10" fill="#f5f7ff"/></g><g transform="translate(30.41,608.18) scale(1.5205) rotate(0)"><rect width="20" height="10" fill="#fafbff"/></g><rect x="60.81818181818182" y="608.1818181818182" width="30.40909090909091" height="30.40909090909091" fill="#ffffff"/><circle cx="68.42" cy="615.78" r="7.6" fill="#f9faff"/><circle cx="83.61999999999999" cy="615.78" r="7.6" fill="#fdfdfd"/><circle cx="68.42" cy="630.99" r="7.6" fill="#f9faff"/><path d="M 76.02 638.59 A 15.2 15.2 0 0 1  91.22 623.39 L 76.02 638.59 A 15.2 15.2 0 0 0 91.22 623.39" fill="#fdfeff"/><g transform="translate(91.23,608.18) scale(1.5205) rotate(0)"><rect width="20" height="10" fill="#fefeff"/></g><circle cx="136.845" cy="623.385" r="15.205" fill="#fcfdff"/><circle cx="167.25500000000002" cy="623.385" r="15.205" fill="#fdfdff"/><path d="M 182.45 638.5899999999999 A 30.41 30.41 0 0 1  212.85999999999999 608.18 L 182.45 638.5899999999999 A 30.41 30.41 0 0 0 212.85999999999999 608.18" fill="#f1f3f3"/><circle cx="228.06500000000003" cy="623.385" r="15.205" fill="#f5f6f6"/><path d="M 243.27 638.5899999999999 A 30.41 30.41 0 0 1  273.68 608.18 L 243.27 638.5899999999999 A 30.41 30.41 0 0 0 273.68 608.18" fill="#eef0f0"/><g transform="translate(273.68,608.18) scale(1.5205) rotate(0)"><rect width="20" height="10" fill="#ffffff"/></g><path d="M 304.09 638.5899999999999 A 30.41 30.41 0 0 1  334.5 608.18 L 304.09 638.5899999999999 A 30.41 30.41 0 0 0 334.5 608.18" fill="#ffffff"/><g transform="translate(334.5,608.18) scale(1.5205) rotate(0)"><rect width="20" height="10" fill="#fafbff"/></g><path d="M 364.91 608.18 A 30.41 30.41 0 0 1  395.32000000000005 638.5899999999999 L 364.91 608.18 A 30.41 30.41 0 0 0 395.32000000000005 638.5899999999999" fill="#f7f8ff"/><g transform="translate(395.32,608.18) scale(1.5205) rotate(0)"><rect width="20" height="10" fill="#fbfbfb"/></g><circle cx="440.935" cy="623.385" r="15.205" fill="#fefeff"/><g transform="translate(456.14,608.18) scale(1.5205) rotate(0)"><rect width="20" height="10" fill="#fafbff"/></g><circle cx="501.755" cy="623.385" r="15.205" fill="#fefeff"/><g transform="translate(516.95,608.18) scale(1.5205) rotate(0)"><rect width="20" height="10" fill="#f4f5f5"/></g><rect x="547.3636363636364" y="608.1818181818182" width="30.40909090909091" height="30.40909090909091" fill="#ffffff"/><g transform="translate(547.36,608.18) scale(0.76) rotate(0)"><rect width="20" height="10" fill="#f9fafa"/></g><path d="M 562.57 608.18 A 15.2 15.2 0 0 1  577.7700000000001 623.38 L 562.57 608.18 A 15.2 15.2 0 0 0 577.7700000000001 623.38" fill="#fbfcff"/><g transform="translate(547.36,623.39) scale(0.76) rotate(0)"><rect width="20" height="10" fill="#fafbfb"/></g><path d="M 562.57 623.39 A 15.2 15.2 0 0 1  577.7700000000001 638.59 L 562.57 623.39 A 15.2 15.2 0 0 0 577.7700000000001 638.59" fill="#fdfdff"/><path d="M 0 669 A 30.41 30.41 0 0 1  30.41 638.59 L 0 669 A 30.41 30.41 0 0 0 30.41 638.59" fill="#edefef"/><rect x="30.40909090909091" y="638.5909090909091" width="30.40909090909091" height="30.40909090909091" fill="#ffffff"/><path d="M 30.41 638.59 A 15.2 15.2 0 0 1  45.61 653.7900000000001 L 30.41 638.59 A 15.2 15.2 0 0 0 45.61 653.7900000000001" fill="#eff1f1"/><g transform="translate(45.61,638.59) scale(0.76) rotate(0)"><rect width="20" height="10" fill="#f9fbff"/></g><g transform="translate(30.41,653.8) scale(0.76) rotate(0)"><rect width="20" height="10" fill="#fafbff"/></g><path d="M 45.61 669 A 15.2 15.2 0 0 1  60.81 653.8 L 45.61 669 A 15.2 15.2 0 0 0 60.81 653.8" fill="#fbfbfb"/><path d="M 60.82 638.59 A 30.41 30.41 0 0 1  91.23 669 L 60.82 638.59 A 30.41 30.41 0 0 0 91.23 669" fill="#fbfcff"/><rect x="91.22727272727273" y="638.5909090909091" width="30.40909090909091" height="30.40909090909091" fill="#ffffff"/><g transform="translate(91.23,638.59) scale(0.76) rotate(0)"><rect width="20" height="10" fill="#f3f4f4"/></g><path d="M 106.43 638.59 A 15.2 15.2 0 0 1  121.63000000000001 653.7900000000001 L 106.43 638.59 A 15.2 15.2 0 0 0 121.63000000000001 653.7900000000001" fill="#f9f9f9"/><path d="M 91.23 653.8 A 15.2 15.2 0 0 1  106.43 669 L 91.23 653.8 A 15.2 15.2 0 0 0 106.43 669" fill="#f7f8f8"/><g transform="translate(106.43,653.8) scale(0.76) rotate(0)"><rect width="20" height="10" fill="#f8faff"/></g><g transform="translate(121.64,638.59) scale(1.5205) rotate(0)"><rect width="20" height="10" fill="#f2f4f4"/></g><rect x="152.04545454545456" y="638.5909090909091" width="30.40909090909091" height="30.40909090909091" fill="#ffffff"/><g transform="translate(152.05,638.59) scale(0.76) rotate(0)"><rect width="20" height="10" fill="#f9faff"/></g><path d="M 167.25 653.7900000000001 A 15.2 15.2 0 0 1  182.45 638.59 L 167.25 653.7900000000001 A 15.2 15.2 0 0 0 182.45 638.59" fill="#fdfdff"/><path d="M 152.05 669 A 15.2 15.2 0 0 1  167.25 653.8 L 152.05 669 A 15.2 15.2 0 0 0 167.25 653.8" fill="#f7f8f8"/><g transform="translate(167.25,653.8) scale(0.76) rotate(0)"><rect width="20" height="10" fill="#f7f8f8"/></g><path d="M 182.45 638.59 A 30.41 30.41 0 0 1  212.85999999999999 669 L 182.45 638.59 A 30.41 30.41 0 0 0 212.85999999999999 669" fill="#f2f3f3"/><path d="M 212.86 669 A 30.41 30.41 0 0 1  243.27 638.59 L 212.86 669 A 30.41 30.41 0 0 0 243.27 638.59" fill="#fafbff"/><circle cx="258.475" cy="653.7950000000001" r="15.205" fill="#eef0f0"/><circle cx="288.885" cy="653.7950000000001" r="15.205" fill="#fcfcfc"/><rect x="304.0909090909091" y="638.5909090909091" width="30.40909090909091" height="30.40909090909091" fill="#ffffff"/><path d="M 304.09 638.59 A 15.2 15.2 0 0 1  319.28999999999996 653.7900000000001 L 304.09 638.59 A 15.2 15.2 0 0 0 319.28999999999996 653.7900000000001" fill="#f7f9ff"/><circle cx="326.90000000000003" cy="646.19" r="7.6" fill="#f9faff"/><circle cx="311.69" cy="661.4" r="7.6" fill="#f1f3f3"/><path d="M 319.3 653.8 A 15.2 15.2 0 0 1  334.5 669 L 319.3 653.8 A 15.2 15.2 0 0 0 334.5 669" fill="#fbfbfb"/><path d="M 334.5 669 A 30.41 30.41 0 0 1  364.91 638.59 L 334.5 669 A 30.41 30.41 0 0 0 364.91 638.59" fill="#f8f9ff"/><path d="M 364.91 638.59 A 30.41 30.41 0 0 1  395.32000000000005 669 L 364.91 638.59 A 30.41 30.41 0 0 0 395.32000000000005 669" fill="#ffffff"/><rect x="395.3181818181818" y="638.5909090909091" width="30.40909090909091" height="30.40909090909091" fill="#ffffff"/><g transform="translate(395.32,638.59) scale(0.76) rotate(0)"><rect width="20" height="10" fill="#fbfcfc"/></g><g transform="translate(410.52,638.59) scale(0.76) rotate(0)"><rect width="20" height="10" fill="#eff1f1"/></g><path d="M 395.32 653.8 A 15.2 15.2 0 0 1  410.52 669 L 395.32 653.8 A 15.2 15.2 0 0 0 410.52 669" fill="#fbfbfb"/><g transform="translate(410.52,653.8) scale(0.76) rotate(0)"><rect width="20" height="10" fill="#fdfeff"/></g><path d="M 425.73 638.59 A 30.41 30.41 0 0 1  456.14000000000004 669 L 425.73 638.59 A 30.41 30.41 0 0 0 456.14000000000004 669" fill="#fcfcff"/><rect x="456.1363636363636" y="638.5909090909091" width="30.40909090909091" height="30.40909090909091" fill="#ffffff"/><circle cx="463.74" cy="646.19" r="7.6" fill="#edefef"/><circle cx="478.94" cy="646.19" r="7.6" fill="#fcfcff"/><circle cx="463.74" cy="661.4" r="7.6" fill="#f9faff"/><g transform="translate(471.34,653.8) scale(0.76) rotate(0)"><rect width="20" height="10" fill="#fdfdff"/></g><g transform="translate(486.55,638.59) scale(1.5205) rotate(0)"><rect width="20" height="10" fill="#fefefe"/></g><rect x="516.9545454545455" y="638.5909090909091" width="30.40909090909091" height="30.40909090909091" fill="#ffffff"/><g transform="translate(516.95,638.59) scale(0.76) rotate(0)"><rect width="20" height="10" fill="#fafbff"/></g><g transform="translate(532.16,638.59) scale(0.76) rotate(0)"><rect width="20" height="10" fill="#eeefef"/></g><path d="M 516.95 653.8 A 15.2 15.2 0 0 1  532.1500000000001 669 L 516.95 653.8 A 15.2 15.2 0 0 0 532.1500000000001 669" fill="#f7f8ff"/><circle cx="539.76" cy="661.4" r="7.6" fill="#f9faff"/><path d="M 547.36 638.59 A 30.41 30.41 0 0 1  577.77 669 L 547.36 638.59 A 30.41 30.41 0 0 0 577.77 669" fill="#f1f2f2"/></g></svg>