<?xml version="1.0" standalone="no"?><svg xmlns:xlink="http://www.w3.org/1999/xlink" xmlns="http://www.w3.org/2000/svg" viewBox="0 0 1000 1222.2147115189625" preserveAspectRatio="xMaxYMax slice"><g transform="scale(1.8269278199087633)"><rect x="0" y="0" width="577.7727272727273" height="669" fill="#ffffff"/><rect x="364.90909090909093" y="30.40909090909091" width="30.40909090909091" height="30.40909090909091" fill="#ffffff"/><rect x="273.6818181818182" y="60.81818181818182" width="30.40909090909091" height="30.40909090909091" fill="#ffffff"/><path d="M 395.32 91.23 A 30.41 30.41 0 0 0 425.73 60.82 L 395.32 60.82" fill="#e0e6ff"/><rect x="121.63636363636364" y="91.22727272727273" width="30.40909090909091" height="30.40909090909091" fill="#ffffff"/><g transform="translate(121.64,91.23) scale(0.76) rotate(0)"><rect width="20" height="10" fill="#dff9ff"/></g><path d="M 152.05 91.23 A 30.41 30.41 0 0 1  182.46 121.64 L 152.05 91.23 A 30.41 30.41 0 0 0 182.46 121.64" fill="#e7ecff"/><g transform="translate(304.09,91.23) scale(1.5205) rotate(0)"><rect width="20" height="10" fill="#e5eaff"/></g><path d="M 456.14 91.23 A 30.41 30.41 0 0 1  486.55 121.64 L 456.14 91.23 A 30.41 30.41 0 0 0 486.55 121.64" fill="#e2faff"/><path d="M 0 121.64 A 30.41 30.41 0 0 1  30.41 152.05 L 0 121.64 A 30.41 30.41 0 0 0 30.41 152.05" fill="#f9faff"/><path d="M 243.27 152.05 A 30.41 30.41 0 0 1  273.68 121.64 L 243.27 152.05 A 30.41 30.41 0 0 0 273.68 121.64" fill="#cdf6ff"/><path d="M 516.95 121.64 A 30.41 30.41 0 0 1 547.36 152.05 L 516.95 152.05" fill="#bdf3ff"/><g transform="translate(0,152.05) scale(1.5205) rotate(0)"><rect width="20" height="10" fill="#e2e8ff"/></g><path d="M 121.64 182.46 A 30.41 30.41 0 0 0 152.05 152.05 L 121.64 152.05" fill="#f3f5ff"/><rect x="243.27272727272728" y="152.04545454545456" width="30.40909090909091" height="30.40909090909091" fill="#ffffff"/><path d="M 304.09 182.46 A 30.41 30.41 0 0 1  334.5 152.05 L 304.09 182.46 A 30.41 30.41 0 0 0 334.5 152.05" fill="#dde4ff"/><path d="M 364.91 152.05 A 30.41 30.41 0 0 1  395.32000000000005 182.46 L 364.91 152.05 A 30.41 30.41 0 0 0 395.32000000000005 182.46" fill="#e7ecff"/><g transform="translate(425.73,152.05) scale(1.5205) rotate(0)"><rect width="20" height="10" fill="#ebefff"/></g><g transform="translate(456.14,152.05) scale(1.5205) rotate(0)"><rect width="20" height="10" fill="#dee4ff"/></g><path d="M 60.82 182.45 A 30.41 30.41 0 0 1  91.23 212.85999999999999 L 60.82 182.45 A 30.41 30.41 0 0 0 91.23 212.85999999999999" fill="#f0fcff"/><path d="M 182.45 182.45 A 30.41 30.41 0 0 0 212.85999999999999 212.85999999999999 L 212.85999999999999 182.45" fill="#bef3ff"/><g transform="translate(304.09,182.45) scale(1.5205) rotate(0)"><rect width="20" height="10" fill="#c9f5ff"/></g><path d="M 547.36 182.45 A 30.41 30.41 0 0 0 577.77 212.85999999999999 L 577.77 182.45" fill="#e6ebff"/><rect x="121.63636363636364" y="212.86363636363637" width="30.40909090909091" height="30.40909090909091" fill="#ffffff"/><g transform="translate(136.84,212.86) scale(0.76) rotate(0)"><rect width="20" height="10" fill="#dbe2ff"/></g><rect x="182.45454545454547" y="212.86363636363637" width="30.40909090909091" height="30.40909090909091" fill="#ffffff"/><path d="M 197.66 243.26999999999998 A 15.2 15.2 0 0 0 212.85999999999999 228.07 L 197.66 228.07" fill="#e8fbff"/><g transform="translate(243.27,212.86) scale(1.5205) rotate(0)"><rect width="20" height="10" fill="#dee4ff"/></g><g transform="translate(486.55,212.86) scale(1.5205) rotate(0)"><rect width="20" height="10" fill="#f8faff"/></g><g transform="translate(516.95,212.86) scale(1.5205) rotate(0)"><rect width="20" height="10" fill="#ddf9ff"/></g><path d="M 182.45 273.68 A 30.41 30.41 0 0 1  212.85999999999999 243.27 L 182.45 273.68 A 30.41 30.41 0 0 0 212.85999999999999 243.27" fill="#e1e7ff"/><path d="M 212.86 243.27 A 30.41 30.41 0 0 1  243.27 273.68 L 212.86 243.27 A 30.41 30.41 0 0 0 243.27 273.68" fill="#ebefff"/><path d="M 334.5 273.68 A 30.41 30.41 0 0 1  364.91 243.27 L 364.91 273.68" fill="#d6f8ff"/><path d="M 456.14 243.27 A 30.41 30.41 0 0 1  486.55 273.68 L 456.14 243.27 A 30.41 30.41 0 0 0 486.55 273.68" fill="#f8faff"/><rect x="486.54545454545456" y="243.27272727272728" width="30.40909090909091" height="30.40909090909091" fill="#ffffff"/><g transform="translate(486.55,243.27) scale(0.76) rotate(0)"><rect width="20" height="10" fill="#def9ff"/></g><path d="M 501.75 243.27 A 15.2 15.2 0 0 1  516.95 258.47 L 501.75 243.27 A 15.2 15.2 0 0 0 516.95 258.47" fill="#edfcff"/><path d="M 486.55 273.68 A 15.2 15.2 0 0 1  501.75 258.48 L 486.55 273.68 A 15.2 15.2 0 0 0 501.75 258.48" fill="#f9feff"/><path d="M 516.95 273.68 A 30.41 30.41 0 0 1  547.36 243.27 L 516.95 273.68 A 30.41 30.41 0 0 0 547.36 243.27" fill="#caf5ff"/><path d="M 0 304.09000000000003 A 30.41 30.41 0 0 0 30.41 273.68 L 0 273.68" fill="#f9faff"/><path d="M 60.82 273.68 A 30.41 30.41 0 0 1 91.23 304.09000000000003 L 60.82 304.09000000000003" fill="#fcffff"/><path d="M 152.05 304.09000000000003 A 30.41 30.41 0 0 0 182.46 273.68 L 152.05 273.68" fill="#d2f7ff"/><path d="M 212.86 304.09000000000003 A 30.41 30.41 0 0 1  243.27 273.68 L 212.86 304.09000000000003 A 30.41 30.41 0 0 0 243.27 273.68" fill="#f7f8ff"/><rect x="334.5" y="273.6818181818182" width="30.40909090909091" height="30.40909090909091" fill="#ffffff"/><g transform="translate(334.5,273.68) scale(0.76) rotate(0)"><rect width="20" height="10" fill="#d2f7ff"/></g><path d="M 349.7 288.88 A 15.2 15.2 0 0 0 364.9 273.68 L 349.7 273.68" fill="#c9f5ff"/><path d="M 364.91 273.68 A 30.41 30.41 0 0 0 395.32000000000005 304.09000000000003 L 395.32000000000005 273.68" fill="#f6f8ff"/><g transform="translate(425.73,273.68) scale(1.5205) rotate(0)"><rect width="20" height="10" fill="#dfe5ff"/></g><rect x="456.1363636363636" y="273.6818181818182" width="30.40909090909091" height="30.40909090909091" fill="#ffffff"/><path d="M 456.14 304.09 A 15.2 15.2 0 0 1  471.34 288.89 L 456.14 304.09 A 15.2 15.2 0 0 0 471.34 288.89" fill="#f9faff"/><path d="M 471.34 288.89 A 15.2 15.2 0 0 0 486.53999999999996 304.09 L 486.53999999999996 288.89" fill="#dae1ff"/><g transform="translate(516.95,273.68) scale(1.5205) rotate(0)"><rect width="20" height="10" fill="#eff2ff"/></g><rect x="547.3636363636364" y="273.6818181818182" width="30.40909090909091" height="30.40909090909091" fill="#ffffff"/><path d="M 30.41 334.5 A 30.41 30.41 0 0 1  60.82 304.09 L 30.41 334.5 A 30.41 30.41 0 0 0 60.82 304.09" fill="#f9feff"/><rect x="60.81818181818182" y="304.0909090909091" width="30.40909090909091" height="30.40909090909091" fill="#ffffff"/><path d="M 60.82 304.09 A 15.2 15.2 0 0 1  76.02 319.28999999999996 L 60.82 304.09 A 15.2 15.2 0 0 0 76.02 319.28999999999996" fill="#cff6ff"/><g transform="translate(60.82,319.3) scale(0.76) rotate(0)"><rect width="20" height="10" fill="#e0e6ff"/></g><path d="M 152.05 334.5 A 30.41 30.41 0 0 1  182.46 304.09 L 182.46 334.5" fill="#e8ecff"/><rect x="182.45454545454547" y="304.0909090909091" width="30.40909090909091" height="30.40909090909091" fill="#ffffff"/><path d="M 212.86 334.5 A 30.41 30.41 0 0 1  243.27 304.09 L 212.86 334.5 A 30.41 30.41 0 0 0 243.27 304.09" fill="#dbf8ff"/><g transform="translate(243.27,304.09) scale(1.5205) rotate(0)"><rect width="20" height="10" fill="#d8e0ff"/></g><rect x="304.0909090909091" y="304.0909090909091" width="30.40909090909091" height="30.40909090909091" fill="#ffffff"/><path d="M 304.09 304.09 A 15.2 15.2 0 0 1 319.28999999999996 319.28999999999996 L 304.09 319.28999999999996" fill="#ddf9ff"/><path d="M 319.3 319.28999999999996 A 15.2 15.2 0 0 1  334.5 304.09 L 319.3 319.28999999999996 A 15.2 15.2 0 0 0 334.5 304.09" fill="#eafbff"/><path d="M 319.3 334.5 A 15.2 15.2 0 0 1  334.5 319.3 L 334.5 334.5" fill="#b9f2ff"/><g transform="translate(334.5,304.09) scale(1.5205) rotate(0)"><rect width="20" height="10" fill="#e8edff"/></g><rect x="364.90909090909093" y="304.0909090909091" width="30.40909090909091" height="30.40909090909091" fill="#ffffff"/><path d="M 364.91 304.09 A 15.2 15.2 0 0 1 380.11 319.28999999999996 L 364.91 319.28999999999996" fill="#f2f5ff"/><g transform="translate(364.91,319.3) scale(0.76) rotate(0)"><rect width="20" height="10" fill="#edfcff"/></g><rect x="425.72727272727275" y="304.0909090909091" width="30.40909090909091" height="30.40909090909091" fill="#ffffff"/><path d="M 425.73 334.5 A 15.2 15.2 0 0 1  440.93 319.3 L 425.73 334.5 A 15.2 15.2 0 0 0 440.93 319.3" fill="#f6f7ff"/><g transform="translate(440.93,319.3) scale(0.76) rotate(0)"><rect width="20" height="10" fill="#d8e0ff"/></g><g transform="translate(456.14,304.09) scale(1.5205) rotate(0)"><rect width="20" height="10" fill="#e9edff"/></g><path d="M 516.95 304.09 A 30.41 30.41 0 0 1  547.36 334.5 L 516.95 304.09 A 30.41 30.41 0 0 0 547.36 334.5" fill="#e2e8ff"/><path d="M 547.36 304.09 A 30.41 30.41 0 0 1  577.77 334.5 L 547.36 304.09 A 30.41 30.41 0 0 0 577.77 334.5" fill="#eff2ff"/><path d="M 60.82 334.5 A 30.41 30.41 0 0 1 91.23 364.91 L 60.82 364.91" fill="#def9ff"/><path d="M 121.64 364.91 A 30.41 30.41 0 0 1  152.05 334.5 L 121.64 364.91 A 30.41 30.41 0 0 0 152.05 334.5" fill="#dff9ff"/><path d="M 212.86 334.5 A 30.41 30.41 0 0 1  243.27 364.91 L 212.86 334.5 A 30.41 30.41 0 0 0 243.27 364.91" fill="#f5f7ff"/><g transform="translate(273.68,334.5) scale(1.5205) rotate(0)"><rect width="20" height="10" fill="#ebfbff"/></g><path d="M 304.09 334.5 A 30.41 30.41 0 0 1 334.5 364.91 L 304.09 364.91" fill="#c9f5ff"/><rect x="364.90909090909093" y="334.5" width="30.40909090909091" height="30.40909090909091" fill="#ffffff"/><g transform="translate(364.91,334.5) scale(0.76) rotate(0)"><rect width="20" height="10" fill="#eff2ff"/></g><path d="M 380.11 334.5 A 15.2 15.2 0 0 1  395.31 349.7 L 380.11 334.5 A 15.2 15.2 0 0 0 395.31 349.7" fill="#fefeff"/><g transform="translate(364.91,349.7) scale(0.76) rotate(0)"><rect width="20" height="10" fill="#f3f6ff"/></g><g transform="translate(380.11,349.7) scale(0.76) rotate(0)"><rect width="20" height="10" fill="#ecfcff"/></g><path d="M 395.32 334.5 A 30.41 30.41 0 0 1  425.73 364.91 L 395.32 334.5 A 30.41 30.41 0 0 0 425.73 364.91" fill="#feffff"/><path d="M 425.73 364.91 A 30.41 30.41 0 0 1  456.14000000000004 334.5 L 425.73 364.91 A 30.41 30.41 0 0 0 456.14000000000004 334.5" fill="#c5f4ff"/><rect x="486.54545454545456" y="334.5" width="30.40909090909091" height="30.40909090909091" fill="#ffffff"/><path d="M 486.55 364.9 A 15.2 15.2 0 0 1  501.75 349.7 L 486.55 364.9 A 15.2 15.2 0 0 0 501.75 349.7" fill="#e9fbff"/><path d="M 501.75 364.9 A 15.2 15.2 0 0 1  516.95 349.7 L 516.95 364.9" fill="#cbf5ff"/><path d="M 516.95 364.91 A 30.41 30.41 0 0 0 547.36 334.5 L 516.95 334.5" fill="#ebfbff"/><path d="M 30.41 395.32000000000005 A 30.41 30.41 0 0 1  60.82 364.91 L 30.41 395.32000000000005 A 30.41 30.41 0 0 0 60.82 364.91" fill="#e0e6ff"/><path d="M 91.23 395.32000000000005 A 30.41 30.41 0 0 1  121.64 364.91 L 91.23 395.32000000000005 A 30.41 30.41 0 0 0 121.64 364.91" fill="#eff2ff"/><g transform="translate(152.05,364.91) scale(1.5205) rotate(0)"><rect width="20" height="10" fill="#edfcff"/></g><path d="M 212.86 395.32000000000005 A 30.41 30.41 0 0 0 243.27 364.91 L 212.86 364.91" fill="#eefcff"/><path d="M 243.27 364.91 A 30.41 30.41 0 0 1  273.68 395.32000000000005 L 243.27 364.91 A 30.41 30.41 0 0 0 273.68 395.32000000000005" fill="#ecf0ff"/><path d="M 304.09 364.91 A 30.41 30.41 0 0 1  334.5 395.32000000000005 L 304.09 364.91 A 30.41 30.41 0 0 0 334.5 395.32000000000005" fill="#daf8ff"/><path d="M 364.91 395.32000000000005 A 30.41 30.41 0 0 1  395.32000000000005 364.91 L 395.32000000000005 395.32000000000005" fill="#d8f8ff"/><path d="M 425.73 395.32000000000005 A 30.41 30.41 0 0 1  456.14000000000004 364.91 L 425.73 395.32000000000005 A 30.41 30.41 0 0 0 456.14000000000004 364.91" fill="#e7fbff"/><rect x="456.1363636363636" y="364.90909090909093" width="30.40909090909091" height="30.40909090909091" fill="#ffffff"/><g transform="translate(456.14,364.91) scale(0.76) rotate(0)"><rect width="20" height="10" fill="#f6f8ff"/></g><path d="M 471.34 364.91 A 15.2 15.2 0 0 1  486.53999999999996 380.11 L 471.34 364.91 A 15.2 15.2 0 0 0 486.53999999999996 380.11" fill="#c2f4ff"/><path d="M 456.14 395.31 A 15.2 15.2 0 0 1  471.34 380.11 L 456.14 395.31 A 15.2 15.2 0 0 0 471.34 380.11" fill="#c3f4ff"/><path d="M 471.34 395.31 A 15.2 15.2 0 0 1  486.53999999999996 380.11 L 471.34 395.31 A 15.2 15.2 0 0 0 486.53999999999996 380.11" fill="#fbfeff"/><rect x="486.54545454545456" y="364.90909090909093" width="30.40909090909091" height="30.40909090909091" fill="#ffffff"/><g transform="translate(501.75,364.91) scale(0.76) rotate(0)"><rect width="20" height="10" fill="#dbe2ff"/></g><g transform="translate(486.55,380.11) scale(0.76) rotate(0)"><rect width="20" height="10" fill="#d9e0ff"/></g><g transform="translate(516.95,364.91) scale(1.5205) rotate(0)"><rect width="20" height="10" fill="#e0f9ff"/></g><rect x="547.3636363636364" y="364.90909090909093" width="30.40909090909091" height="30.40909090909091" fill="#ffffff"/><path d="M 562.57 364.91 A 15.2 15.2 0 0 0 577.7700000000001 380.11 L 577.7700000000001 364.91" fill="#e9edff"/><g transform="translate(547.36,380.11) scale(0.76) rotate(0)"><rect width="20" height="10" fill="#eff2ff"/></g><path d="M 562.57 395.31 A 15.2 15.2 0 0 0 577.7700000000001 380.11 L 562.57 380.11" fill="#eff2ff"/><path d="M 60.82 425.73 A 30.41 30.41 0 0 1  91.23 395.32 L 91.23 425.73" fill="#e9eeff"/><rect x="91.22727272727273" y="395.3181818181818" width="30.40909090909091" height="30.40909090909091" fill="#ffffff"/><path d="M 91.23 395.32 A 15.2 15.2 0 0 1 106.43 410.52 L 91.23 410.52" fill="#e1e7ff"/><g transform="translate(106.43,395.32) scale(0.76) rotate(0)"><rect width="20" height="10" fill="#dbf8ff"/></g><g transform="translate(152.05,395.32) scale(1.5205) rotate(0)"><rect width="20" height="10" fill="#f6f8ff"/></g><rect x="182.45454545454547" y="395.3181818181818" width="30.40909090909091" height="30.40909090909091" fill="#ffffff"/><path d="M 182.45 410.52 A 15.2 15.2 0 0 1  197.64999999999998 395.32 L 182.45 410.52 A 15.2 15.2 0 0 0 197.64999999999998 395.32" fill="#feffff"/><path d="M 197.66 395.32 A 15.2 15.2 0 0 1  212.85999999999999 410.52 L 197.66 395.32 A 15.2 15.2 0 0 0 212.85999999999999 410.52" fill="#baf2ff"/><path d="M 197.66 410.52 A 15.2 15.2 0 0 1 212.85999999999999 425.71999999999997 L 197.66 425.71999999999997" fill="#f9faff"/><g transform="translate(212.86,395.32) scale(1.5205) rotate(0)"><rect width="20" height="10" fill="#dce3ff"/></g><path d="M 243.27 425.73 A 30.41 30.41 0 0 0 273.68 395.32 L 243.27 395.32" fill="#e7ecff"/><g transform="translate(273.68,395.32) scale(1.5205) rotate(0)"><rect width="20" height="10" fill="#e9fbff"/></g><g transform="translate(304.09,395.32) scale(1.5205) rotate(0)"><rect width="20" height="10" fill="#d7dfff"/></g><path d="M 334.5 395.32 A 30.41 30.41 0 0 1 364.91 425.73 L 334.5 425.73" fill="#dce2ff"/><rect x="364.90909090909093" y="395.3181818181818" width="30.40909090909091" height="30.40909090909091" fill="#ffffff"/><g transform="translate(380.11,395.32) scale(0.76) rotate(0)"><rect width="20" height="10" fill="#ecfcff"/></g><g transform="translate(364.91,410.52) scale(0.76) rotate(0)"><rect width="20" height="10" fill="#e8ecff"/></g><g transform="translate(380.11,410.52) scale(0.76) rotate(0)"><rect width="20" height="10" fill="#fbfeff"/></g><g transform="translate(395.32,395.32) scale(1.5205) rotate(0)"><rect width="20" height="10" fill="#e6ebff"/></g><g transform="translate(425.73,395.32) scale(1.5205) rotate(0)"><rect width="20" height="10" fill="#f4f6ff"/></g><rect x="456.1363636363636" y="395.3181818181818" width="30.40909090909091" height="30.40909090909091" fill="#ffffff"/><path d="M 471.34 395.32 A 15.2 15.2 0 0 1  486.53999999999996 410.52 L 471.34 395.32 A 15.2 15.2 0 0 0 486.53999999999996 410.52" fill="#caf5ff"/><path d="M 471.34 410.52 A 15.2 15.2 0 0 1  486.53999999999996 425.71999999999997 L 471.34 410.52 A 15.2 15.2 0 0 0 486.53999999999996 425.71999999999997" fill="#e0f9ff"/><path d="M 547.36 425.73 A 30.41 30.41 0 0 1  577.77 395.32 L 547.36 425.73 A 30.41 30.41 0 0 0 577.77 395.32" fill="#e7ebff"/><path d="M 0 425.73 A 30.41 30.41 0 0 1 30.41 456.14000000000004 L 0 456.14000000000004" fill="#d2f7ff"/><path d="M 30.41 456.14000000000004 A 30.41 30.41 0 0 1  60.82 425.73 L 30.41 456.14000000000004 A 30.41 30.41 0 0 0 60.82 425.73" fill="#d7f8ff"/><g transform="translate(60.82,425.73) scale(1.5205) rotate(0)"><rect width="20" height="10" fill="#f9faff"/></g><g transform="translate(91.23,425.73) scale(1.5205) rotate(0)"><rect width="20" height="10" fill="#e9edff"/></g><path d="M 182.45 425.73 A 30.41 30.41 0 0 0 212.85999999999999 456.14000000000004 L 212.85999999999999 425.73" fill="#fcfeff"/><path d="M 212.86 456.14000000000004 A 30.41 30.41 0 0 1  243.27 425.73 L 243.27 456.14000000000004" fill="#dff9ff"/><path d="M 243.27 425.73 A 30.41 30.41 0 0 1  273.68 456.14000000000004 L 243.27 425.73 A 30.41 30.41 0 0 0 273.68 456.14000000000004" fill="#f7feff"/><path d="M 304.09 456.14000000000004 A 30.41 30.41 0 0 1  334.5 425.73 L 334.5 456.14000000000004" fill="#daf8ff"/><g transform="translate(334.5,425.73) scale(1.5205) rotate(0)"><rect width="20" height="10" fill="#f6f8ff"/></g><path d="M 364.91 456.14000000000004 A 30.41 30.41 0 0 1  395.32000000000005 425.73 L 364.91 456.14000000000004 A 30.41 30.41 0 0 0 395.32000000000005 425.73" fill="#f4fdff"/><path d="M 395.32 425.73 A 30.41 30.41 0 0 1  425.73 456.14000000000004 L 395.32 425.73 A 30.41 30.41 0 0 0 425.73 456.14000000000004" fill="#dce3ff"/><rect x="425.72727272727275" y="425.72727272727275" width="30.40909090909091" height="30.40909090909091" fill="#ffffff"/><path d="M 440.93 440.93 A 15.2 15.2 0 0 1  456.13 425.73 L 440.93 440.93 A 15.2 15.2 0 0 0 456.13 425.73" fill="#f8f9ff"/><path d="M 440.93 456.13 A 15.2 15.2 0 0 1  456.13 440.93 L 456.13 456.13" fill="#dbe2ff"/><rect x="486.54545454545456" y="425.72727272727275" width="30.40909090909091" height="30.40909090909091" fill="#ffffff"/><g transform="translate(486.55,425.73) scale(0.76) rotate(0)"><rect width="20" height="10" fill="#d7f8ff"/></g><path d="M 486.55 440.93 A 15.2 15.2 0 0 1  501.75 456.13 L 486.55 440.93 A 15.2 15.2 0 0 0 501.75 456.13" fill="#fcffff"/><path d="M 501.75 456.13 A 15.2 15.2 0 0 1  516.95 440.93 L 501.75 456.13 A 15.2 15.2 0 0 0 516.95 440.93" fill="#f4f6ff"/><path d="M 516.95 456.14000000000004 A 30.41 30.41 0 0 1  547.36 425.73 L 516.95 456.14000000000004 A 30.41 30.41 0 0 0 547.36 425.73" fill="#eaeeff"/><path d="M 0 456.14 A 30.41 30.41 0 0 1  30.41 486.55 L 0 456.14 A 30.41 30.41 0 0 0 30.41 486.55" fill="#e5eaff"/><path d="M 91.23 486.55 A 30.41 30.41 0 0 1  121.64 456.14 L 91.23 486.55 A 30.41 30.41 0 0 0 121.64 456.14" fill="#e6faff"/><rect x="121.63636363636364" y="456.1363636363636" width="30.40909090909091" height="30.40909090909091" fill="#ffffff"/><g transform="translate(121.64,456.14) scale(0.76) rotate(0)"><rect width="20" height="10" fill="#f2fdff"/></g><path d="M 136.84 456.14 A 15.2 15.2 0 0 1  152.04 471.34 L 136.84 456.14 A 15.2 15.2 0 0 0 152.04 471.34" fill="#e0f9ff"/><g transform="translate(121.64,471.34) scale(0.76) rotate(0)"><rect width="20" height="10" fill="#d7dfff"/></g><g transform="translate(136.84,471.34) scale(0.76) rotate(0)"><rect width="20" height="10" fill="#d8e0ff"/></g><path d="M 152.05 456.14 A 30.41 30.41 0 0 1  182.46 486.55 L 152.05 456.14 A 30.41 30.41 0 0 0 182.46 486.55" fill="#e4e9ff"/><path d="M 182.45 456.14 A 30.41 30.41 0 0 0 212.85999999999999 486.55 L 212.85999999999999 456.14" fill="#f4f6ff"/><rect x="212.86363636363637" y="456.1363636363636" width="30.40909090909091" height="30.40909090909091" fill="#ffffff"/><g transform="translate(212.86,456.14) scale(0.76) rotate(0)"><rect width="20" height="10" fill="#def9ff"/></g><path d="M 228.07 456.14 A 15.2 15.2 0 0 1  243.26999999999998 471.34 L 228.07 456.14 A 15.2 15.2 0 0 0 243.26999999999998 471.34" fill="#e6ebff"/><path d="M 212.86 486.53999999999996 A 15.2 15.2 0 0 1  228.06 471.34 L 212.86 486.53999999999996 A 15.2 15.2 0 0 0 228.06 471.34" fill="#e8ecff"/><path d="M 228.07 471.34 A 15.2 15.2 0 0 1 243.26999999999998 486.53999999999996 L 228.07 486.53999999999996" fill="#e0e6ff"/><g transform="translate(243.27,456.14) scale(1.5205) rotate(0)"><rect width="20" height="10" fill="#d3f7ff"/></g><path d="M 273.68 456.14 A 30.41 30.41 0 0 1  304.09000000000003 486.55 L 273.68 456.14 A 30.41 30.41 0 0 0 304.09000000000003 486.55" fill="#edf0ff"/><g transform="translate(304.09,456.14) scale(1.5205) rotate(0)"><rect width="20" height="10" fill="#e5eaff"/></g><path d="M 334.5 456.14 A 30.41 30.41 0 0 1  364.91 486.55 L 334.5 456.14 A 30.41 30.41 0 0 0 364.91 486.55" fill="#e3faff"/><g transform="translate(364.91,456.14) scale(1.5205) rotate(0)"><rect width="20" height="10" fill="#f4fdff"/></g><g transform="translate(395.32,456.14) scale(1.5205) rotate(0)"><rect width="20" height="10" fill="#f5fdff"/></g><g transform="translate(425.73,456.14) scale(1.5205) rotate(0)"><rect width="20" height="10" fill="#f9feff"/></g><g transform="translate(456.14,456.14) scale(1.5205) rotate(0)"><rect width="20" height="10" fill="#e9eeff"/></g><path d="M 486.55 456.14 A 30.41 30.41 0 0 1  516.96 486.55 L 486.55 456.14 A 30.41 30.41 0 0 0 516.96 486.55" fill="#f3fdff"/><g transform="translate(516.95,456.14) scale(1.5205) rotate(0)"><rect width="20" height="10" fill="#f9feff"/></g><rect x="547.3636363636364" y="456.1363636363636" width="30.40909090909091" height="30.40909090909091" fill="#ffffff"/><g transform="translate(547.36,456.14) scale(0.76) rotate(0)"><rect width="20" height="10" fill="#edf1ff"/></g><g transform="translate(562.57,456.14) scale(0.76) rotate(0)"><rect width="20" height="10" fill="#d6f7ff"/></g><g transform="translate(562.57,471.34) scale(0.76) rotate(0)"><rect width="20" height="10" fill="#e0f9ff"/></g><g transform="translate(0,486.55) scale(1.5205) rotate(0)"><rect width="20" height="10" fill="#c1f4ff"/></g><path d="M 30.41 486.55 A 30.41 30.41 0 0 1  60.82 516.96 L 30.41 486.55 A 30.41 30.41 0 0 0 60.82 516.96" fill="#edfcff"/><path d="M 60.82 516.96 A 30.41 30.41 0 0 1  91.23 486.55 L 60.82 516.96 A 30.41 30.41 0 0 0 91.23 486.55" fill="#f6f8ff"/><rect x="91.22727272727273" y="486.54545454545456" width="30.40909090909091" height="30.40909090909091" fill="#ffffff"/><path d="M 91.23 501.75 A 15.2 15.2 0 0 0 106.43 486.55 L 91.23 486.55" fill="#f7f8ff"/><g transform="translate(106.43,486.55) scale(0.76) rotate(0)"><rect width="20" height="10" fill="#fdfeff"/></g><path d="M 91.23 516.95 A 15.2 15.2 0 0 1  106.43 501.75 L 91.23 516.95 A 15.2 15.2 0 0 0 106.43 501.75" fill="#effcff"/><path d="M 106.43 501.75 A 15.2 15.2 0 0 1  121.63000000000001 516.95 L 106.43 501.75 A 15.2 15.2 0 0 0 121.63000000000001 516.95" fill="#ebefff"/><rect x="121.63636363636364" y="486.54545454545456" width="30.40909090909091" height="30.40909090909091" fill="#ffffff"/><path d="M 136.84 486.55 A 15.2 15.2 0 0 1  152.04 501.75 L 136.84 486.55 A 15.2 15.2 0 0 0 152.04 501.75" fill="#fafbff"/><g transform="translate(136.84,501.75) scale(0.76) rotate(0)"><rect width="20" height="10" fill="#f1f4ff"/></g><path d="M 152.05 486.55 A 30.41 30.41 0 0 1  182.46 516.96 L 152.05 486.55 A 30.41 30.41 0 0 0 182.46 516.96" fill="#e0e6ff"/><path d="M 182.45 486.55 A 30.41 30.41 0 0 1  212.85999999999999 516.96 L 182.45 486.55 A 30.41 30.41 0 0 0 212.85999999999999 516.96" fill="#f1fcff"/><rect x="212.86363636363637" y="486.54545454545456" width="30.40909090909091" height="30.40909090909091" fill="#ffffff"/><path d="M 212.86 486.55 A 15.2 15.2 0 0 1  228.06 501.75 L 212.86 486.55 A 15.2 15.2 0 0 0 228.06 501.75" fill="#f4fdff"/><path d="M 228.07 486.55 A 15.2 15.2 0 0 0 243.26999999999998 501.75 L 243.26999999999998 486.55" fill="#dbe2ff"/><g transform="translate(212.86,501.75) scale(0.76) rotate(0)"><rect width="20" height="10" fill="#d8dfff"/></g><g transform="translate(228.07,501.75) scale(0.76) rotate(0)"><rect width="20" height="10" fill="#e8ecff"/></g><path d="M 243.27 486.55 A 30.41 30.41 0 0 1  273.68 516.96 L 243.27 486.55 A 30.41 30.41 0 0 0 273.68 516.96" fill="#e0e6ff"/><path d="M 273.68 486.55 A 30.41 30.41 0 0 1  304.09000000000003 516.96 L 273.68 486.55 A 30.41 30.41 0 0 0 304.09000000000003 516.96" fill="#c2f4ff"/><g transform="translate(304.09,486.55) scale(1.5205) rotate(0)"><rect width="20" height="10" fill="#dce3ff"/></g><path d="M 334.5 516.96 A 30.41 30.41 0 0 1  364.91 486.55 L 334.5 516.96 A 30.41 30.41 0 0 0 364.91 486.55" fill="#bcf3ff"/><g transform="translate(364.91,486.55) scale(1.5205) rotate(0)"><rect width="20" height="10" fill="#d0f6ff"/></g><g transform="translate(395.32,486.55) scale(1.5205) rotate(0)"><rect width="20" height="10" fill="#ddf9ff"/></g><rect x="425.72727272727275" y="486.54545454545456" width="30.40909090909091" height="30.40909090909091" fill="#ffffff"/><g transform="translate(425.73,486.55) scale(0.76) rotate(0)"><rect width="20" height="10" fill="#c0f3ff"/></g><g transform="translate(440.93,486.55) scale(0.76) rotate(0)"><rect width="20" height="10" fill="#e0e6ff"/></g><path d="M 425.73 501.75 A 15.2 15.2 0 0 1  440.93 516.95 L 425.73 501.75 A 15.2 15.2 0 0 0 440.93 516.95" fill="#c3f4ff"/><path d="M 440.93 516.95 A 15.2 15.2 0 0 1  456.13 501.75 L 456.13 516.95" fill="#c6f5ff"/><path d="M 456.14 486.55 A 30.41 30.41 0 0 1  486.55 516.96 L 456.14 486.55 A 30.41 30.41 0 0 0 486.55 516.96" fill="#e6ebff"/><rect x="486.54545454545456" y="486.54545454545456" width="30.40909090909091" height="30.40909090909091" fill="#ffffff"/><path d="M 486.55 501.75 A 15.2 15.2 0 0 1  501.75 486.55 L 486.55 501.75 A 15.2 15.2 0 0 0 501.75 486.55" fill="#f0fcff"/><path d="M 501.75 486.55 A 15.2 15.2 0 0 1  516.95 501.75 L 501.75 486.55 A 15.2 15.2 0 0 0 516.95 501.75" fill="#e0e6ff"/><path d="M 486.55 516.95 A 15.2 15.2 0 0 0 501.75 501.75 L 486.55 501.75" fill="#ebefff"/><path d="M 501.75 501.75 A 15.2 15.2 0 0 1  516.95 516.95 L 501.75 501.75 A 15.2 15.2 0 0 0 516.95 516.95" fill="#f7feff"/><rect x="516.9545454545455" y="486.54545454545456" width="30.40909090909091" height="30.40909090909091" fill="#ffffff"/><path d="M 516.95 501.75 A 15.2 15.2 0 0 1  532.1500000000001 486.55 L 516.95 501.75 A 15.2 15.2 0 0 0 532.1500000000001 486.55" fill="#bcf3ff"/><path d="M 532.16 501.75 A 15.2 15.2 0 0 1  547.36 486.55 L 532.16 501.75 A 15.2 15.2 0 0 0 547.36 486.55" fill="#f6fdff"/><path d="M 516.95 501.75 A 15.2 15.2 0 0 1  532.1500000000001 516.95 L 516.95 501.75 A 15.2 15.2 0 0 0 532.1500000000001 516.95" fill="#e3e9ff"/><path d="M 532.16 501.75 A 15.2 15.2 0 0 1  547.36 516.95 L 532.16 501.75 A 15.2 15.2 0 0 0 547.36 516.95" fill="#dff9ff"/><g transform="translate(547.36,486.55) scale(1.5205) rotate(0)"><rect width="20" height="10" fill="#fdffff"/></g><path d="M 0 547.36 A 30.41 30.41 0 0 1  30.41 516.95 L 0 547.36 A 30.41 30.41 0 0 0 30.41 516.95" fill="#c6f5ff"/><rect x="30.40909090909091" y="516.9545454545455" width="30.40909090909091" height="30.40909090909091" fill="#ffffff"/><path d="M 30.41 516.95 A 15.2 15.2 0 0 0 45.61 532.1500000000001 L 45.61 516.95" fill="#e1e7ff"/><g transform="translate(45.61,516.95) scale(0.76) rotate(0)"><rect width="20" height="10" fill="#f4f6ff"/></g><path d="M 30.41 532.16 A 15.2 15.2 0 0 1  45.61 547.36 L 30.41 532.16 A 15.2 15.2 0 0 0 45.61 547.36" fill="#e7fbff"/><path d="M 45.61 547.36 A 15.2 15.2 0 0 1  60.81 532.16 L 45.61 547.36 A 15.2 15.2 0 0 0 60.81 532.16" fill="#caf5ff"/><rect x="60.81818181818182" y="516.9545454545455" width="30.40909090909091" height="30.40909090909091" fill="#ffffff"/><path d="M 60.82 532.1500000000001 A 15.2 15.2 0 0 1  76.02 516.95 L 60.82 532.1500000000001 A 15.2 15.2 0 0 0 76.02 516.95" fill="#c1f4ff"/><path d="M 76.02 516.95 A 15.2 15.2 0 0 1  91.22 532.1500000000001 L 76.02 516.95 A 15.2 15.2 0 0 0 91.22 532.1500000000001" fill="#ddf9ff"/><path d="M 60.82 547.36 A 15.2 15.2 0 0 1  76.02 532.16 L 60.82 547.36 A 15.2 15.2 0 0 0 76.02 532.16" fill="#d9f8ff"/><path d="M 76.02 532.16 A 15.2 15.2 0 0 1 91.22 547.36 L 76.02 547.36" fill="#e8fbff"/><rect x="91.22727272727273" y="516.9545454545455" width="30.40909090909091" height="30.40909090909091" fill="#ffffff"/><path d="M 91.23 532.1500000000001 A 15.2 15.2 0 0 1  106.43 516.95 L 91.23 532.1500000000001 A 15.2 15.2 0 0 0 106.43 516.95" fill="#dce3ff"/><path d="M 106.43 516.95 A 15.2 15.2 0 0 1 121.63000000000001 532.1500000000001 L 106.43 532.1500000000001" fill="#dff9ff"/><g transform="translate(91.23,532.16) scale(0.76) rotate(0)"><rect width="20" height="10" fill="#bcf3ff"/></g><g transform="translate(106.43,532.16) scale(0.76) rotate(0)"><rect width="20" height="10" fill="#d9e0ff"/></g><g transform="translate(121.64,516.95) scale(1.5205) rotate(0)"><rect width="20" height="10" fill="#fafbff"/></g><path d="M 152.05 547.36 A 30.41 30.41 0 0 0 182.46 516.95 L 152.05 516.95" fill="#eef1ff"/><path d="M 182.45 547.36 A 30.41 30.41 0 0 1  212.85999999999999 516.95 L 182.45 547.36 A 30.41 30.41 0 0 0 212.85999999999999 516.95" fill="#f0fcff"/><g transform="translate(212.86,516.95) scale(1.5205) rotate(0)"><rect width="20" height="10" fill="#ffffff"/></g><rect x="273.6818181818182" y="516.9545454545455" width="30.40909090909091" height="30.40909090909091" fill="#ffffff"/><path d="M 273.68 516.95 A 15.2 15.2 0 0 1  288.88 532.1500000000001 L 273.68 516.95 A 15.2 15.2 0 0 0 288.88 532.1500000000001" fill="#e7ecff"/><path d="M 288.89 516.95 A 15.2 15.2 0 0 1  304.09 532.1500000000001 L 288.89 516.95 A 15.2 15.2 0 0 0 304.09 532.1500000000001" fill="#dde3ff"/><path d="M 273.68 547.36 A 15.2 15.2 0 0 1  288.88 532.16 L 273.68 547.36 A 15.2 15.2 0 0 0 288.88 532.16" fill="#c0f3ff"/><g transform="translate(288.89,532.16) scale(0.76) rotate(0)"><rect width="20" height="10" fill="#f8f9ff"/></g><g transform="translate(304.09,516.95) scale(1.5205) rotate(0)"><rect width="20" height="10" fill="#d7dfff"/></g><g transform="translate(334.5,516.95) scale(1.5205) rotate(0)"><rect width="20" height="10" fill="#c7f5ff"/></g><path d="M 364.91 516.95 A 30.41 30.41 0 0 1  395.32000000000005 547.36 L 364.91 516.95 A 30.41 30.41 0 0 0 395.32000000000005 547.36" fill="#f5f7ff"/><path d="M 395.32 547.36 A 30.41 30.41 0 0 1  425.73 516.95 L 395.32 547.36 A 30.41 30.41 0 0 0 425.73 516.95" fill="#f9fbff"/><g transform="translate(425.73,516.95) scale(1.5205) rotate(0)"><rect width="20" height="10" fill="#eff2ff"/></g><path d="M 456.14 516.95 A 30.41 30.41 0 0 1  486.55 547.36 L 456.14 516.95 A 30.41 30.41 0 0 0 486.55 547.36" fill="#e0e6ff"/><path d="M 486.55 516.95 A 30.41 30.41 0 0 1  516.96 547.36 L 486.55 516.95 A 30.41 30.41 0 0 0 516.96 547.36" fill="#e3faff"/><rect x="516.9545454545455" y="516.9545454545455" width="30.40909090909091" height="30.40909090909091" fill="#ffffff"/><g transform="translate(516.95,516.95) scale(0.76) rotate(0)"><rect width="20" height="10" fill="#ffffff"/></g><path d="M 532.16 516.95 A 15.2 15.2 0 0 1  547.36 532.1500000000001 L 532.16 516.95 A 15.2 15.2 0 0 0 547.36 532.1500000000001" fill="#e5eaff"/><path d="M 516.95 532.16 A 15.2 15.2 0 0 1  532.1500000000001 547.36 L 516.95 532.16 A 15.2 15.2 0 0 0 532.1500000000001 547.36" fill="#def9ff"/><g transform="translate(532.16,532.16) scale(0.76) rotate(0)"><rect width="20" height="10" fill="#e7fbff"/></g><path d="M 0 547.36 A 30.41 30.41 0 0 1  30.41 577.77 L 0 547.36 A 30.41 30.41 0 0 0 30.41 577.77" fill="#ecf0ff"/><rect x="30.40909090909091" y="547.3636363636364" width="30.40909090909091" height="30.40909090909091" fill="#ffffff"/><path d="M 30.41 562.5600000000001 A 15.2 15.2 0 0 1  45.61 547.36 L 45.61 562.5600000000001" fill="#e8edff"/><g transform="translate(45.61,547.36) scale(0.76) rotate(0)"><rect width="20" height="10" fill="#d6f8ff"/></g><path d="M 30.41 562.57 A 15.2 15.2 0 0 1  45.61 577.7700000000001 L 30.41 562.57 A 15.2 15.2 0 0 0 45.61 577.7700000000001" fill="#ebfbff"/><path d="M 45.61 562.57 A 15.2 15.2 0 0 1  60.81 577.7700000000001 L 45.61 562.57 A 15.2 15.2 0 0 0 60.81 577.7700000000001" fill="#fbfcff"/><g transform="translate(60.82,547.36) scale(1.5205) rotate(0)"><rect width="20" height="10" fill="#cbf6ff"/></g><rect x="91.22727272727273" y="547.3636363636364" width="30.40909090909091" height="30.40909090909091" fill="#ffffff"/><path d="M 91.23 547.36 A 15.2 15.2 0 0 0 106.43 562.5600000000001 L 106.43 547.36" fill="#ecfbff"/><path d="M 106.43 547.36 A 15.2 15.2 0 0 1 121.63000000000001 562.5600000000001 L 106.43 562.5600000000001" fill="#bff3ff"/><g transform="translate(91.23,562.57) scale(0.76) rotate(0)"><rect width="20" height="10" fill="#d8e0ff"/></g><path d="M 106.43 577.7700000000001 A 15.2 15.2 0 0 1  121.63000000000001 562.57 L 106.43 577.7700000000001 A 15.2 15.2 0 0 0 121.63000000000001 562.57" fill="#d5f7ff"/><g transform="translate(121.64,547.36) scale(1.5205) rotate(0)"><rect width="20" height="10" fill="#fafbff"/></g><path d="M 152.05 547.36 A 30.41 30.41 0 0 1  182.46 577.77 L 152.05 547.36 A 30.41 30.41 0 0 0 182.46 577.77" fill="#f5f7ff"/><rect x="182.45454545454547" y="547.3636363636364" width="30.40909090909091" height="30.40909090909091" fill="#ffffff"/><path d="M 182.45 562.5600000000001 A 15.2 15.2 0 0 1  197.64999999999998 547.36 L 197.64999999999998 562.5600000000001" fill="#b9f2ff"/><path d="M 197.66 562.5600000000001 A 15.2 15.2 0 0 1  212.85999999999999 547.36 L 197.66 562.5600000000001 A 15.2 15.2 0 0 0 212.85999999999999 547.36" fill="#caf5ff"/><path d="M 182.45 562.57 A 15.2 15.2 0 0 1  197.64999999999998 577.7700000000001 L 182.45 562.57 A 15.2 15.2 0 0 0 197.64999999999998 577.7700000000001" fill="#dbe2ff"/><path d="M 197.66 577.7700000000001 A 15.2 15.2 0 0 0 212.85999999999999 562.57 L 197.66 562.57" fill="#d1f7ff"/><g transform="translate(212.86,547.36) scale(1.5205) rotate(0)"><rect width="20" height="10" fill="#eff2ff"/></g><rect x="243.27272727272728" y="547.3636363636364" width="30.40909090909091" height="30.40909090909091" fill="#ffffff"/><g transform="translate(243.27,547.36) scale(0.76) rotate(0)"><rect width="20" height="10" fill="#feffff"/></g><g transform="translate(258.48,547.36) scale(0.76) rotate(0)"><rect width="20" height="10" fill="#f8feff"/></g><g transform="translate(243.27,562.57) scale(0.76) rotate(0)"><rect width="20" height="10" fill="#ecf0ff"/></g><path d="M 258.48 562.57 A 15.2 15.2 0 0 1  273.68 577.7700000000001 L 258.48 562.57 A 15.2 15.2 0 0 0 273.68 577.7700000000001" fill="#dbe2ff"/><g transform="translate(273.68,547.36) scale(1.5205) rotate(0)"><rect width="20" height="10" fill="#c2f4ff"/></g><path d="M 304.09 547.36 A 30.41 30.41 0 0 1  334.5 577.77 L 304.09 547.36 A 30.41 30.41 0 0 0 334.5 577.77" fill="#e0f9ff"/><rect x="334.5" y="547.3636363636364" width="30.40909090909091" height="30.40909090909091" fill="#ffffff"/><g transform="translate(334.5,547.36) scale(0.76) rotate(0)"><rect width="20" height="10" fill="#e4e9ff"/></g><g transform="translate(349.7,547.36) scale(0.76) rotate(0)"><rect width="20" height="10" fill="#ecfcff"/></g><g transform="translate(334.5,562.57) scale(0.76) rotate(0)"><rect width="20" height="10" fill="#e6ebff"/></g><path d="M 349.7 577.7700000000001 A 15.2 15.2 0 0 1  364.9 562.57 L 349.7 577.7700000000001 A 15.2 15.2 0 0 0 364.9 562.57" fill="#edfcff"/><path d="M 364.91 547.36 A 30.41 30.41 0 0 0 395.32000000000005 577.77 L 395.32000000000005 547.36" fill="#f7feff"/><path d="M 395.32 547.36 A 30.41 30.41 0 0 1  425.73 577.77 L 395.32 547.36 A 30.41 30.41 0 0 0 425.73 577.77" fill="#f3fdff"/><path d="M 425.73 577.77 A 30.41 30.41 0 0 1  456.14000000000004 547.36 L 425.73 577.77 A 30.41 30.41 0 0 0 456.14000000000004 547.36" fill="#fafbff"/><path d="M 456.14 547.36 A 30.41 30.41 0 0 0 486.55 577.77 L 486.55 547.36" fill="#b8f2ff"/><g transform="translate(486.55,547.36) scale(1.5205) rotate(0)"><rect width="20" height="10" fill="#feffff"/></g><g transform="translate(516.95,547.36) scale(1.5205) rotate(0)"><rect width="20" height="10" fill="#e2faff"/></g><path d="M 547.36 547.36 A 30.41 30.41 0 0 1  577.77 577.77 L 547.36 547.36 A 30.41 30.41 0 0 0 577.77 577.77" fill="#f9fbff"/><g transform="translate(0,577.77) scale(1.5205) rotate(0)"><rect width="20" height="10" fill="#fdffff"/></g><path d="M 30.41 608.18 A 30.41 30.41 0 0 1  60.82 577.77 L 30.41 608.18 A 30.41 30.41 0 0 0 60.82 577.77" fill="#e7ecff"/><path d="M 60.82 608.18 A 30.41 30.41 0 0 0 91.23 577.77 L 60.82 577.77" fill="#ddf9ff"/><rect x="91.22727272727273" y="577.7727272727273" width="30.40909090909091" height="30.40909090909091" fill="#ffffff"/><path d="M 91.23 577.77 A 15.2 15.2 0 0 1  106.43 592.97 L 91.23 577.77 A 15.2 15.2 0 0 0 106.43 592.97" fill="#e2faff"/><path d="M 106.43 592.97 A 15.2 15.2 0 0 1  121.63000000000001 577.77 L 106.43 592.97 A 15.2 15.2 0 0 0 121.63000000000001 577.77" fill="#c4f4ff"/><path d="M 91.23 608.1800000000001 A 15.2 15.2 0 0 1  106.43 592.98 L 91.23 608.1800000000001 A 15.2 15.2 0 0 0 106.43 592.98" fill="#f9faff"/><g transform="translate(106.43,592.98) scale(0.76) rotate(0)"><rect width="20" height="10" fill="#e1e7ff"/></g><path d="M 121.64 577.77 A 30.41 30.41 0 0 0 152.05 608.18 L 152.05 577.77" fill="#d6f7ff"/><rect x="152.04545454545456" y="577.7727272727273" width="30.40909090909091" height="30.40909090909091" fill="#ffffff"/><path d="M 152.05 577.77 A 15.2 15.2 0 0 0 167.25 592.97 L 167.25 577.77" fill="#fcfeff"/><g transform="translate(167.25,577.77) scale(0.76) rotate(0)"><rect width="20" height="10" fill="#e6eaff"/></g><g transform="translate(152.05,592.98) scale(0.76) rotate(0)"><rect width="20" height="10" fill="#f0f3ff"/></g><path d="M 167.25 608.1800000000001 A 15.2 15.2 0 0 1  182.45 592.98 L 167.25 608.1800000000001 A 15.2 15.2 0 0 0 182.45 592.98" fill="#eff2ff"/><rect x="182.45454545454547" y="577.7727272727273" width="30.40909090909091" height="30.40909090909091" fill="#ffffff"/><path d="M 182.45 577.77 A 15.2 15.2 0 0 1  197.64999999999998 592.97 L 182.45 577.77 A 15.2 15.2 0 0 0 197.64999999999998 592.97" fill="#b8f2ff"/><path d="M 197.66 592.97 A 15.2 15.2 0 0 1  212.85999999999999 577.77 L 197.66 592.97 A 15.2 15.2 0 0 0 212.85999999999999 577.77" fill="#e4faff"/><path d="M 182.45 592.98 A 15.2 15.2 0 0 1  197.64999999999998 608.1800000000001 L 182.45 592.98 A 15.2 15.2 0 0 0 197.64999999999998 608.1800000000001" fill="#fdffff"/><g transform="translate(197.66,592.98) scale(0.76) rotate(0)"><rect width="20" height="10" fill="#ecfbff"/></g><path d="M 212.86 577.77 A 30.41 30.41 0 0 1  243.27 608.18 L 212.86 577.77 A 30.41 30.41 0 0 0 243.27 608.18" fill="#d1f7ff"/><rect x="243.27272727272728" y="577.7727272727273" width="30.40909090909091" height="30.40909090909091" fill="#ffffff"/><g transform="translate(243.27,577.77) scale(0.76) rotate(0)"><rect width="20" height="10" fill="#edf1ff"/></g><path d="M 258.48 577.77 A 15.2 15.2 0 0 0 273.68 592.97 L 273.68 577.77" fill="#eef2ff"/><g transform="translate(243.27,592.98) scale(0.76) rotate(0)"><rect width="20" height="10" fill="#d8e0ff"/></g><path d="M 258.48 608.1800000000001 A 15.2 15.2 0 0 1  273.68 592.98 L 258.48 608.1800000000001 A 15.2 15.2 0 0 0 273.68 592.98" fill="#d9f8ff"/><path d="M 273.68 577.77 A 30.41 30.41 0 0 1  304.09000000000003 608.18 L 273.68 577.77 A 30.41 30.41 0 0 0 304.09000000000003 608.18" fill="#d3f7ff"/><rect x="304.0909090909091" y="577.7727272727273" width="30.40909090909091" height="30.40909090909091" fill="#ffffff"/><g transform="translate(304.09,577.77) scale(0.76) rotate(0)"><rect width="20" height="10" fill="#dde4ff"/></g><g transform="translate(319.3,577.77) scale(0.76) rotate(0)"><rect width="20" height="10" fill="#d8e0ff"/></g><path d="M 304.09 592.98 A 15.2 15.2 0 0 1  319.28999999999996 608.1800000000001 L 304.09 592.98 A 15.2 15.2 0 0 0 319.28999999999996 608.1800000000001" fill="#f3f5ff"/><g transform="translate(319.3,592.98) scale(0.76) rotate(0)"><rect width="20" height="10" fill="#f8feff"/></g><rect x="334.5" y="577.7727272727273" width="30.40909090909091" height="30.40909090909091" fill="#ffffff"/><path d="M 334.5 577.77 A 15.2 15.2 0 0 0 349.7 592.97 L 349.7 577.77" fill="#e3e9ff"/><path d="M 349.7 577.77 A 15.2 15.2 0 0 1  364.9 592.97 L 349.7 577.77 A 15.2 15.2 0 0 0 364.9 592.97" fill="#fafbff"/><path d="M 334.5 608.1800000000001 A 15.2 15.2 0 0 1  349.7 592.98 L 334.5 608.1800000000001 A 15.2 15.2 0 0 0 349.7 592.98" fill="#f9faff"/><path d="M 349.7 592.98 A 15.2 15.2 0 0 1 364.9 608.1800000000001 L 349.7 608.1800000000001" fill="#fdfeff"/><rect x="364.90909090909093" y="577.7727272727273" width="30.40909090909091" height="30.40909090909091" fill="#ffffff"/><path d="M 364.91 592.97 A 15.2 15.2 0 0 1  380.11 577.77 L 364.91 592.97 A 15.2 15.2 0 0 0 380.11 577.77" fill="#e8edff"/><g transform="translate(380.11,577.77) scale(0.76) rotate(0)"><rect width="20" height="10" fill="#eaeeff"/></g><path d="M 364.91 608.1800000000001 A 15.2 15.2 0 0 1  380.11 592.98 L 364.91 608.1800000000001 A 15.2 15.2 0 0 0 380.11 592.98" fill="#dbe2ff"/><path d="M 380.11 608.1800000000001 A 15.2 15.2 0 0 1  395.31 592.98 L 380.11 608.1800000000001 A 15.2 15.2 0 0 0 395.31 592.98" fill="#c5f4ff"/><rect x="395.3181818181818" y="577.7727272727273" width="30.40909090909091" height="30.40909090909091" fill="#ffffff"/><g transform="translate(395.32,577.77) scale(0.76) rotate(0)"><rect width="20" height="10" fill="#e4e9ff"/></g><path d="M 410.52 592.97 A 15.2 15.2 0 0 0 425.71999999999997 577.77 L 410.52 577.77" fill="#d8dfff"/><path d="M 395.32 592.98 A 15.2 15.2 0 0 1  410.52 608.1800000000001 L 395.32 592.98 A 15.2 15.2 0 0 0 410.52 608.1800000000001" fill="#fafbff"/><path d="M 410.52 592.98 A 15.2 15.2 0 0 1  425.71999999999997 608.1800000000001 L 410.52 592.98 A 15.2 15.2 0 0 0 425.71999999999997 608.1800000000001" fill="#dbf8ff"/><path d="M 425.73 577.77 A 30.41 30.41 0 0 1  456.14000000000004 608.18 L 425.73 577.77 A 30.41 30.41 0 0 0 456.14000000000004 608.18" fill="#fbfbff"/><path d="M 456.14 577.77 A 30.41 30.41 0 0 1 486.55 608.18 L 456.14 608.18" fill="#fbfcff"/><g transform="translate(486.55,577.77) scale(1.5205) rotate(0)"><rect width="20" height="10" fill="#e6ebff"/></g><path d="M 516.95 577.77 A 30.41 30.41 0 0 0 547.36 608.18 L 547.36 577.77" fill="#f7f9ff"/><g transform="translate(547.36,577.77) scale(1.5205) rotate(0)"><rect width="20" height="10" fill="#f5f7ff"/></g><path d="M 0 608.18 A 30.41 30.41 0 0 0 30.41 638.5899999999999 L 30.41 608.18" fill="#f4f6ff"/><path d="M 30.41 638.5899999999999 A 30.41 30.41 0 0 1  60.82 608.18 L 30.41 638.5899999999999 A 30.41 30.41 0 0 0 60.82 608.18" fill="#eaeeff"/><path d="M 60.82 608.18 A 30.41 30.41 0 0 1  91.23 638.5899999999999 L 60.82 608.18 A 30.41 30.41 0 0 0 91.23 638.5899999999999" fill="#e2e8ff"/><rect x="91.22727272727273" y="608.1818181818182" width="30.40909090909091" height="30.40909090909091" fill="#ffffff"/><g transform="translate(91.23,608.18) scale(0.76) rotate(0)"><rect width="20" height="10" fill="#fafeff"/></g><path d="M 106.43 608.18 A 15.2 15.2 0 0 1  121.63000000000001 623.38 L 106.43 608.18 A 15.2 15.2 0 0 0 121.63000000000001 623.38" fill="#eaeeff"/><path d="M 91.23 623.39 A 15.2 15.2 0 0 0 106.43 638.59 L 106.43 623.39" fill="#e5faff"/><g transform="translate(106.43,623.39) scale(0.76) rotate(0)"><rect width="20" height="10" fill="#f5f7ff"/></g><g transform="translate(121.64,608.18) scale(1.5205) rotate(0)"><rect width="20" height="10" fill="#fcffff"/></g><path d="M 152.05 638.5899999999999 A 30.41 30.41 0 0 1  182.46 608.18 L 152.05 638.5899999999999 A 30.41 30.41 0 0 0 182.46 608.18" fill="#ffffff"/><rect x="182.45454545454547" y="608.1818181818182" width="30.40909090909091" height="30.40909090909091" fill="#ffffff"/><path d="M 182.45 623.38 A 15.2 15.2 0 0 0 197.64999999999998 608.18 L 182.45 608.18" fill="#f8faff"/><g transform="translate(197.66,608.18) scale(0.76) rotate(0)"><rect width="20" height="10" fill="#edf1ff"/></g><g transform="translate(182.45,623.39) scale(0.76) rotate(0)"><rect width="20" height="10" fill="#c4f4ff"/></g><g transform="translate(197.66,623.39) scale(0.76) rotate(0)"><rect width="20" height="10" fill="#ebefff"/></g><path d="M 212.86 608.18 A 30.41 30.41 0 0 1  243.27 638.5899999999999 L 212.86 608.18 A 30.41 30.41 0 0 0 243.27 638.5899999999999" fill="#f7f8ff"/><path d="M 243.27 608.18 A 30.41 30.41 0 0 1 273.68 638.5899999999999 L 243.27 638.5899999999999" fill="#fdfdff"/><path d="M 273.68 608.18 A 30.41 30.41 0 0 1 304.09000000000003 638.5899999999999 L 273.68 638.5899999999999" fill="#bbf3ff"/><path d="M 304.09 638.5899999999999 A 30.41 30.41 0 0 1  334.5 608.18 L 304.09 638.5899999999999 A 30.41 30.41 0 0 0 334.5 608.18" fill="#f1f3ff"/><rect x="334.5" y="608.1818181818182" width="30.40909090909091" height="30.40909090909091" fill="#ffffff"/><path d="M 334.5 608.18 A 15.2 15.2 0 0 0 349.7 623.38 L 349.7 608.18" fill="#c6f5ff"/><path d="M 349.7 623.38 A 15.2 15.2 0 0 1  364.9 608.18 L 349.7 623.38 A 15.2 15.2 0 0 0 364.9 608.18" fill="#e3faff"/><g transform="translate(334.5,623.39) scale(0.76) rotate(0)"><rect width="20" height="10" fill="#e8fbff"/></g><path d="M 349.7 623.39 A 15.2 15.2 0 0 1  364.9 638.59 L 349.7 623.39 A 15.2 15.2 0 0 0 364.9 638.59" fill="#c9f5ff"/><g transform="translate(364.91,608.18) scale(1.5205) rotate(0)"><rect width="20" height="10" fill="#e0f9ff"/></g><rect x="395.3181818181818" y="608.1818181818182" width="30.40909090909091" height="30.40909090909091" fill="#ffffff"/><g transform="translate(395.32,608.18) scale(0.76) rotate(0)"><rect width="20" height="10" fill="#f9faff"/></g><path d="M 410.52 608.18 A 15.2 15.2 0 0 1 425.71999999999997 623.38 L 410.52 623.38" fill="#e7ecff"/><g transform="translate(395.32,623.39) scale(0.76) rotate(0)"><rect width="20" height="10" fill="#e1f9ff"/></g><g transform="translate(410.52,623.39) scale(0.76) rotate(0)"><rect width="20" height="10" fill="#d8e0ff"/></g><g transform="translate(425.73,608.18) scale(1.5205) rotate(0)"><rect width="20" height="10" fill="#eafbff"/></g><rect x="456.1363636363636" y="608.1818181818182" width="30.40909090909091" height="30.40909090909091" fill="#ffffff"/><g transform="translate(456.14,608.18) scale(0.76) rotate(0)"><rect width="20" height="10" fill="#bdf3ff"/></g><path d="M 471.34 608.18 A 15.2 15.2 0 0 1  486.53999999999996 623.38 L 471.34 608.18 A 15.2 15.2 0 0 0 486.53999999999996 623.38" fill="#f7f9ff"/><path d="M 456.14 623.39 A 15.2 15.2 0 0 1  471.34 638.59 L 456.14 623.39 A 15.2 15.2 0 0 0 471.34 638.59" fill="#c7f5ff"/><g transform="translate(471.34,623.39) scale(0.76) rotate(0)"><rect width="20" height="10" fill="#f3f5ff"/></g><g transform="translate(486.55,608.18) scale(1.5205) rotate(0)"><rect width="20" height="10" fill="#e6faff"/></g><rect x="516.9545454545455" y="608.1818181818182" width="30.40909090909091" height="30.40909090909091" fill="#ffffff"/><path d="M 516.95 608.18 A 15.2 15.2 0 0 1  532.1500000000001 623.38 L 516.95 608.18 A 15.2 15.2 0 0 0 532.1500000000001 623.38" fill="#c8f5ff"/><g transform="translate(532.16,608.18) scale(0.76) rotate(0)"><rect width="20" height="10" fill="#c1f4ff"/></g><path d="M 516.95 638.59 A 15.2 15.2 0 0 1  532.1500000000001 623.39 L 516.95 638.59 A 15.2 15.2 0 0 0 532.1500000000001 623.39" fill="#edf0ff"/><path d="M 532.16 623.39 A 15.2 15.2 0 0 1  547.36 638.59 L 532.16 623.39 A 15.2 15.2 0 0 0 547.36 638.59" fill="#fafeff"/><path d="M 547.36 638.5899999999999 A 30.41 30.41 0 0 1  577.77 608.18 L 547.36 638.5899999999999 A 30.41 30.41 0 0 0 577.77 608.18" fill="#f0fcff"/><path d="M 0 638.59 A 30.41 30.41 0 0 1  30.41 669 L 0 638.59 A 30.41 30.41 0 0 0 30.41 669" fill="#f7f9ff"/><path d="M 30.41 638.59 A 30.41 30.41 0 0 1  60.82 669 L 30.41 638.59 A 30.41 30.41 0 0 0 60.82 669" fill="#f6f7ff"/><rect x="60.81818181818182" y="638.5909090909091" width="30.40909090909091" height="30.40909090909091" fill="#ffffff"/><path d="M 60.82 653.7900000000001 A 15.2 15.2 0 0 1  76.02 638.59 L 60.82 653.7900000000001 A 15.2 15.2 0 0 0 76.02 638.59" fill="#d1f7ff"/><path d="M 76.02 653.7900000000001 A 15.2 15.2 0 0 1  91.22 638.59 L 76.02 653.7900000000001 A 15.2 15.2 0 0 0 91.22 638.59" fill="#d0f6ff"/><path d="M 60.82 653.8 A 15.2 15.2 0 0 0 76.02 669 L 76.02 653.8" fill="#e2e8ff"/><path d="M 76.02 669 A 15.2 15.2 0 0 1  91.22 653.8 L 76.02 669 A 15.2 15.2 0 0 0 91.22 653.8" fill="#dbe2ff"/><g transform="translate(91.23,638.59) scale(1.5205) rotate(0)"><rect width="20" height="10" fill="#e3e8ff"/></g><path d="M 121.64 669 A 30.41 30.41 0 0 0 152.05 638.59 L 121.64 638.59" fill="#fdffff"/><g transform="translate(152.05,638.59) scale(1.5205) rotate(0)"><rect width="20" height="10" fill="#f7f9ff"/></g><path d="M 182.45 638.59 A 30.41 30.41 0 0 1  212.85999999999999 669 L 182.45 638.59 A 30.41 30.41 0 0 0 212.85999999999999 669" fill="#f7f8ff"/><rect x="212.86363636363637" y="638.5909090909091" width="30.40909090909091" height="30.40909090909091" fill="#ffffff"/><g transform="translate(212.86,638.59) scale(0.76) rotate(0)"><rect width="20" height="10" fill="#eef1ff"/></g><path d="M 228.07 638.59 A 15.2 15.2 0 0 1  243.26999999999998 653.7900000000001 L 228.07 638.59 A 15.2 15.2 0 0 0 243.26999999999998 653.7900000000001" fill="#bdf3ff"/><g transform="translate(212.86,653.8) scale(0.76) rotate(0)"><rect width="20" height="10" fill="#e9fbff"/></g><g transform="translate(228.07,653.8) scale(0.76) rotate(0)"><rect width="20" height="10" fill="#f2fdff"/></g><g transform="translate(243.27,638.59) scale(1.5205) rotate(0)"><rect width="20" height="10" fill="#f9faff"/></g><path d="M 273.68 669 A 30.41 30.41 0 0 1  304.09000000000003 638.59 L 304.09000000000003 669" fill="#c7f5ff"/><g transform="translate(304.09,638.59) scale(1.5205) rotate(0)"><rect width="20" height="10" fill="#eafbff"/></g><rect x="334.5" y="638.5909090909091" width="30.40909090909091" height="30.40909090909091" fill="#ffffff"/><g transform="translate(334.5,638.59) scale(0.76) rotate(0)"><rect width="20" height="10" fill="#c0f4ff"/></g><path d="M 349.7 638.59 A 15.2 15.2 0 0 1 364.9 653.7900000000001 L 349.7 653.7900000000001" fill="#f9feff"/><path d="M 334.5 669 A 15.2 15.2 0 0 1  349.7 653.8 L 334.5 669 A 15.2 15.2 0 0 0 349.7 653.8" fill="#f8feff"/><path d="M 349.7 669 A 15.2 15.2 0 0 0 364.9 653.8 L 349.7 653.8" fill="#d9f8ff"/><path d="M 364.91 638.59 A 30.41 30.41 0 0 1  395.32000000000005 669 L 364.91 638.59 A 30.41 30.41 0 0 0 395.32000000000005 669" fill="#fafeff"/><path d="M 395.32 638.59 A 30.41 30.41 0 0 1 425.73 669 L 395.32 669" fill="#fefeff"/><rect x="425.72727272727275" y="638.5909090909091" width="30.40909090909091" height="30.40909090909091" fill="#ffffff"/><path d="M 425.73 653.7900000000001 A 15.2 15.2 0 0 1  440.93 638.59 L 425.73 653.7900000000001 A 15.2 15.2 0 0 0 440.93 638.59" fill="#b8f2ff"/><g transform="translate(440.93,638.59) scale(0.76) rotate(0)"><rect width="20" height="10" fill="#fafbff"/></g><g transform="translate(425.73,653.8) scale(0.76) rotate(0)"><rect width="20" height="10" fill="#d6f7ff"/></g><path d="M 440.93 653.8 A 15.2 15.2 0 0 1  456.13 669 L 440.93 653.8 A 15.2 15.2 0 0 0 456.13 669" fill="#d7f8ff"/><rect x="456.1363636363636" y="638.5909090909091" width="30.40909090909091" height="30.40909090909091" fill="#ffffff"/><g transform="translate(456.14,638.59) scale(0.76) rotate(0)"><rect width="20" height="10" fill="#c3f4ff"/></g><path d="M 471.34 638.59 A 15.2 15.2 0 0 1 486.53999999999996 653.7900000000001 L 471.34 653.7900000000001" fill="#f8faff"/><path d="M 456.14 669 A 15.2 15.2 0 0 1  471.34 653.8 L 456.14 669 A 15.2 15.2 0 0 0 471.34 653.8" fill="#d9e0ff"/><path d="M 471.34 669 A 15.2 15.2 0 0 1  486.53999999999996 653.8 L 471.34 669 A 15.2 15.2 0 0 0 486.53999999999996 653.8" fill="#f5fdff"/><rect x="486.54545454545456" y="638.5909090909091" width="30.40909090909091" height="30.40909090909091" fill="#ffffff"/><path d="M 486.55 638.59 A 15.2 15.2 0 0 1 501.75 653.7900000000001 L 486.55 653.7900000000001" fill="#c7f5ff"/><path d="M 501.75 638.59 A 15.2 15.2 0 0 1 516.95 653.7900000000001 L 501.75 653.7900000000001" fill="#c1f4ff"/><path d="M 486.55 653.8 A 15.2 15.2 0 0 1  501.75 669 L 486.55 653.8 A 15.2 15.2 0 0 0 501.75 669" fill="#e1e7ff"/><path d="M 501.75 653.8 A 15.2 15.2 0 0 0 516.95 669 L 516.95 653.8" fill="#c2f4ff"/><path d="M 516.95 638.59 A 30.41 30.41 0 0 1  547.36 669 L 516.95 638.59 A 30.41 30.41 0 0 0 547.36 669" fill="#d7f8ff"/><path d="M 547.36 669 A 30.41 30.41 0 0 1  577.77 638.59 L 547.36 669 A 30.41 30.41 0 0 0 577.77 638.59" fill="#cbf5ff"/></g></svg>