<?xml version="1.0" standalone="no"?><svg xmlns:xlink="http://www.w3.org/1999/xlink" xmlns="http://www.w3.org/2000/svg" viewBox="0 0 1000 625" preserveAspectRatio="xMaxYMax slice"><g transform="scale(0.7659313725490197)"><rect x="0" y="0" width="1305.6" height="816" fill="#444444"/><rect x="168.64" y="59.839999999999996" width="43.519999999999996" height="43.519999999999996" fill="#444444"/><path d="M 386.24 59.84 A 43.52 43.52 0 0 1  429.76 103.36000000000001 L 386.24 59.84 A 43.52 43.52 0 0 0 429.76 103.36000000000001" fill="#454545"/><rect x="658.24" y="59.84" width="43.52" height="43.52" fill="#8e8e8e"/><rect x="712.64" y="59.839999999999996" width="43.519999999999996" height="43.519999999999996" fill="#444444"/><rect x="734.4" y="59.84" width="21.76" height="21.76" fill="#4c4c4c"/><rect x="930.24" y="59.839999999999996" width="43.519999999999996" height="43.519999999999996" fill="#444444"/><rect x="1039.04" y="59.839999999999996" width="43.519999999999996" height="43.519999999999996" fill="#444444"/><polygon points="223.04,114.24 266.56,114.24 266.56,157.76" fill="#868686"/><polygon points="386.24,114.24 429.76,157.76 386.24,157.76" fill="#999999"/><rect x="495.03999999999996" y="114.24" width="43.519999999999996" height="43.519999999999996" fill="#444444"/><polygon points="603.84,114.24 647.36,114.24 647.36,157.76" fill="#929292"/><path d="M 767.04 114.24 A 43.52 43.52 0 0 1 810.56 157.76 L 767.04 157.76" fill="#606060"/><rect x="1039.04" y="114.24" width="43.519999999999996" height="43.519999999999996" fill="#444444"/><path d="M 1060.8 136 A 21.76 21.76 0 0 1  1082.56 157.76 L 1060.8 136 A 21.76 21.76 0 0 0 1082.56 157.76" fill="#a7a7a7"/><rect x="1202.24" y="114.24" width="43.519999999999996" height="43.519999999999996" fill="#444444"/><rect x="331.84" y="168.64" width="43.519999999999996" height="43.519999999999996" fill="#444444"/><path d="M 331.84 168.64 A 21.76 21.76 0 0 1  353.59999999999997 190.39999999999998 L 331.84 168.64 A 21.76 21.76 0 0 0 353.59999999999997 190.39999999999998" fill="#919191"/><path d="M 353.6 190.39999999999998 A 21.76 21.76 0 0 1  375.36 168.64 L 353.6 190.39999999999998 A 21.76 21.76 0 0 0 375.36 168.64" fill="#565656"/><rect x="331.84" y="190.4" width="21.76" height="21.76" fill="#767676"/><rect x="440.64" y="168.64" width="43.52" height="43.52" fill="#959595"/><path d="M 603.84 212.16 A 43.52 43.52 0 0 1  647.36 168.64 L 603.84 212.16 A 43.52 43.52 0 0 0 647.36 168.64" fill="#555555"/><rect x="658.24" y="168.64" width="43.52" height="43.52" fill="#a2a2a2"/><rect x="712.64" y="168.64" width="43.52" height="43.52" fill="#747474"/><path d="M 767.04 168.64 A 43.52 43.52 0 0 1  810.56 212.16 L 767.04 168.64 A 43.52 43.52 0 0 0 810.56 212.16" fill="#585858"/><rect x="875.84" y="168.64" width="43.52" height="43.52" fill="#929292"/><rect x="223.04" y="223.04" width="43.519999999999996" height="43.519999999999996" fill="#444444"/><polygon points="266.56,244.8 266.56,266.56 244.8,266.56" fill="#474747"/><rect x="386.24" y="223.04" width="43.519999999999996" height="43.519999999999996" fill="#444444"/><path d="M 408 223.04 A 21.76 21.76 0 0 1  429.76 244.79999999999998 L 408 223.04 A 21.76 21.76 0 0 0 429.76 244.79999999999998" fill="#696969"/><rect x="549.44" y="223.04" width="43.519999999999996" height="43.519999999999996" fill="#444444"/><polygon points="571.2,223.04 592.96,223.04 571.2,244.79999999999998" fill="#707070"/><path d="M 549.44 266.56 A 21.76 21.76 0 0 1  571.2 244.8 L 571.2 266.56" fill="#686868"/><rect x="571.2" y="244.8" width="21.76" height="21.76" fill="#a4a4a4"/><rect x="603.84" y="223.04" width="43.519999999999996" height="43.519999999999996" fill="#444444"/><path d="M 603.84 244.79999999999998 A 21.76 21.76 0 0 1  625.6 223.04 L 603.84 244.79999999999998 A 21.76 21.76 0 0 0 625.6 223.04" fill="#6e6e6e"/><path d="M 625.6 244.79999999999998 A 21.76 21.76 0 0 1  647.36 223.04 L 625.6 244.79999999999998 A 21.76 21.76 0 0 0 647.36 223.04" fill="#878787"/><path d="M 603.84 244.8 A 21.76 21.76 0 0 1  625.6 266.56 L 603.84 244.8 A 21.76 21.76 0 0 0 625.6 266.56" fill="#909090"/><polygon points="712.64,223.04 756.16,223.04 712.64,266.56" fill="#747474"/><rect x="821.44" y="223.04" width="43.519999999999996" height="43.519999999999996" fill="#444444"/><path d="M 821.44 223.04 A 21.76 21.76 0 0 1  843.2 244.79999999999998 L 821.44 223.04 A 21.76 21.76 0 0 0 843.2 244.79999999999998" fill="#979797"/><path d="M 875.84 223.04 A 43.52 43.52 0 0 1  919.36 266.56 L 875.84 223.04 A 43.52 43.52 0 0 0 919.36 266.56" fill="#767676"/><rect x="1147.84" y="223.04" width="43.519999999999996" height="43.519999999999996" fill="#444444"/><path d="M 168.64 277.44 A 43.52 43.52 0 0 0 212.16 320.96 L 212.16 277.44" fill="#5d5d5d"/><path d="M 331.84 277.44 A 43.52 43.52 0 0 0 375.35999999999996 320.96 L 375.35999999999996 277.44" fill="#5c5c5c"/><rect x="386.24" y="277.44" width="43.519999999999996" height="43.519999999999996" fill="#444444"/><rect x="386.24" y="277.44" width="21.76" height="21.76" fill="#515151"/><rect x="386.24" y="299.2" width="21.76" height="21.76" fill="#9e9e9e"/><polygon points="484.15999999999997,277.44 484.15999999999997,320.96 440.64,320.96" fill="#676767"/><rect x="495.03999999999996" y="277.44" width="43.519999999999996" height="43.519999999999996" fill="#444444"/><polygon points="516.8,277.44 538.56,277.44 516.8,299.2" fill="#717171"/><rect x="495.04" y="299.2" width="21.76" height="21.76" fill="#484848"/><path d="M 516.8 299.2 A 21.76 21.76 0 0 1  538.56 320.96 L 516.8 299.2 A 21.76 21.76 0 0 0 538.56 320.96" fill="#525252"/><rect x="549.44" y="277.44" width="43.519999999999996" height="43.519999999999996" fill="#444444"/><path d="M 549.44 299.2 A 21.76 21.76 0 0 1  571.2 277.44 L 549.44 299.2 A 21.76 21.76 0 0 0 571.2 277.44" fill="#848484"/><path d="M 549.44 299.2 A 21.76 21.76 0 0 0 571.2 320.96 L 571.2 299.2" fill="#4b4b4b"/><polygon points="571.2,299.2 592.96,299.2 571.2,320.96" fill="#8c8c8c"/><path d="M 603.84 277.44 A 43.52 43.52 0 0 0 647.36 320.96 L 647.36 277.44" fill="#717171"/><rect x="767.0400000000001" y="277.44" width="43.519999999999996" height="43.519999999999996" fill="#444444"/><path d="M 767.04 299.2 A 21.76 21.76 0 0 1  788.8 277.44 L 767.04 299.2 A 21.76 21.76 0 0 0 788.8 277.44" fill="#a2a2a2"/><path d="M 788.8 277.44 A 21.76 21.76 0 0 1  810.56 299.2 L 788.8 277.44 A 21.76 21.76 0 0 0 810.56 299.2" fill="#767676"/><polygon points="767.04,299.2 788.8,299.2 767.04,320.96" fill="#525252"/><rect x="788.8" y="299.2" width="21.76" height="21.76" fill="#999999"/><path d="M 821.44 277.44 A 43.52 43.52 0 0 1 864.96 320.96 L 821.44 320.96" fill="#989898"/><polygon points="875.84,277.44 919.36,277.44 919.36,320.96" fill="#767676"/><rect x="1039.04" y="277.44" width="43.519999999999996" height="43.519999999999996" fill="#444444"/><rect x="1060.8" y="277.44" width="21.76" height="21.76" fill="#6a6a6a"/><path d="M 1060.8 299.2 A 21.76 21.76 0 0 1  1082.56 320.96 L 1060.8 299.2 A 21.76 21.76 0 0 0 1082.56 320.96" fill="#686868"/><path d="M 1202.24 320.96 A 43.52 43.52 0 0 1  1245.76 277.44 L 1202.24 320.96 A 43.52 43.52 0 0 0 1245.76 277.44" fill="#757575"/><path d="M 168.64 375.35999999999996 A 43.52 43.52 0 0 1  212.16 331.84 L 168.64 375.35999999999996 A 43.52 43.52 0 0 0 212.16 331.84" fill="#6a6a6a"/><rect x="223.04" y="331.84" width="43.519999999999996" height="43.519999999999996" fill="#444444"/><path d="M 244.8 331.84 A 21.76 21.76 0 0 0 266.56 353.59999999999997 L 266.56 331.84" fill="#696969"/><polygon points="223.04,353.6 244.79999999999998,353.6 223.04,375.36" fill="#6c6c6c"/><rect x="386.24" y="331.84" width="43.519999999999996" height="43.519999999999996" fill="#444444"/><polygon points="408,353.6 429.76,353.6 408,375.36" fill="#919191"/><rect x="440.64" y="331.84" width="43.519999999999996" height="43.519999999999996" fill="#444444"/><polygon points="440.64,353.6 462.4,353.6 462.4,375.36" fill="#686868"/><path d="M 462.4 353.6 A 21.76 21.76 0 0 1  484.15999999999997 375.36 L 462.4 353.6 A 21.76 21.76 0 0 0 484.15999999999997 375.36" fill="#888888"/><rect x="549.44" y="331.84" width="43.519999999999996" height="43.519999999999996" fill="#444444"/><polygon points="549.44,331.84 571.2,331.84 571.2,353.59999999999997" fill="#797979"/><polygon points="592.96,331.84 592.96,353.59999999999997 571.2,353.59999999999997" fill="#494949"/><polygon points="549.44,353.6 571.2,353.6 571.2,375.36" fill="#737373"/><path d="M 571.2 353.6 A 21.76 21.76 0 0 1  592.96 375.36 L 571.2 353.6 A 21.76 21.76 0 0 0 592.96 375.36" fill="#4b4b4b"/><rect x="603.84" y="331.84" width="43.519999999999996" height="43.519999999999996" fill="#444444"/><path d="M 603.84 331.84 A 21.76 21.76 0 0 1 625.6 353.59999999999997 L 603.84 353.59999999999997" fill="#535353"/><path d="M 625.6 353.59999999999997 A 21.76 21.76 0 0 1  647.36 331.84 L 625.6 353.59999999999997 A 21.76 21.76 0 0 0 647.36 331.84" fill="#505050"/><polygon points="625.6,353.6 625.6,375.36 603.84,375.36" fill="#5a5a5a"/><rect x="625.6" y="353.6" width="21.76" height="21.76" fill="#757575"/><rect x="658.24" y="331.84" width="43.519999999999996" height="43.519999999999996" fill="#444444"/><rect x="680" y="331.84" width="21.76" height="21.76" fill="#858585"/><path d="M 658.24 353.6 A 21.76 21.76 0 0 1  680 375.36 L 658.24 353.6 A 21.76 21.76 0 0 0 680 375.36" fill="#9b9b9b"/><polygon points="680,353.6 701.76,353.6 680,375.36" fill="#4f4f4f"/><rect x="712.64" y="331.84" width="43.519999999999996" height="43.519999999999996" fill="#444444"/><rect x="712.64" y="331.84" width="21.76" height="21.76" fill="#707070"/><polygon points="734.4,331.84 756.16,331.84 756.16,353.59999999999997" fill="#6d6d6d"/><rect x="712.64" y="353.6" width="21.76" height="21.76" fill="#767676"/><path d="M 734.4 353.6 A 21.76 21.76 0 0 1  756.16 375.36 L 734.4 353.6 A 21.76 21.76 0 0 0 756.16 375.36" fill="#909090"/><polygon points="767.04,331.84 810.56,331.84 767.04,375.35999999999996" fill="#575757"/><path d="M 821.44 375.35999999999996 A 43.52 43.52 0 0 0 864.96 331.84 L 821.44 331.84" fill="#646464"/><rect x="875.84" y="331.84" width="43.519999999999996" height="43.519999999999996" fill="#444444"/><path d="M 875.84 353.59999999999997 A 21.76 21.76 0 0 1  897.6 331.84 L 897.6 353.59999999999997" fill="#4d4d4d"/><polygon points="919.36,331.84 919.36,353.59999999999997 897.6,353.59999999999997" fill="#909090"/><path d="M 875.84 375.36 A 21.76 21.76 0 0 1  897.6 353.6 L 875.84 375.36 A 21.76 21.76 0 0 0 897.6 353.6" fill="#7f7f7f"/><polygon points="897.6,353.6 919.36,353.6 897.6,375.36" fill="#8a8a8a"/><rect x="1039.04" y="331.84" width="43.519999999999996" height="43.519999999999996" fill="#444444"/><path d="M 1039.04 353.59999999999997 A 21.76 21.76 0 0 1  1060.8 331.84 L 1039.04 353.59999999999997 A 21.76 21.76 0 0 0 1060.8 331.84" fill="#535353"/><rect x="223.04" y="386.24" width="43.519999999999996" height="43.519999999999996" fill="#444444"/><rect x="223.04" y="386.24" width="21.76" height="21.76" fill="#5d5d5d"/><rect x="244.8" y="386.24" width="21.76" height="21.76" fill="#606060"/><path d="M 223.04 429.76 A 21.76 21.76 0 0 1  244.79999999999998 408 L 244.79999999999998 429.76" fill="#646464"/><path d="M 331.84 429.76 A 43.52 43.52 0 0 1  375.35999999999996 386.24 L 375.35999999999996 429.76" fill="#808080"/><rect x="386.24" y="386.24" width="43.519999999999996" height="43.519999999999996" fill="#444444"/><path d="M 386.24 386.24 A 21.76 21.76 0 0 1  408 408 L 386.24 386.24 A 21.76 21.76 0 0 0 408 408" fill="#878787"/><polygon points="429.76,408 429.76,429.76 408,429.76" fill="#a6a6a6"/><rect x="440.64" y="386.24" width="43.519999999999996" height="43.519999999999996" fill="#444444"/><path d="M 440.64 408 A 21.76 21.76 0 0 1  462.4 386.24 L 440.64 408 A 21.76 21.76 0 0 0 462.4 386.24" fill="#4e4e4e"/><path d="M 462.4 408 A 21.76 21.76 0 0 1  484.15999999999997 386.24 L 462.4 408 A 21.76 21.76 0 0 0 484.15999999999997 386.24" fill="#474747"/><path d="M 440.64 408 A 21.76 21.76 0 0 1  462.4 429.76 L 440.64 408 A 21.76 21.76 0 0 0 462.4 429.76" fill="#656565"/><polygon points="495.04,386.24 538.5600000000001,386.24 495.04,429.76" fill="#8f8f8f"/><path d="M 549.44 386.24 A 43.52 43.52 0 0 1  592.96 429.76 L 549.44 386.24 A 43.52 43.52 0 0 0 592.96 429.76" fill="#676767"/><path d="M 603.84 429.76 A 43.52 43.52 0 0 0 647.36 386.24 L 603.84 386.24" fill="#686868"/><path d="M 658.24 386.24 A 43.52 43.52 0 0 1  701.76 429.76 L 658.24 386.24 A 43.52 43.52 0 0 0 701.76 429.76" fill="#6a6a6a"/><polygon points="756.16,386.24 756.16,429.76 712.64,429.76" fill="#919191"/><path d="M 767.04 386.24 A 43.52 43.52 0 0 1  810.56 429.76 L 767.04 386.24 A 43.52 43.52 0 0 0 810.56 429.76" fill="#787878"/><polygon points="821.44,386.24 864.96,386.24 864.96,429.76" fill="#656565"/><rect x="984.64" y="386.24" width="43.519999999999996" height="43.519999999999996" fill="#444444"/><rect x="984.64" y="386.24" width="21.76" height="21.76" fill="#646464"/><polygon points="1006.4,386.24 1028.16,408 1006.4,408" fill="#4e4e4e"/><path d="M 984.64 429.76 A 21.76 21.76 0 0 1  1006.4 408 L 984.64 429.76 A 21.76 21.76 0 0 0 1006.4 408" fill="#a4a4a4"/><rect x="223.04" y="440.64" width="43.519999999999996" height="43.519999999999996" fill="#444444"/><rect x="244.8" y="462.4" width="21.76" height="21.76" fill="#767676"/><rect x="277.44" y="440.64" width="43.52" height="43.52" fill="#737373"/><rect x="331.84" y="440.64" width="43.519999999999996" height="43.519999999999996" fill="#444444"/><path d="M 331.84 440.64 A 21.76 21.76 0 0 1 353.59999999999997 462.4 L 331.84 462.4" fill="#a3a3a3"/><path d="M 353.6 440.64 A 21.76 21.76 0 0 0 375.36 462.4 L 375.36 440.64" fill="#7a7a7a"/><path d="M 331.84 484.15999999999997 A 21.76 21.76 0 0 1  353.59999999999997 462.4 L 331.84 484.15999999999997 A 21.76 21.76 0 0 0 353.59999999999997 462.4" fill="#636363"/><path d="M 353.6 462.4 A 21.76 21.76 0 0 1  375.36 484.15999999999997 L 353.6 462.4 A 21.76 21.76 0 0 0 375.36 484.15999999999997" fill="#8a8a8a"/><rect x="386.24" y="440.64" width="43.519999999999996" height="43.519999999999996" fill="#444444"/><path d="M 386.24 462.4 A 21.76 21.76 0 0 1  408 440.64 L 386.24 462.4 A 21.76 21.76 0 0 0 408 440.64" fill="#5e5e5e"/><path d="M 408 462.4 A 21.76 21.76 0 0 1  429.76 440.64 L 408 462.4 A 21.76 21.76 0 0 0 429.76 440.64" fill="#a3a3a3"/><polygon points="386.24,462.4 408,484.15999999999997 386.24,484.15999999999997" fill="#7f7f7f"/><path d="M 408 462.4 A 21.76 21.76 0 0 1  429.76 484.15999999999997 L 408 462.4 A 21.76 21.76 0 0 0 429.76 484.15999999999997" fill="#818181"/><rect x="440.64" y="440.64" width="43.519999999999996" height="43.519999999999996" fill="#444444"/><rect x="462.4" y="440.64" width="21.76" height="21.76" fill="#535353"/><polygon points="462.4,462.4 484.15999999999997,484.15999999999997 462.4,484.15999999999997" fill="#545454"/><path d="M 495.04 484.15999999999997 A 43.52 43.52 0 0 1  538.5600000000001 440.64 L 495.04 484.15999999999997 A 43.52 43.52 0 0 0 538.5600000000001 440.64" fill="#636363"/><rect x="549.44" y="440.64" width="43.519999999999996" height="43.519999999999996" fill="#444444"/><rect x="549.44" y="440.64" width="21.76" height="21.76" fill="#5c5c5c"/><path d="M 571.2 462.4 A 21.76 21.76 0 0 1  592.96 440.64 L 571.2 462.4 A 21.76 21.76 0 0 0 592.96 440.64" fill="#7b7b7b"/><path d="M 549.44 484.15999999999997 A 21.76 21.76 0 0 1  571.2 462.4 L 549.44 484.15999999999997 A 21.76 21.76 0 0 0 571.2 462.4" fill="#464646"/><path d="M 571.2 484.15999999999997 A 21.76 21.76 0 0 1  592.96 462.4 L 571.2 484.15999999999997 A 21.76 21.76 0 0 0 592.96 462.4" fill="#606060"/><polygon points="647.36,440.64 647.36,484.15999999999997 603.84,484.15999999999997" fill="#464646"/><polygon points="701.76,440.64 701.76,484.15999999999997 658.24,484.15999999999997" fill="#939393"/><rect x="712.64" y="440.64" width="43.519999999999996" height="43.519999999999996" fill="#444444"/><path d="M 712.64 440.64 A 21.76 21.76 0 0 1 734.4 462.4 L 712.64 462.4" fill="#898989"/><path d="M 734.4 440.64 A 21.76 21.76 0 0 1 756.16 462.4 L 734.4 462.4" fill="#939393"/><rect x="712.64" y="462.4" width="21.76" height="21.76" fill="#696969"/><path d="M 734.4 462.4 A 21.76 21.76 0 0 0 756.16 484.15999999999997 L 756.16 462.4" fill="#7c7c7c"/><rect x="767.0400000000001" y="440.64" width="43.519999999999996" height="43.519999999999996" fill="#444444"/><path d="M 767.04 440.64 A 21.76 21.76 0 0 1  788.8 462.4 L 767.04 440.64 A 21.76 21.76 0 0 0 788.8 462.4" fill="#787878"/><rect x="788.8" y="440.64" width="21.76" height="21.76" fill="#787878"/><path d="M 767.04 462.4 A 21.76 21.76 0 0 1 788.8 484.15999999999997 L 767.04 484.15999999999997" fill="#979797"/><path d="M 788.8 462.4 A 21.76 21.76 0 0 1  810.56 484.15999999999997 L 788.8 462.4 A 21.76 21.76 0 0 0 810.56 484.15999999999997" fill="#606060"/><rect x="821.44" y="440.64" width="43.52" height="43.52" fill="#464646"/><rect x="930.24" y="440.64" width="43.519999999999996" height="43.519999999999996" fill="#444444"/><rect x="930.24" y="440.64" width="21.76" height="21.76" fill="#898989"/><path d="M 930.24 484.15999999999997 A 21.76 21.76 0 0 0 952 462.4 L 930.24 462.4" fill="#757575"/><path d="M 952 462.4 A 21.76 21.76 0 0 1  973.76 484.15999999999997 L 952 462.4 A 21.76 21.76 0 0 0 973.76 484.15999999999997" fill="#929292"/><rect x="984.64" y="440.64" width="43.519999999999996" height="43.519999999999996" fill="#444444"/><path d="M 984.64 440.64 A 21.76 21.76 0 0 1  1006.4 462.4 L 984.64 440.64 A 21.76 21.76 0 0 0 1006.4 462.4" fill="#575757"/><path d="M 984.64 484.15999999999997 A 21.76 21.76 0 0 1  1006.4 462.4 L 1006.4 484.15999999999997" fill="#464646"/><path d="M 1006.4 484.15999999999997 A 21.76 21.76 0 0 1  1028.16 462.4 L 1006.4 484.15999999999997 A 21.76 21.76 0 0 0 1028.16 462.4" fill="#6a6a6a"/><rect x="1039.04" y="440.64" width="43.519999999999996" height="43.519999999999996" fill="#444444"/><path d="M 1039.04 440.64 A 21.76 21.76 0 0 1  1060.8 462.4 L 1039.04 440.64 A 21.76 21.76 0 0 0 1060.8 462.4" fill="#8c8c8c"/><path d="M 1039.04 462.4 A 21.76 21.76 0 0 1  1060.8 484.15999999999997 L 1039.04 462.4 A 21.76 21.76 0 0 0 1060.8 484.15999999999997" fill="#909090"/><path d="M 59.84 495.04 A 43.52 43.52 0 0 1  103.36000000000001 538.5600000000001 L 59.84 495.04 A 43.52 43.52 0 0 0 103.36000000000001 538.5600000000001" fill="#6c6c6c"/><path d="M 331.84 538.5600000000001 A 43.52 43.52 0 0 1  375.35999999999996 495.04 L 331.84 538.5600000000001 A 43.52 43.52 0 0 0 375.35999999999996 495.04" fill="#9d9d9d"/><rect x="386.24" y="495.03999999999996" width="43.519999999999996" height="43.519999999999996" fill="#444444"/><rect x="408" y="495.04" width="21.76" height="21.76" fill="#7f7f7f"/><rect x="440.64" y="495.03999999999996" width="43.519999999999996" height="43.519999999999996" fill="#444444"/><polygon points="484.15999999999997,495.04 484.15999999999997,516.8000000000001 462.4,516.8000000000001" fill="#505050"/><polygon points="462.4,516.8 462.4,538.56 440.64,538.56" fill="#797979"/><rect x="549.44" y="495.03999999999996" width="43.519999999999996" height="43.519999999999996" fill="#444444"/><rect x="549.44" y="495.04" width="21.76" height="21.76" fill="#7c7c7c"/><rect x="571.2" y="495.04" width="21.76" height="21.76" fill="#a5a5a5"/><path d="M 549.44 538.56 A 21.76 21.76 0 0 0 571.2 516.8 L 549.44 516.8" fill="#727272"/><path d="M 571.2 538.56 A 21.76 21.76 0 0 1  592.96 516.8 L 571.2 538.56 A 21.76 21.76 0 0 0 592.96 516.8" fill="#4e4e4e"/><polygon points="603.84,495.04 647.36,538.5600000000001 603.84,538.5600000000001" fill="#949494"/><rect x="658.24" y="495.03999999999996" width="43.519999999999996" height="43.519999999999996" fill="#444444"/><rect x="658.24" y="495.04" width="21.76" height="21.76" fill="#595959"/><path d="M 680 516.8000000000001 A 21.76 21.76 0 0 1  701.76 495.04 L 680 516.8000000000001 A 21.76 21.76 0 0 0 701.76 495.04" fill="#474747"/><rect x="658.24" y="516.8" width="21.76" height="21.76" fill="#4c4c4c"/><polygon points="680,516.8 701.76,538.56 680,538.56" fill="#6f6f6f"/><rect x="712.64" y="495.03999999999996" width="43.519999999999996" height="43.519999999999996" fill="#444444"/><path d="M 712.64 516.8000000000001 A 21.76 21.76 0 0 1  734.4 495.04 L 712.64 516.8000000000001 A 21.76 21.76 0 0 0 734.4 495.04" fill="#909090"/><rect x="734.4" y="495.04" width="21.76" height="21.76" fill="#878787"/><path d="M 712.64 538.56 A 21.76 21.76 0 0 0 734.4 516.8 L 712.64 516.8" fill="#868686"/><path d="M 734.4 516.8 A 21.76 21.76 0 0 0 756.16 538.56 L 756.16 516.8" fill="#747474"/><polygon points="810.56,495.04 810.56,538.5600000000001 767.04,538.5600000000001" fill="#8e8e8e"/><rect x="821.44" y="495.04" width="43.52" height="43.52" fill="#585858"/><rect x="875.84" y="495.03999999999996" width="43.519999999999996" height="43.519999999999996" fill="#444444"/><rect x="875.84" y="495.04" width="21.76" height="21.76" fill="#6a6a6a"/><polygon points="897.6,495.04 919.36,495.04 919.36,516.8000000000001" fill="#858585"/><polygon points="897.6,516.8 897.6,538.56 875.84,538.56" fill="#949494"/><path d="M 897.6 516.8 A 21.76 21.76 0 0 1 919.36 538.56 L 897.6 538.56" fill="#555555"/><rect x="930.24" y="495.04" width="43.52" height="43.52" fill="#959595"/><rect x="984.64" y="495.03999999999996" width="43.519999999999996" height="43.519999999999996" fill="#444444"/><path d="M 984.64 516.8000000000001 A 21.76 21.76 0 0 1  1006.4 495.04 L 984.64 516.8000000000001 A 21.76 21.76 0 0 0 1006.4 495.04" fill="#575757"/><path d="M 984.64 516.8 A 21.76 21.76 0 0 1  1006.4 538.56 L 984.64 516.8 A 21.76 21.76 0 0 0 1006.4 538.56" fill="#aaaaaa"/><rect x="1006.4" y="516.8" width="21.76" height="21.76" fill="#6a6a6a"/><path d="M 440.64 549.44 A 43.52 43.52 0 0 1 484.15999999999997 592.96 L 440.64 592.96" fill="#818181"/><rect x="495.03999999999996" y="549.44" width="43.519999999999996" height="43.519999999999996" fill="#444444"/><rect x="516.8" y="549.44" width="21.76" height="21.76" fill="#8d8d8d"/><path d="M 516.8 571.2 A 21.76 21.76 0 0 0 538.56 592.96 L 538.56 571.2" fill="#484848"/><rect x="549.44" y="549.44" width="43.519999999999996" height="43.519999999999996" fill="#444444"/><polygon points="571.2,549.44 571.2,571.2 549.44,571.2" fill="#7a7a7a"/><path d="M 571.2 571.2 A 21.76 21.76 0 0 1  592.96 549.44 L 571.2 571.2 A 21.76 21.76 0 0 0 592.96 549.44" fill="#727272"/><polygon points="603.84,549.44 647.36,549.44 603.84,592.96" fill="#8c8c8c"/><path d="M 658.24 592.96 A 43.52 43.52 0 0 1  701.76 549.44 L 658.24 592.96 A 43.52 43.52 0 0 0 701.76 549.44" fill="#848484"/><rect x="712.64" y="549.44" width="43.519999999999996" height="43.519999999999996" fill="#444444"/><path d="M 734.4 549.44 A 21.76 21.76 0 0 1  756.16 571.2 L 734.4 549.44 A 21.76 21.76 0 0 0 756.16 571.2" fill="#7d7d7d"/><polygon points="712.64,571.2 734.4,571.2 712.64,592.96" fill="#878787"/><rect x="734.4" y="571.2" width="21.76" height="21.76" fill="#949494"/><rect x="767.04" y="549.44" width="43.52" height="43.52" fill="#686868"/><rect x="821.44" y="549.44" width="43.52" height="43.52" fill="#636363"/><path d="M 875.84 549.44 A 43.52 43.52 0 0 1  919.36 592.96 L 875.84 549.44 A 43.52 43.52 0 0 0 919.36 592.96" fill="#767676"/><rect x="984.64" y="549.44" width="43.519999999999996" height="43.519999999999996" fill="#444444"/><polygon points="1006.4,571.2 1028.16,592.96 1006.4,592.96" fill="#828282"/><polygon points="1039.04,549.44 1082.56,549.44 1082.56,592.96" fill="#737373"/><rect x="1256.64" y="549.44" width="43.519999999999996" height="43.519999999999996" fill="#444444"/><rect x="440.64" y="603.84" width="43.519999999999996" height="43.519999999999996" fill="#444444"/><rect x="462.4" y="603.84" width="21.76" height="21.76" fill="#999999"/><path d="M 440.64 647.36 A 21.76 21.76 0 0 1  462.4 625.6 L 440.64 647.36 A 21.76 21.76 0 0 0 462.4 625.6" fill="#888888"/><rect x="549.44" y="603.84" width="43.52" height="43.52" fill="#7f7f7f"/><rect x="603.84" y="603.84" width="43.519999999999996" height="43.519999999999996" fill="#444444"/><path d="M 603.84 625.6 A 21.76 21.76 0 0 1  625.6 603.84 L 603.84 625.6 A 21.76 21.76 0 0 0 625.6 603.84" fill="#4f4f4f"/><rect x="625.6" y="603.84" width="21.76" height="21.76" fill="#4a4a4a"/><path d="M 603.84 647.36 A 21.76 21.76 0 0 1  625.6 625.6 L 603.84 647.36 A 21.76 21.76 0 0 0 625.6 625.6" fill="#575757"/><polygon points="701.76,603.84 701.76,647.36 658.24,647.36" fill="#6d6d6d"/><path d="M 712.64 647.36 A 43.52 43.52 0 0 1  756.16 603.84 L 712.64 647.36 A 43.52 43.52 0 0 0 756.16 603.84" fill="#858585"/><rect x="767.0400000000001" y="603.84" width="43.519999999999996" height="43.519999999999996" fill="#444444"/><rect x="767.04" y="603.84" width="21.76" height="21.76" fill="#7c7c7c"/><polygon points="810.56,625.6 810.56,647.36 788.8,647.36" fill="#5c5c5c"/><rect x="821.44" y="603.84" width="43.519999999999996" height="43.519999999999996" fill="#444444"/><path d="M 875.84 603.84 A 43.52 43.52 0 0 1  919.36 647.36 L 875.84 603.84 A 43.52 43.52 0 0 0 919.36 647.36" fill="#717171"/><rect x="930.24" y="603.84" width="43.52" height="43.52" fill="#7e7e7e"/><path d="M 1093.44 603.84 A 43.52 43.52 0 0 1  1136.96 647.36 L 1093.44 603.84 A 43.52 43.52 0 0 0 1136.96 647.36" fill="#888888"/><rect x="331.84" y="658.24" width="43.519999999999996" height="43.519999999999996" fill="#444444"/><rect x="386.24" y="658.24" width="43.519999999999996" height="43.519999999999996" fill="#444444"/><path d="M 408 680 A 21.76 21.76 0 0 0 429.76 658.24 L 408 658.24" fill="#454545"/><path d="M 495.04 701.76 A 43.52 43.52 0 0 1  538.5600000000001 658.24 L 495.04 701.76 A 43.52 43.52 0 0 0 538.5600000000001 658.24" fill="#505050"/><polygon points="549.44,658.24 592.96,658.24 549.44,701.76" fill="#626262"/><path d="M 603.84 701.76 A 43.52 43.52 0 0 1  647.36 658.24 L 647.36 701.76" fill="#525252"/><rect x="930.24" y="658.24" width="43.519999999999996" height="43.519999999999996" fill="#444444"/><polygon points="930.24,658.24 952,680 930.24,680" fill="#606060"/><rect x="712.64" y="712.64" width="43.519999999999996" height="43.519999999999996" fill="#444444"/><path d="M 734.4 734.4 A 21.76 21.76 0 0 1  756.16 756.16 L 734.4 734.4 A 21.76 21.76 0 0 0 756.16 756.16" fill="#888888"/><rect x="984.64" y="767.0400000000001" width="43.519999999999996" height="43.519999999999996" fill="#444444"/><polygon points="1006.4,788.8 1028.16,810.56 1006.4,810.56" fill="#565656"/></g></svg>