<?xml version="1.0" standalone="no"?><svg xmlns:xlink="http://www.w3.org/1999/xlink" xmlns="http://www.w3.org/2000/svg" viewBox="0 0 1000 558.8272146347575" preserveAspectRatio="xMaxYMax slice"><g transform="scale(0.8353172117111473)"><rect x="0" y="0" width="1197.157894736842" height="669" fill="#404040"/><path d="M 14.08 21.12 A 7.04 7.04 0 0 1  21.12 14.08 L 14.08 21.12 A 7.04 7.04 0 0 0 21.12 14.08" fill="#4f4f4f"/><rect x="436.61052631578946" y="14.08421052631579" width="7.042105263157893" height="7.042105263157893" fill="#404040"/><circle cx="545.76" cy="17.6" r="3.52" fill="#505050"/><rect x="929.5578947368421" y="14.08421052631579" width="7.042105263157893" height="7.042105263157893" fill="#404040"/><circle cx="934.84" cy="15.84" r="1.76" fill="#505050"/><rect x="365.29994459833796" y="48.405207756232684" width="8.821163434903045" height="8.821163434903045" fill="#404040"/><path d="M 717.41 48.41 A 8.82 8.82 0 0 1  726.23 57.23 L 717.41 48.41 A 8.82 8.82 0 0 0 726.23 57.23" fill="#505050"/><path d="M 858.25 57.23 A 8.82 8.82 0 0 1  867.07 48.41 L 858.25 57.23 A 8.82 8.82 0 0 0 867.07 48.41" fill="#4e4e4e"/><circle cx="1144.3400000000001" cy="52.81999999999999" r="4.41" fill="#505050"/><rect x="47.51567867036011" y="82.72620498614958" width="10.600221606648198" height="10.600221606648198" fill="#404040"/><g transform="translate(47.52,88.03) scale(0.265) rotate(0)"><rect width="20" height="10" fill="#4c4c4c"/></g><path d="M 117.94 93.33 A 10.6 10.6 0 0 1  128.54 82.73 L 117.94 93.33 A 10.6 10.6 0 0 0 128.54 82.73" fill="#484848"/><path d="M 364.41 93.33 A 10.6 10.6 0 0 1  375.01000000000005 82.73 L 364.41 93.33 A 10.6 10.6 0 0 0 375.01000000000005 82.73" fill="#4b4b4b"/><circle cx="651.39" cy="88.03" r="5.3" fill="#474747"/><circle cx="1144.34" cy="88.03" r="5.3" fill="#414141"/><g transform="translate(117.05,117.05) scale(0.619) rotate(0)"><rect width="20" height="10" fill="#454545"/></g><circle cx="334.5" cy="123.24" r="6.19" fill="#494949"/><path d="M 1032.52 117.05 A 12.38 12.38 0 0 1  1044.9 129.43 L 1032.52 117.05 A 12.38 12.38 0 0 0 1044.9 129.43" fill="#5b5b5b"/><circle cx="123.24" cy="158.45000000000002" r="7.08" fill="#4e4e4e"/><g transform="translate(397.84,151.37) scale(0.708) rotate(0)"><rect width="20" height="10" fill="#424242"/></g><g transform="translate(573.89,151.37) scale(0.708) rotate(0)"><rect width="20" height="10" fill="#515151"/></g><path d="M 820.37 165.53 A 14.16 14.16 0 0 1  834.53 151.37 L 820.37 165.53 A 14.16 14.16 0 0 0 834.53 151.37" fill="#5d5d5d"/><circle cx="1003.5" cy="158.45000000000002" r="7.08" fill="#505050"/><circle cx="827.45" cy="193.66" r="7.97" fill="#4b4b4b"/><circle cx="862.6600000000001" cy="193.66" r="7.97" fill="#494949"/><rect x="925.1102493074792" y="185.6891966759003" width="15.937396121883655" height="15.937396121883655" fill="#404040"/><g transform="translate(1030.74,185.69) scale(0.7969999999999999) rotate(0)"><rect width="20" height="10" fill="#505050"/></g><rect x="1101.1628808864266" y="185.6891966759003" width="15.937396121883655" height="15.937396121883655" fill="#404040"/><path d="M 114.38 237.73 A 17.72 17.72 0 0 1  132.1 220.01 L 114.38 237.73 A 17.72 17.72 0 0 0 132.1 220.01" fill="#444444"/><circle cx="721.82" cy="228.87" r="8.86" fill="#4a4a4a"/><rect x="748.1680886426593" y="220.01019390581715" width="17.716454293628807" height="17.716454293628807" fill="#404040"/><path d="M 757.03 228.87 A 8.86 8.86 0 0 1  765.89 220.01 L 757.03 228.87 A 8.86 8.86 0 0 0 765.89 220.01" fill="#474747"/><path d="M 924.22 237.73 A 17.72 17.72 0 0 1  941.94 220.01 L 924.22 237.73 A 17.72 17.72 0 0 0 941.94 220.01" fill="#414141"/><g transform="translate(43.07,254.33) scale(0.975) rotate(0)"><rect width="20" height="10" fill="#5f5f5f"/></g><circle cx="545.77" cy="264.08000000000004" r="9.75" fill="#5d5d5d"/><g transform="translate(499.92,288.65) scale(1.0635) rotate(0)"><rect width="20" height="10" fill="#595959"/></g><g transform="translate(570.34,288.65) scale(1.0635) rotate(0)"><rect width="20" height="10" fill="#414141"/></g><path d="M 711.18 288.65 A 21.27 21.27 0 0 1  732.4499999999999 309.91999999999996 L 711.18 288.65 A 21.27 21.27 0 0 0 732.4499999999999 309.91999999999996" fill="#4d4d4d"/><g transform="translate(1098.49,288.65) scale(1.0635) rotate(0)"><rect width="20" height="10" fill="#545454"/></g><g transform="translate(76.5,322.97) scale(1.1525) rotate(0)"><rect width="20" height="10" fill="#484848"/></g><g transform="translate(217.34,322.97) scale(1.1525) rotate(0)"><rect width="20" height="10" fill="#4b4b4b"/></g><g transform="translate(393.39,322.97) scale(1.1525) rotate(0)"><rect width="20" height="10" fill="#5d5d5d"/></g><path d="M 534.24 322.97 A 23.05 23.05 0 0 1  557.29 346.02000000000004 L 534.24 322.97 A 23.05 23.05 0 0 0 557.29 346.02000000000004" fill="#525252"/><circle cx="651.395" cy="334.495" r="11.525" fill="#484848"/><circle cx="1073.9150000000002" cy="334.495" r="11.525" fill="#4c4c4c"/><circle cx="158.445" cy="369.70500000000004" r="12.415" fill="#474747"/><rect x="498.13628808864263" y="357.29418282548477" width="24.832686980609417" height="24.832686980609417" fill="#404040"/><path d="M 498.14 369.71000000000004 A 12.42 12.42 0 0 1  510.56 357.29 L 498.14 369.71000000000004 A 12.42 12.42 0 0 0 510.56 357.29" fill="#484848"/><circle cx="616.185" cy="404.925" r="13.305" fill="#484848"/><g transform="translate(1166.25,391.62) scale(1.3305) rotate(0)"><rect width="20" height="10" fill="#595959"/></g><g transform="translate(144.25,425.94) scale(1.4195) rotate(0)"><rect width="20" height="10" fill="#4a4a4a"/></g><circle cx="228.86499999999998" cy="440.135" r="14.195" fill="#424242"/><path d="M 355.52 425.94 A 28.39 28.39 0 0 1  383.90999999999997 454.33 L 355.52 425.94 A 28.39 28.39 0 0 0 383.90999999999997 454.33" fill="#474747"/><circle cx="792.235" cy="440.135" r="14.195" fill="#404040"/><rect x="883.6730193905817" y="425.93617728531854" width="28.39080332409972" height="28.39080332409972" fill="#404040"/><rect x="319.41506925207756" y="460.2571745152354" width="30.169861495844874" height="30.169861495844874" fill="#404040"/><circle cx="616.1850000000001" cy="475.34499999999997" r="15.085" fill="#5b5b5b"/><rect x="636.3098060941828" y="460.2571745152354" width="30.169861495844874" height="30.169861495844874" fill="#404040"/><circle cx="643.8499999999999" cy="467.8" r="7.54" fill="#4c4c4c"/><g transform="translate(636.31,475.34) scale(0.754) rotate(0)"><rect width="20" height="10" fill="#5e5e5e"/></g><g transform="translate(671.52,460.26) scale(1.5085000000000002) rotate(0)"><rect width="20" height="10" fill="#4b4b4b"/></g><path d="M 777.15 460.26 A 30.17 30.17 0 0 1  807.3199999999999 490.43 L 777.15 460.26 A 30.17 30.17 0 0 0 807.3199999999999 490.43" fill="#4c4c4c"/><path d="M 318.53 494.58 A 31.95 31.95 0 0 1  350.47999999999996 526.53 L 318.53 494.58 A 31.95 31.95 0 0 0 350.47999999999996 526.53" fill="#4f4f4f"/><circle cx="1144.3449999999998" cy="510.555" r="15.975" fill="#4b4b4b"/><g transform="translate(35.95,528.9) scale(1.6864999999999999) rotate(0)"><rect width="20" height="10" fill="#404040"/></g><circle cx="580.975" cy="545.765" r="16.865" fill="#4f4f4f"/><circle cx="686.605" cy="545.765" r="16.865" fill="#414141"/><circle cx="264.075" cy="580.975" r="17.605" fill="#545454"/><rect x="352.10526315789474" y="563.3684210526316" width="35.21052631578947" height="35.21052631578947" fill="#404040"/><circle cx="360.915" cy="589.775" r="8.805" fill="#5f5f5f"/><rect x="598.578947368421" y="563.3684210526316" width="35.21052631578947" height="35.21052631578947" fill="#404040"/><g transform="translate(616.18,563.37) scale(0.8805) rotate(0)"><rect width="20" height="10" fill="#606060"/></g><circle cx="624.9849999999999" cy="589.775" r="8.805" fill="#474747"/><g transform="translate(704.21,563.37) scale(1.7605) rotate(0)"><rect width="20" height="10" fill="#5b5b5b"/></g><circle cx="827.445" cy="580.975" r="17.605" fill="#464646"/><circle cx="1003.495" cy="580.975" r="17.605" fill="#5d5d5d"/><g transform="translate(352.11,598.58) scale(1.7605) rotate(0)"><rect width="20" height="10" fill="#4a4a4a"/></g><g transform="translate(457.74,598.58) scale(1.7605) rotate(0)"><rect width="20" height="10" fill="#4e4e4e"/></g><circle cx="757.025" cy="616.1850000000001" r="17.605" fill="#434343"/><circle cx="968.285" cy="616.1850000000001" r="17.605" fill="#545454"/><g transform="translate(1161.95,633.79) scale(1.7605) rotate(0)"><rect width="20" height="10" fill="#474747"/></g></g></svg>