<?xml version="1.0" standalone="no"?><svg xmlns:xlink="http://www.w3.org/1999/xlink" xmlns="http://www.w3.org/2000/svg" viewBox="0 0 1000 714.2857142857142" preserveAspectRatio="xMaxYMax slice"><g transform="scale(0.8753501400560223)"><rect x="0" y="0" width="1196.8" height="816" fill="#ffffff"/><rect x="549.44" y="59.84" width="43.52" height="43.52" fill="#ffffff"/><rect x="712.64" y="59.839999999999996" width="43.519999999999996" height="43.519999999999996" fill="#ffffff"/><rect x="712.64" y="59.84" width="21.76" height="21.76" fill="#eeeeee"/><path d="M 223.04 114.24 A 43.52 43.52 0 0 1  266.56 157.76 L 223.04 114.24 A 43.52 43.52 0 0 0 266.56 157.76" fill="#b4b4b4"/><rect x="603.84" y="114.24" width="43.519999999999996" height="43.519999999999996" fill="#ffffff"/><rect x="767.0400000000001" y="114.24" width="43.519999999999996" height="43.519999999999996" fill="#ffffff"/><rect x="875.84" y="114.24" width="43.519999999999996" height="43.519999999999996" fill="#ffffff"/><path d="M 897.6 114.24 A 21.76 21.76 0 0 1 919.36 136 L 897.6 136" fill="#cecece"/><rect x="984.64" y="114.24" width="43.52" height="43.52" fill="#f3f3f3"/><rect x="386.24" y="168.64" width="43.519999999999996" height="43.519999999999996" fill="#ffffff"/><polygon points="386.24,168.64 408,168.64 386.24,190.39999999999998" fill="#f5f5f5"/><polygon points="408,168.64 429.76,168.64 408,190.39999999999998" fill="#aaaaaa"/><path d="M 440.64 168.64 A 43.52 43.52 0 0 1  484.15999999999997 212.16 L 440.64 168.64 A 43.52 43.52 0 0 0 484.15999999999997 212.16" fill="#e6e6e6"/><path d="M 549.44 212.16 A 43.52 43.52 0 0 1  592.96 168.64 L 549.44 212.16 A 43.52 43.52 0 0 0 592.96 168.64" fill="#b2b2b2"/><rect x="603.84" y="168.64" width="43.519999999999996" height="43.519999999999996" fill="#ffffff"/><path d="M 625.6 190.39999999999998 A 21.76 21.76 0 0 1  647.36 168.64 L 625.6 190.39999999999998 A 21.76 21.76 0 0 0 647.36 168.64" fill="#b6b6b6"/><rect x="658.24" y="168.64" width="43.52" height="43.52" fill="#ececec"/><path d="M 712.64 168.64 A 43.52 43.52 0 0 1  756.16 212.16 L 712.64 168.64 A 43.52 43.52 0 0 0 756.16 212.16" fill="#ebebeb"/><polygon points="919.36,168.64 919.36,212.16 875.84,212.16" fill="#b1b1b1"/><polygon points="930.24,168.64 973.76,212.16 930.24,212.16" fill="#c3c3c3"/><polygon points="157.76,223.04 157.76,266.56 114.24,266.56" fill="#b7b7b7"/><path d="M 277.44 266.56 A 43.52 43.52 0 0 1  320.96 223.04 L 277.44 266.56 A 43.52 43.52 0 0 0 320.96 223.04" fill="#dbdbdb"/><polygon points="331.84,223.04 375.35999999999996,223.04 375.35999999999996,266.56" fill="#acacac"/><path d="M 386.24 266.56 A 43.52 43.52 0 0 1  429.76 223.04 L 429.76 266.56" fill="#a0a0a0"/><rect x="440.64" y="223.04" width="43.519999999999996" height="43.519999999999996" fill="#ffffff"/><rect x="495.03999999999996" y="223.04" width="43.519999999999996" height="43.519999999999996" fill="#ffffff"/><polygon points="495.04,223.04 516.8000000000001,244.79999999999998 495.04,244.79999999999998" fill="#e6e6e6"/><path d="M 495.04 266.56 A 21.76 21.76 0 0 1  516.8000000000001 244.8 L 516.8000000000001 266.56" fill="#cdcdcd"/><path d="M 516.8 266.56 A 21.76 21.76 0 0 0 538.56 244.8 L 516.8 244.8" fill="#dadada"/><path d="M 658.24 223.04 A 43.52 43.52 0 0 1  701.76 266.56 L 658.24 223.04 A 43.52 43.52 0 0 0 701.76 266.56" fill="#c4c4c4"/><rect x="712.64" y="223.04" width="43.519999999999996" height="43.519999999999996" fill="#ffffff"/><path d="M 734.4 223.04 A 21.76 21.76 0 0 1 756.16 244.79999999999998 L 734.4 244.79999999999998" fill="#dfdfdf"/><path d="M 712.64 244.8 A 21.76 21.76 0 0 1  734.4 266.56 L 712.64 244.8 A 21.76 21.76 0 0 0 734.4 266.56" fill="#f4f4f4"/><path d="M 734.4 266.56 A 21.76 21.76 0 0 1  756.16 244.8 L 756.16 266.56" fill="#d2d2d2"/><polygon points="767.04,223.04 810.56,223.04 810.56,266.56" fill="#fdfdfd"/><path d="M 821.44 223.04 A 43.52 43.52 0 0 1 864.96 266.56 L 821.44 266.56" fill="#ebebeb"/><rect x="1039.04" y="223.04" width="43.519999999999996" height="43.519999999999996" fill="#ffffff"/><rect x="386.24" y="277.44" width="43.519999999999996" height="43.519999999999996" fill="#ffffff"/><polygon points="386.24,277.44 408,277.44 408,299.2" fill="#d3d3d3"/><path d="M 408 299.2 A 21.76 21.76 0 0 0 429.76 277.44 L 408 277.44" fill="#f6f6f6"/><polygon points="440.64,277.44 484.15999999999997,277.44 484.15999999999997,320.96" fill="#dbdbdb"/><path d="M 495.04 320.96 A 43.52 43.52 0 0 0 538.5600000000001 277.44 L 495.04 277.44" fill="#ececec"/><rect x="549.44" y="277.44" width="43.519999999999996" height="43.519999999999996" fill="#ffffff"/><path d="M 549.44 277.44 A 21.76 21.76 0 0 1  571.2 299.2 L 549.44 277.44 A 21.76 21.76 0 0 0 571.2 299.2" fill="#d4d4d4"/><path d="M 571.2 299.2 A 21.76 21.76 0 0 1  592.96 277.44 L 592.96 299.2" fill="#e1e1e1"/><rect x="603.84" y="277.44" width="43.52" height="43.52" fill="#eeeeee"/><rect x="712.64" y="277.44" width="43.52" height="43.52" fill="#e1e1e1"/><path d="M 767.04 320.96 A 43.52 43.52 0 0 0 810.56 277.44 L 767.04 277.44" fill="#e9e9e9"/><rect x="821.44" y="277.44" width="43.519999999999996" height="43.519999999999996" fill="#ffffff"/><polygon points="821.44,277.44 843.2,299.2 821.44,299.2" fill="#efefef"/><polygon points="843.2,277.44 864.96,277.44 843.2,299.2" fill="#f3f3f3"/><polygon points="843.2,299.2 843.2,320.96 821.44,320.96" fill="#f8f8f8"/><rect x="930.24" y="277.44" width="43.519999999999996" height="43.519999999999996" fill="#ffffff"/><rect x="952" y="299.2" width="21.76" height="21.76" fill="#e4e4e4"/><rect x="984.64" y="277.44" width="43.519999999999996" height="43.519999999999996" fill="#ffffff"/><path d="M 1006.4 299.2 A 21.76 21.76 0 0 1  1028.16 277.44 L 1006.4 299.2 A 21.76 21.76 0 0 0 1028.16 277.44" fill="#d3d3d3"/><path d="M 1093.44 277.44 A 43.52 43.52 0 0 0 1136.96 320.96 L 1136.96 277.44" fill="#efefef"/><path d="M 277.44 331.84 A 43.52 43.52 0 0 1 320.96 375.35999999999996 L 277.44 375.35999999999996" fill="#e8e8e8"/><rect x="331.84" y="331.84" width="43.52" height="43.52" fill="#fdfdfd"/><path d="M 386.24 375.35999999999996 A 43.52 43.52 0 0 0 429.76 331.84 L 386.24 331.84" fill="#f3f3f3"/><rect x="440.64" y="331.84" width="43.519999999999996" height="43.519999999999996" fill="#ffffff"/><path d="M 440.64 353.59999999999997 A 21.76 21.76 0 0 0 462.4 331.84 L 440.64 331.84" fill="#d3d3d3"/><rect x="462.4" y="331.84" width="21.76" height="21.76" fill="#efefef"/><rect x="440.64" y="353.6" width="21.76" height="21.76" fill="#fdfdfd"/><path d="M 462.4 353.6 A 21.76 21.76 0 0 1  484.15999999999997 375.36 L 462.4 353.6 A 21.76 21.76 0 0 0 484.15999999999997 375.36" fill="#f9f9f9"/><rect x="549.44" y="331.84" width="43.519999999999996" height="43.519999999999996" fill="#ffffff"/><rect x="549.44" y="331.84" width="21.76" height="21.76" fill="#cdcdcd"/><path d="M 571.2 331.84 A 21.76 21.76 0 0 1  592.96 353.59999999999997 L 571.2 331.84 A 21.76 21.76 0 0 0 592.96 353.59999999999997" fill="#f8f8f8"/><polygon points="549.44,353.6 571.2,353.6 571.2,375.36" fill="#dcdcdc"/><polygon points="571.2,353.6 592.96,353.6 571.2,375.36" fill="#f8f8f8"/><path d="M 603.84 375.35999999999996 A 43.52 43.52 0 0 1  647.36 331.84 L 603.84 375.35999999999996 A 43.52 43.52 0 0 0 647.36 331.84" fill="#f7f7f7"/><polygon points="658.24,331.84 701.76,375.35999999999996 658.24,375.35999999999996" fill="#dadada"/><rect x="712.64" y="331.84" width="43.519999999999996" height="43.519999999999996" fill="#ffffff"/><rect x="712.64" y="331.84" width="21.76" height="21.76" fill="#f7f7f7"/><path d="M 734.4 353.59999999999997 A 21.76 21.76 0 0 0 756.16 331.84 L 734.4 331.84" fill="#cacaca"/><path d="M 712.64 353.6 A 21.76 21.76 0 0 1  734.4 375.36 L 712.64 353.6 A 21.76 21.76 0 0 0 734.4 375.36" fill="#d2d2d2"/><polygon points="756.16,353.6 756.16,375.36 734.4,375.36" fill="#9c9c9c"/><rect x="767.0400000000001" y="331.84" width="43.519999999999996" height="43.519999999999996" fill="#ffffff"/><polygon points="767.04,331.84 788.8,331.84 788.8,353.59999999999997" fill="#efefef"/><rect x="788.8" y="331.84" width="21.76" height="21.76" fill="#c1c1c1"/><path d="M 767.04 375.36 A 21.76 21.76 0 0 1  788.8 353.6 L 767.04 375.36 A 21.76 21.76 0 0 0 788.8 353.6" fill="#cdcdcd"/><path d="M 788.8 375.36 A 21.76 21.76 0 0 1  810.56 353.6 L 788.8 375.36 A 21.76 21.76 0 0 0 810.56 353.6" fill="#e9e9e9"/><path d="M 821.44 375.35999999999996 A 43.52 43.52 0 0 1  864.96 331.84 L 821.44 375.35999999999996 A 43.52 43.52 0 0 0 864.96 331.84" fill="#999999"/><polygon points="875.84,331.84 919.36,331.84 919.36,375.35999999999996" fill="#e5e5e5"/><rect x="930.24" y="331.84" width="43.519999999999996" height="43.519999999999996" fill="#ffffff"/><path d="M 952 375.36 A 21.76 21.76 0 0 1  973.76 353.6 L 973.76 375.36" fill="#b0b0b0"/><rect x="168.64" y="386.24" width="43.52" height="43.52" fill="#b7b7b7"/><rect x="277.44" y="386.24" width="43.519999999999996" height="43.519999999999996" fill="#ffffff"/><path d="M 277.44 408 A 21.76 21.76 0 0 1  299.2 386.24 L 277.44 408 A 21.76 21.76 0 0 0 299.2 386.24" fill="#cecece"/><path d="M 299.2 408 A 21.76 21.76 0 0 0 320.96 386.24 L 299.2 386.24" fill="#adadad"/><path d="M 299.2 429.76 A 21.76 21.76 0 0 1  320.96 408 L 299.2 429.76 A 21.76 21.76 0 0 0 320.96 408" fill="#d1d1d1"/><path d="M 331.84 429.76 A 43.52 43.52 0 0 1  375.35999999999996 386.24 L 331.84 429.76 A 43.52 43.52 0 0 0 375.35999999999996 386.24" fill="#dadada"/><rect x="386.24" y="386.24" width="43.519999999999996" height="43.519999999999996" fill="#ffffff"/><path d="M 386.24 408 A 21.76 21.76 0 0 1  408 386.24 L 386.24 408 A 21.76 21.76 0 0 0 408 386.24" fill="#f5f5f5"/><path d="M 408 408 A 21.76 21.76 0 0 1  429.76 386.24 L 408 408 A 21.76 21.76 0 0 0 429.76 386.24" fill="#fcfcfc"/><path d="M 440.64 386.24 A 43.52 43.52 0 0 1 484.15999999999997 429.76 L 440.64 429.76" fill="#d1d1d1"/><rect x="495.03999999999996" y="386.24" width="43.519999999999996" height="43.519999999999996" fill="#ffffff"/><polygon points="495.04,386.24 516.8000000000001,408 495.04,408" fill="#fafafa"/><path d="M 516.8 386.24 A 21.76 21.76 0 0 1  538.56 408 L 516.8 386.24 A 21.76 21.76 0 0 0 538.56 408" fill="#c9c9c9"/><path d="M 495.04 408 A 21.76 21.76 0 0 1  516.8000000000001 429.76 L 495.04 408 A 21.76 21.76 0 0 0 516.8000000000001 429.76" fill="#e4e4e4"/><rect x="516.8" y="408" width="21.76" height="21.76" fill="#d4d4d4"/><path d="M 549.44 386.24 A 43.52 43.52 0 0 1  592.96 429.76 L 549.44 386.24 A 43.52 43.52 0 0 0 592.96 429.76" fill="#fafafa"/><rect x="603.84" y="386.24" width="43.519999999999996" height="43.519999999999996" fill="#ffffff"/><path d="M 603.84 386.24 A 21.76 21.76 0 0 1  625.6 408 L 603.84 386.24 A 21.76 21.76 0 0 0 625.6 408" fill="#e3e3e3"/><rect x="625.6" y="386.24" width="21.76" height="21.76" fill="#bfbfbf"/><rect x="603.84" y="408" width="21.76" height="21.76" fill="#e5e5e5"/><path d="M 625.6 429.76 A 21.76 21.76 0 0 1  647.36 408 L 647.36 429.76" fill="#f5f5f5"/><rect x="658.24" y="386.24" width="43.52" height="43.52" fill="#a3a3a3"/><rect x="712.64" y="386.24" width="43.519999999999996" height="43.519999999999996" fill="#ffffff"/><path d="M 712.64 408 A 21.76 21.76 0 0 0 734.4 386.24 L 712.64 386.24" fill="#ebebeb"/><rect x="734.4" y="386.24" width="21.76" height="21.76" fill="#d2d2d2"/><path d="M 712.64 408 A 21.76 21.76 0 0 1  734.4 429.76 L 712.64 408 A 21.76 21.76 0 0 0 734.4 429.76" fill="#9e9e9e"/><polygon points="734.4,408 756.16,429.76 734.4,429.76" fill="#f5f5f5"/><polygon points="821.44,386.24 864.96,386.24 821.44,429.76" fill="#fbfbfb"/><rect x="875.84" y="386.24" width="43.519999999999996" height="43.519999999999996" fill="#ffffff"/><path d="M 875.84 386.24 A 21.76 21.76 0 0 1  897.6 408 L 875.84 386.24 A 21.76 21.76 0 0 0 897.6 408" fill="#b4b4b4"/><rect x="875.84" y="408" width="21.76" height="21.76" fill="#9e9e9e"/><path d="M 897.6 429.76 A 21.76 21.76 0 0 1  919.36 408 L 897.6 429.76 A 21.76 21.76 0 0 0 919.36 408" fill="#a8a8a8"/><rect x="930.24" y="386.24" width="43.519999999999996" height="43.519999999999996" fill="#ffffff"/><path d="M 930.24 408 A 21.76 21.76 0 0 1  952 429.76 L 930.24 408 A 21.76 21.76 0 0 0 952 429.76" fill="#cecece"/><rect x="952" y="408" width="21.76" height="21.76" fill="#e2e2e2"/><path d="M 277.44 484.15999999999997 A 43.52 43.52 0 0 1  320.96 440.64 L 277.44 484.15999999999997 A 43.52 43.52 0 0 0 320.96 440.64" fill="#d3d3d3"/><polygon points="375.35999999999996,440.64 375.35999999999996,484.15999999999997 331.84,484.15999999999997" fill="#9b9b9b"/><path d="M 386.24 484.15999999999997 A 43.52 43.52 0 0 1  429.76 440.64 L 386.24 484.15999999999997 A 43.52 43.52 0 0 0 429.76 440.64" fill="#cdcdcd"/><rect x="440.64" y="440.64" width="43.519999999999996" height="43.519999999999996" fill="#ffffff"/><rect x="440.64" y="440.64" width="21.76" height="21.76" fill="#a8a8a8"/><path d="M 462.4 462.4 A 21.76 21.76 0 0 1  484.15999999999997 440.64 L 462.4 462.4 A 21.76 21.76 0 0 0 484.15999999999997 440.64" fill="#ececec"/><path d="M 440.64 462.4 A 21.76 21.76 0 0 0 462.4 484.15999999999997 L 462.4 462.4" fill="#d1d1d1"/><path d="M 462.4 484.15999999999997 A 21.76 21.76 0 0 1  484.15999999999997 462.4 L 462.4 484.15999999999997 A 21.76 21.76 0 0 0 484.15999999999997 462.4" fill="#cecece"/><rect x="495.03999999999996" y="440.64" width="43.519999999999996" height="43.519999999999996" fill="#ffffff"/><path d="M 495.04 462.4 A 21.76 21.76 0 0 0 516.8000000000001 440.64 L 495.04 440.64" fill="#fdfdfd"/><rect x="516.8" y="440.64" width="21.76" height="21.76" fill="#ebebeb"/><path d="M 495.04 462.4 A 21.76 21.76 0 0 1  516.8000000000001 484.15999999999997 L 495.04 462.4 A 21.76 21.76 0 0 0 516.8000000000001 484.15999999999997" fill="#d1d1d1"/><path d="M 516.8 462.4 A 21.76 21.76 0 0 1  538.56 484.15999999999997 L 516.8 462.4 A 21.76 21.76 0 0 0 538.56 484.15999999999997" fill="#bcbcbc"/><rect x="549.44" y="440.64" width="43.519999999999996" height="43.519999999999996" fill="#ffffff"/><path d="M 549.44 462.4 A 21.76 21.76 0 0 1  571.2 440.64 L 549.44 462.4 A 21.76 21.76 0 0 0 571.2 440.64" fill="#efefef"/><rect x="571.2" y="440.64" width="21.76" height="21.76" fill="#f9f9f9"/><path d="M 549.44 484.15999999999997 A 21.76 21.76 0 0 1  571.2 462.4 L 549.44 484.15999999999997 A 21.76 21.76 0 0 0 571.2 462.4" fill="#dcdcdc"/><path d="M 571.2 462.4 A 21.76 21.76 0 0 1 592.96 484.15999999999997 L 571.2 484.15999999999997" fill="#a9a9a9"/><rect x="603.84" y="440.64" width="43.519999999999996" height="43.519999999999996" fill="#ffffff"/><rect x="603.84" y="440.64" width="21.76" height="21.76" fill="#cdcdcd"/><path d="M 625.6 440.64 A 21.76 21.76 0 0 1  647.36 462.4 L 625.6 440.64 A 21.76 21.76 0 0 0 647.36 462.4" fill="#e8e8e8"/><polygon points="603.84,462.4 625.6,462.4 603.84,484.15999999999997" fill="#e9e9e9"/><rect x="625.6" y="462.4" width="21.76" height="21.76" fill="#cecece"/><rect x="658.24" y="440.64" width="43.519999999999996" height="43.519999999999996" fill="#ffffff"/><path d="M 658.24 462.4 A 21.76 21.76 0 0 0 680 440.64 L 658.24 440.64" fill="#acacac"/><rect x="680" y="440.64" width="21.76" height="21.76" fill="#d3d3d3"/><polygon points="680,462.4 680,484.15999999999997 658.24,484.15999999999997" fill="#ededed"/><path d="M 680 462.4 A 21.76 21.76 0 0 1 701.76 484.15999999999997 L 680 484.15999999999997" fill="#f1f1f1"/><rect x="712.64" y="440.64" width="43.519999999999996" height="43.519999999999996" fill="#ffffff"/><polygon points="734.4,440.64 734.4,462.4 712.64,462.4" fill="#e0e0e0"/><polygon points="734.4,440.64 756.16,440.64 734.4,462.4" fill="#ffffff"/><path d="M 712.64 462.4 A 21.76 21.76 0 0 1  734.4 484.15999999999997 L 712.64 462.4 A 21.76 21.76 0 0 0 734.4 484.15999999999997" fill="#e9e9e9"/><polygon points="734.4,462.4 756.16,462.4 756.16,484.15999999999997" fill="#d5d5d5"/><path d="M 767.04 440.64 A 43.52 43.52 0 0 1  810.56 484.15999999999997 L 767.04 440.64 A 43.52 43.52 0 0 0 810.56 484.15999999999997" fill="#9d9d9d"/><polygon points="821.44,440.64 864.96,484.15999999999997 821.44,484.15999999999997" fill="#cfcfcf"/><path d="M 930.24 484.15999999999997 A 43.52 43.52 0 0 0 973.76 440.64 L 930.24 440.64" fill="#f1f1f1"/><rect x="984.64" y="440.64" width="43.519999999999996" height="43.519999999999996" fill="#ffffff"/><path d="M 984.64 484.15999999999997 A 21.76 21.76 0 0 0 1006.4 462.4 L 984.64 462.4" fill="#fafafa"/><rect x="1006.4" y="462.4" width="21.76" height="21.76" fill="#c9c9c9"/><rect x="1039.04" y="440.64" width="43.519999999999996" height="43.519999999999996" fill="#ffffff"/><rect x="1093.44" y="440.64" width="43.519999999999996" height="43.519999999999996" fill="#ffffff"/><polygon points="1093.44,462.4 1115.2,462.4 1115.2,484.15999999999997" fill="#cdcdcd"/><path d="M 1115.2 484.15999999999997 A 21.76 21.76 0 0 1  1136.96 462.4 L 1136.96 484.15999999999997" fill="#e6e6e6"/><polygon points="266.56,495.04 266.56,538.5600000000001 223.04,538.5600000000001" fill="#f3f3f3"/><path d="M 277.44 538.5600000000001 A 43.52 43.52 0 0 1  320.96 495.04 L 277.44 538.5600000000001 A 43.52 43.52 0 0 0 320.96 495.04" fill="#f0f0f0"/><rect x="331.84" y="495.03999999999996" width="43.519999999999996" height="43.519999999999996" fill="#ffffff"/><rect x="440.64" y="495.03999999999996" width="43.519999999999996" height="43.519999999999996" fill="#ffffff"/><path d="M 440.64 516.8000000000001 A 21.76 21.76 0 0 1  462.4 495.04 L 440.64 516.8000000000001 A 21.76 21.76 0 0 0 462.4 495.04" fill="#c9c9c9"/><path d="M 462.4 516.8000000000001 A 21.76 21.76 0 0 1  484.15999999999997 495.04 L 462.4 516.8000000000001 A 21.76 21.76 0 0 0 484.15999999999997 495.04" fill="#f3f3f3"/><rect x="440.64" y="516.8" width="21.76" height="21.76" fill="#eeeeee"/><polygon points="462.4,516.8 484.15999999999997,538.56 462.4,538.56" fill="#e1e1e1"/><rect x="495.03999999999996" y="495.03999999999996" width="43.519999999999996" height="43.519999999999996" fill="#ffffff"/><path d="M 495.04 495.04 A 21.76 21.76 0 0 1  516.8000000000001 516.8000000000001 L 495.04 495.04 A 21.76 21.76 0 0 0 516.8000000000001 516.8000000000001" fill="#c5c5c5"/><rect x="516.8" y="495.04" width="21.76" height="21.76" fill="#f6f6f6"/><polygon points="495.04,516.8 516.8000000000001,538.56 495.04,538.56" fill="#f4f4f4"/><rect x="549.44" y="495.03999999999996" width="43.519999999999996" height="43.519999999999996" fill="#ffffff"/><path d="M 549.44 516.8000000000001 A 21.76 21.76 0 0 1  571.2 495.04 L 549.44 516.8000000000001 A 21.76 21.76 0 0 0 571.2 495.04" fill="#d5d5d5"/><rect x="571.2" y="495.04" width="21.76" height="21.76" fill="#eaeaea"/><rect x="549.44" y="516.8" width="21.76" height="21.76" fill="#fcfcfc"/><polygon points="592.96,516.8 592.96,538.56 571.2,538.56" fill="#d9d9d9"/><rect x="603.84" y="495.03999999999996" width="43.519999999999996" height="43.519999999999996" fill="#ffffff"/><polygon points="603.84,495.04 625.6,495.04 625.6,516.8000000000001" fill="#d6d6d6"/><path d="M 625.6 495.04 A 21.76 21.76 0 0 1 647.36 516.8000000000001 L 625.6 516.8000000000001" fill="#dbdbdb"/><polygon points="625.6,516.8 625.6,538.56 603.84,538.56" fill="#dddddd"/><path d="M 625.6 516.8 A 21.76 21.76 0 0 1  647.36 538.56 L 625.6 516.8 A 21.76 21.76 0 0 0 647.36 538.56" fill="#fefefe"/><rect x="658.24" y="495.03999999999996" width="43.519999999999996" height="43.519999999999996" fill="#ffffff"/><rect x="658.24" y="495.04" width="21.76" height="21.76" fill="#d3d3d3"/><path d="M 680 516.8000000000001 A 21.76 21.76 0 0 1  701.76 495.04 L 680 516.8000000000001 A 21.76 21.76 0 0 0 701.76 495.04" fill="#dfdfdf"/><polygon points="658.24,516.8 680,516.8 680,538.56" fill="#cdcdcd"/><polygon points="680,516.8 701.76,538.56 680,538.56" fill="#d6d6d6"/><rect x="712.64" y="495.04" width="43.52" height="43.52" fill="#dcdcdc"/><rect x="767.0400000000001" y="495.03999999999996" width="43.519999999999996" height="43.519999999999996" fill="#ffffff"/><path d="M 767.04 516.8000000000001 A 21.76 21.76 0 0 1  788.8 495.04 L 767.04 516.8000000000001 A 21.76 21.76 0 0 0 788.8 495.04" fill="#aeaeae"/><rect x="788.8" y="495.04" width="21.76" height="21.76" fill="#dadada"/><polygon points="767.04,516.8 788.8,516.8 767.04,538.56" fill="#dedede"/><path d="M 788.8 516.8 A 21.76 21.76 0 0 0 810.56 538.56 L 810.56 516.8" fill="#e7e7e7"/><polygon points="864.96,495.04 864.96,538.5600000000001 821.44,538.5600000000001" fill="#eeeeee"/><path d="M 1093.44 538.5600000000001 A 43.52 43.52 0 0 1  1136.96 495.04 L 1093.44 538.5600000000001 A 43.52 43.52 0 0 0 1136.96 495.04" fill="#d3d3d3"/><rect x="114.24" y="549.44" width="43.519999999999996" height="43.519999999999996" fill="#ffffff"/><polygon points="114.24,549.44 136,571.2 114.24,571.2" fill="#b1b1b1"/><rect x="168.64" y="549.44" width="43.519999999999996" height="43.519999999999996" fill="#ffffff"/><polygon points="212.16,549.44 212.16,571.2 190.4,571.2" fill="#e8e8e8"/><rect x="277.44" y="549.44" width="43.519999999999996" height="43.519999999999996" fill="#ffffff"/><path d="M 277.44 571.2 A 21.76 21.76 0 0 0 299.2 549.44 L 277.44 549.44" fill="#d7d7d7"/><path d="M 277.44 592.96 A 21.76 21.76 0 0 1  299.2 571.2 L 277.44 592.96 A 21.76 21.76 0 0 0 299.2 571.2" fill="#d1d1d1"/><rect x="386.24" y="549.44" width="43.519999999999996" height="43.519999999999996" fill="#ffffff"/><polygon points="408,549.44 429.76,549.44 408,571.2" fill="#b1b1b1"/><rect x="386.24" y="571.2" width="21.76" height="21.76" fill="#f0f0f0"/><path d="M 408 571.2 A 21.76 21.76 0 0 1 429.76 592.96 L 408 592.96" fill="#adadad"/><rect x="440.64" y="549.44" width="43.519999999999996" height="43.519999999999996" fill="#ffffff"/><polygon points="440.64,549.44 462.4,549.44 462.4,571.2" fill="#d0d0d0"/><path d="M 462.4 571.2 A 21.76 21.76 0 0 1  484.15999999999997 549.44 L 484.15999999999997 571.2" fill="#f6f6f6"/><rect x="440.64" y="571.2" width="21.76" height="21.76" fill="#c8c8c8"/><rect x="495.03999999999996" y="549.44" width="43.519999999999996" height="43.519999999999996" fill="#ffffff"/><path d="M 495.04 571.2 A 21.76 21.76 0 0 1 516.8000000000001 592.96 L 495.04 592.96" fill="#cecece"/><path d="M 516.8 571.2 A 21.76 21.76 0 0 0 538.56 592.96 L 538.56 571.2" fill="#d7d7d7"/><path d="M 549.44 592.96 A 43.52 43.52 0 0 1  592.96 549.44 L 592.96 592.96" fill="#a8a8a8"/><rect x="603.84" y="549.44" width="43.519999999999996" height="43.519999999999996" fill="#ffffff"/><path d="M 603.84 571.2 A 21.76 21.76 0 0 1  625.6 549.44 L 625.6 571.2" fill="#bfbfbf"/><path d="M 625.6 549.44 A 21.76 21.76 0 0 0 647.36 571.2 L 647.36 549.44" fill="#ededed"/><path d="M 603.84 571.2 A 21.76 21.76 0 0 1  625.6 592.96 L 603.84 571.2 A 21.76 21.76 0 0 0 625.6 592.96" fill="#f4f4f4"/><path d="M 625.6 571.2 A 21.76 21.76 0 0 1  647.36 592.96 L 625.6 571.2 A 21.76 21.76 0 0 0 647.36 592.96" fill="#d2d2d2"/><rect x="658.24" y="549.44" width="43.519999999999996" height="43.519999999999996" fill="#ffffff"/><rect x="680" y="549.44" width="21.76" height="21.76" fill="#ededed"/><polygon points="658.24,571.2 680,571.2 658.24,592.96" fill="#b0b0b0"/><path d="M 712.64 549.44 A 43.52 43.52 0 0 1 756.16 592.96 L 712.64 592.96" fill="#dedede"/><path d="M 767.04 592.96 A 43.52 43.52 0 0 1  810.56 549.44 L 767.04 592.96 A 43.52 43.52 0 0 0 810.56 549.44" fill="#d1d1d1"/><path d="M 821.44 592.96 A 43.52 43.52 0 0 1  864.96 549.44 L 864.96 592.96" fill="#f9f9f9"/><rect x="1039.04" y="549.44" width="43.52" height="43.52" fill="#cdcdcd"/><path d="M 1147.84 549.44 A 43.52 43.52 0 0 1  1191.36 592.96 L 1147.84 549.44 A 43.52 43.52 0 0 0 1191.36 592.96" fill="#bdbdbd"/><rect x="223.04" y="603.84" width="43.519999999999996" height="43.519999999999996" fill="#ffffff"/><path d="M 244.8 625.6 A 21.76 21.76 0 0 1  266.56 647.36 L 244.8 625.6 A 21.76 21.76 0 0 0 266.56 647.36" fill="#cccccc"/><rect x="331.84" y="603.84" width="43.519999999999996" height="43.519999999999996" fill="#ffffff"/><polygon points="331.84,603.84 353.59999999999997,625.6 331.84,625.6" fill="#bebebe"/><path d="M 353.6 603.84 A 21.76 21.76 0 0 1  375.36 625.6 L 353.6 603.84 A 21.76 21.76 0 0 0 375.36 625.6" fill="#f2f2f2"/><rect x="386.24" y="603.84" width="43.519999999999996" height="43.519999999999996" fill="#ffffff"/><path d="M 386.24 603.84 A 21.76 21.76 0 0 1  408 625.6 L 386.24 603.84 A 21.76 21.76 0 0 0 408 625.6" fill="#dadada"/><polygon points="408,603.84 429.76,625.6 408,625.6" fill="#f5f5f5"/><rect x="408" y="625.6" width="21.76" height="21.76" fill="#d4d4d4"/><path d="M 549.44 647.36 A 43.52 43.52 0 0 0 592.96 603.84 L 549.44 603.84" fill="#eaeaea"/><polygon points="603.84,603.84 647.36,603.84 647.36,647.36" fill="#ececec"/><polygon points="810.56,603.84 810.56,647.36 767.04,647.36" fill="#f0f0f0"/><rect x="984.64" y="603.84" width="43.519999999999996" height="43.519999999999996" fill="#ffffff"/><polygon points="1028.16,625.6 1028.16,647.36 1006.4,647.36" fill="#fdfdfd"/><path d="M 1039.04 603.84 A 43.52 43.52 0 0 1  1082.56 647.36 L 1039.04 603.84 A 43.52 43.52 0 0 0 1082.56 647.36" fill="#e8e8e8"/><polygon points="168.64,658.24 212.16,658.24 168.64,701.76" fill="#dedede"/><rect x="549.44" y="658.24" width="43.519999999999996" height="43.519999999999996" fill="#ffffff"/><path d="M 571.2 680 A 21.76 21.76 0 0 0 592.96 658.24 L 571.2 658.24" fill="#d3d3d3"/><path d="M 549.44 701.76 A 21.76 21.76 0 0 1  571.2 680 L 549.44 701.76 A 21.76 21.76 0 0 0 571.2 680" fill="#f8f8f8"/><rect x="571.2" y="680" width="21.76" height="21.76" fill="#b6b6b6"/><rect x="712.64" y="658.24" width="43.52" height="43.52" fill="#e9e9e9"/><rect x="767.04" y="658.24" width="43.52" height="43.52" fill="#e0e0e0"/><rect x="875.84" y="658.24" width="43.519999999999996" height="43.519999999999996" fill="#ffffff"/><rect x="897.6" y="680" width="21.76" height="21.76" fill="#e0e0e0"/><rect x="168.64" y="712.64" width="43.519999999999996" height="43.519999999999996" fill="#ffffff"/><path d="M 190.4 734.4 A 21.76 21.76 0 0 1  212.16 712.64 L 190.4 734.4 A 21.76 21.76 0 0 0 212.16 712.64" fill="#eaeaea"/><rect x="223.04" y="712.64" width="43.519999999999996" height="43.519999999999996" fill="#ffffff"/><path d="M 603.84 756.16 A 43.52 43.52 0 0 1  647.36 712.64 L 603.84 756.16 A 43.52 43.52 0 0 0 647.36 712.64" fill="#fdfdfd"/><polygon points="712.64,712.64 756.16,712.64 712.64,756.16" fill="#e9e9e9"/><rect x="767.0400000000001" y="712.64" width="43.519999999999996" height="43.519999999999996" fill="#ffffff"/><path d="M 767.04 712.64 A 21.76 21.76 0 0 1  788.8 734.4 L 767.04 712.64 A 21.76 21.76 0 0 0 788.8 734.4" fill="#d0d0d0"/><rect x="788.8" y="712.64" width="21.76" height="21.76" fill="#d4d4d4"/><rect x="930.24" y="712.64" width="43.519999999999996" height="43.519999999999996" fill="#ffffff"/><rect x="440.64" y="767.0400000000001" width="43.519999999999996" height="43.519999999999996" fill="#ffffff"/></g></svg>